<svg width="133" height="48" viewBox="0 0 133 48" fill="none" xmlns="http://www.w3.org/2000/svg" shape-rendering="geometricPrecision">
<style>path[style*="mix-blend-mode"] { display: none; }</style>
<path d="M26.009 13.7305L24.6047 21.773C24.5054 22.1418 24.2075 22.3972 23.8387 22.3972H18.9309C14.9025 22.3972 11.0869 25.6312 10.406 29.6596L10.1223 31.1631V31.1915C9.42728 35.1631 12.1081 38.4255 16.094 38.4255H20.7465C21.2288 38.4255 21.5834 38.8653 21.5125 39.3333L20.1082 47.3333C20.1082 47.3333 20.1082 47.3759 20.0798 47.4043C20.0373 47.7447 19.6827 48 19.3422 48H11.2996C10.8174 48 10.4627 47.5887 10.562 47.1206L11.3989 42.4539L11.4698 41.9716L11.4982 41.7872C11.7961 38.2269 9.37054 35.3759 5.76768 35.2199H0.77473C0.306641 35.2199 -0.0621557 34.7801 0.00876681 34.3121L1.46977 26.2411C1.51232 25.9007 1.8102 25.6454 2.19318 25.6454H7.1152C11.0727 25.6454 14.8316 22.4964 15.6259 18.5674L15.6543 18.383L16.5053 13.461C16.6046 13.0922 16.9025 12.8369 17.2713 12.8369H25.2997C25.4558 12.8369 25.626 12.8794 25.7395 12.9929C25.9664 13.1489 26.1083 13.4326 26.0657 13.7305H26.009Z" fill="#F35822"/>
<path d="M38.8597 13.7021L37.4271 21.7731C37.3845 22.1419 37.0583 22.3972 36.6895 22.3972H31.7674C27.81 22.3972 24.0653 25.5461 23.2851 29.4752L23.2426 29.6596L22.3915 34.5816C22.3206 34.9504 22.0227 35.2057 21.6539 35.2057H13.6255C13.2992 35.2057 13.0439 35.0213 12.9304 34.7376C12.8595 34.5958 12.8311 34.4539 12.8595 34.2979L14.2638 26.2553C14.3347 25.8865 14.6609 25.6028 15.0297 25.6028H19.9376C23.966 25.6028 27.7816 22.3688 28.4625 18.3688L28.7461 16.8369C29.4412 12.8369 26.7603 9.60284 22.7603 9.60284H18.1361C17.6539 9.60284 17.2993 9.16313 17.3702 8.69504L18.7744 0.624112C18.8028 0.524821 18.8454 0.439719 18.8879 0.340428C19.0298 0.127662 19.2851 0 19.5404 0H27.5688C28.0511 0 28.4057 0.439716 28.3348 0.907801L27.4979 5.57447L27.427 6.05674L27.3986 6.24114C27.0724 9.80143 29.5263 12.6525 33.1292 12.8085H38.1221C38.5902 12.8085 38.959 13.2199 38.8597 13.688V13.7021Z" fill="#6B27EB"/>
<path d="M54.1959 11.3616C53.2739 10.4254 51.9264 9.94318 50.2101 9.94318C46.4512 9.94318 43.2313 12.5105 42.5505 16.0567C42.2526 17.5886 42.4795 18.9503 43.2171 20.0141C43.2881 20.1134 43.359 20.2269 43.4441 20.312C44.3944 21.4609 45.9264 22.085 47.7845 22.085C49.6427 22.085 51.2314 21.5318 52.5647 20.4964C52.891 20.2411 52.9193 19.773 52.6498 19.4751L52.0683 18.8226C51.8271 18.5531 51.43 18.5247 51.1321 18.7375C50.3094 19.3474 49.4441 19.6595 48.5221 19.6595C47.6001 19.6595 46.7633 19.3474 46.2384 18.7659C46.2101 18.7375 46.1817 18.695 46.1533 18.6666C45.6001 17.9857 45.4157 17.0637 45.6285 15.9574C46.0399 13.8013 47.742 12.3403 49.8697 12.3403C50.7633 12.3403 51.5151 12.624 52.0966 13.2056C52.352 13.4467 52.7349 13.4751 53.0186 13.2623L54.1534 12.3971C54.4796 12.1418 54.5222 11.6453 54.2385 11.3474L54.1959 11.3616Z" fill="white"/>
<path d="M82.4353 13.6312C82.2792 13.0922 82.0381 12.5957 81.6835 12.1702C80.7331 11.0213 79.1586 10.4113 77.1161 10.4113H72.1515C71.8111 10.4113 71.5132 10.6525 71.4565 10.9787L70.804 14.3688L69.4706 21.2199C69.3855 21.6596 69.726 22.0567 70.1657 22.0567H74.7756C77.8537 22.0567 80.4636 20.6383 81.7402 18.2553C82.0948 17.617 82.3502 16.9362 82.492 16.1844C82.6764 15.234 82.6622 14.3688 82.4495 13.6028L82.4353 13.6312ZM79.4282 16.2979C79.3147 16.8936 79.1019 17.4468 78.7757 17.9291C78.0097 19.1064 76.6905 19.7872 75.1444 19.7872H73.5983C73.1444 19.7872 72.8182 19.3759 72.9033 18.9504L73.8395 14.156L73.9955 13.3333C74.0522 13.0071 74.3501 12.766 74.6905 12.766H76.4352C77.5416 12.766 78.4069 13.1064 78.9317 13.7589C78.9459 13.7872 78.9743 13.8014 78.9884 13.8298C79.4707 14.4539 79.6126 15.3192 79.414 16.3262L79.4282 16.2979Z" fill="white"/>
<path d="M93.7398 10.4256H86.1227C85.7823 10.4256 85.4986 10.6667 85.4277 10.9929L84.9312 13.5319L83.4277 21.2483C83.3426 21.688 83.683 22.0851 84.1227 22.0851H91.9667C92.3072 22.0851 92.5909 21.844 92.6618 21.5036L92.8178 20.6951C92.9029 20.2553 92.5625 19.8582 92.1228 19.8582H87.527C87.0873 19.8582 86.7468 19.461 86.8319 19.0213L87.0589 17.8156C87.1156 17.4752 87.4135 17.2341 87.7539 17.2341H91.9526C92.293 17.2341 92.5767 16.9929 92.6476 16.6667L92.7894 15.9291C92.8746 15.4894 92.5341 15.0922 92.0944 15.0922H88.449C87.9951 15.0922 87.6688 14.6809 87.7539 14.2553L87.91 13.461L87.9525 13.2341C88.0234 12.8936 88.3071 12.6525 88.6476 12.6525H93.5696C93.91 12.6525 94.2079 12.4114 94.2646 12.0851L94.4207 11.2624C94.5058 10.8227 94.1653 10.4256 93.7256 10.4256H93.7398Z" fill="white"/>
<path d="M67.6111 11.7588C66.6465 10.5957 65.0862 9.94318 63.2139 9.94318C59.4266 9.94318 56.1642 12.5247 55.4833 16.0567C55.4549 16.1843 55.4408 16.3262 55.4266 16.4538C55.228 17.929 55.5542 19.2765 56.3911 20.2836C57.3557 21.4467 58.916 22.0992 60.7883 22.0992C64.5756 22.0992 67.838 19.5318 68.5189 15.9857C68.6182 15.5176 68.6465 15.0496 68.6323 14.6098C68.604 13.5176 68.2494 12.5389 67.6111 11.7588ZM65.455 16.0567C65.2564 17.1063 64.7174 18.0141 63.9798 18.6524C63.2422 19.2907 62.3202 19.6737 61.3273 19.6737C60.3911 19.6737 59.5968 19.3332 59.072 18.695C58.5188 18.0283 58.3202 17.0496 58.533 15.9715C58.533 15.9432 58.533 15.9148 58.5472 15.9006C58.9869 13.8439 60.7032 12.3687 62.6749 12.3687C63.611 12.3687 64.4054 12.7091 64.9302 13.3332C65.2848 13.7588 65.4976 14.312 65.5401 14.9361C65.5685 15.2907 65.5401 15.6595 65.4692 16.0567H65.455Z" fill="white"/>
<path d="M54.5087 25.1915H53.2463C53.0336 25.1915 52.8208 25.2908 52.6931 25.461L49.4874 29.5319L48.0122 31.4184C47.6718 31.844 47.0051 31.7588 46.8066 31.2482L45.5867 28.312L44.4803 25.6312C44.3668 25.3617 44.1115 25.1915 43.8278 25.1915H42.381C42.0406 25.1915 41.7427 25.4326 41.686 25.773L41.5725 26.3546L39.7001 36.0284C39.615 36.4681 39.9554 36.8652 40.3952 36.8652H41.686C42.0264 36.8652 42.3243 36.6241 42.381 36.2979L43.1328 32.4397C43.2604 31.7588 44.2108 31.6595 44.4803 32.2978L45.7144 35.2482C45.8278 35.5177 46.0832 35.6879 46.3668 35.6879H46.8349C47.0477 35.6879 47.2605 35.5886 47.3881 35.4184L49.9555 32.156C50.4094 31.5744 51.3456 32 51.2038 32.7234L50.5796 36.0284C50.4945 36.4681 50.835 36.8652 51.2747 36.8652H52.5655C52.9059 36.8652 53.2038 36.6241 53.2605 36.2837L54.3385 30.6525L55.218 26.0283C55.3031 25.5886 54.9627 25.1915 54.5229 25.1915H54.5087Z" fill="white"/>
<path d="M84.8784 25.1914H83.6159C83.4032 25.1914 83.1904 25.2907 83.0628 25.461L78.3677 31.4042C78.0272 31.8297 77.3606 31.7446 77.162 31.234L74.8357 25.617C74.7223 25.3475 74.4669 25.1773 74.1832 25.1773H72.7364C72.396 25.1773 72.1123 25.4184 72.0414 25.7588L70.6513 32.9078L70.0414 36.0141C69.9563 36.4539 70.2825 36.851 70.7364 36.851H72.0272C72.3676 36.851 72.6513 36.6099 72.7222 36.2837L73.3322 33.1347L73.474 32.4255C73.6017 31.7446 74.552 31.6454 74.8215 32.2837L75.2329 33.2766L76.0556 35.234C76.1691 35.5035 76.4244 35.6737 76.7081 35.6737H77.1762C77.3889 35.6737 77.6017 35.5744 77.7294 35.4042L79.2046 33.5319L80.2968 32.1418C80.7507 31.5602 81.6869 31.9858 81.545 32.7092L81.3748 33.6312L80.9209 36.0141C80.8358 36.4539 81.1762 36.851 81.6159 36.851H82.9067C83.2471 36.851 83.545 36.6099 83.6018 36.2695L84.084 33.7446L85.5592 26.0283C85.6443 25.5886 85.3039 25.1914 84.8642 25.1914H84.8784Z" fill="white"/>
<path d="M96.4195 25.1915H88.8024C88.462 25.1915 88.1783 25.4326 88.1074 25.7588L86.5329 33.8298L86.1074 36.0142C86.0222 36.4539 86.3627 36.851 86.8024 36.851H94.6464C94.9869 36.851 95.2847 36.6099 95.3415 36.2837L95.4975 35.4752C95.5826 35.0354 95.2422 34.6383 94.8025 34.6383H90.2067C89.7953 34.6383 89.4833 34.2979 89.4974 33.9007C89.4974 33.8723 89.4974 33.8298 89.4974 33.8014L89.7386 32.5957C89.8095 32.2553 90.0932 32.0283 90.4336 32.0283H94.6322C94.9727 32.0283 95.2705 31.7872 95.3273 31.4468L95.4691 30.7234C95.5542 30.2837 95.2138 29.8865 94.7741 29.8865H91.1287C90.6748 29.8865 90.3485 29.4893 90.4336 29.0496L90.6322 28.0283C90.689 27.6879 90.9868 27.4468 91.3273 27.4468H96.2493C96.5897 27.4468 96.8734 27.2057 96.9443 26.8794L97.1003 26.0567C97.1855 25.617 96.845 25.2198 96.4053 25.2198L96.4195 25.1915Z" fill="white"/>
<path d="M109.417 25.1915H107.927C107.587 25.1915 107.289 25.4326 107.232 25.773L106.367 30.2269C106.239 30.851 105.417 31.0213 105.076 30.4681L101.941 25.5177C101.814 25.3049 101.587 25.1915 101.346 25.1915H99.7853C99.4449 25.1915 99.1612 25.4326 99.0903 25.7588L99.0619 25.9007L97.5016 33.9291L97.0903 36.0142C97.0052 36.4539 97.3456 36.851 97.7853 36.851H99.2747C99.6151 36.851 99.8988 36.6099 99.9697 36.2837L100.438 33.8723L100.835 31.8298C100.963 31.2057 101.785 31.0496 102.126 31.5886L103.53 33.8014L105.261 36.5248C105.388 36.7376 105.615 36.851 105.856 36.851H107.417C107.757 36.851 108.055 36.6099 108.112 36.2837L108.636 33.5886L110.112 26.0283C110.197 25.5886 109.856 25.1915 109.417 25.1915Z" fill="white"/>
<path d="M121.584 25.1914H112.633C112.293 25.1914 112.009 25.4326 111.938 25.7588L111.768 26.6524C111.683 27.0922 112.023 27.4893 112.463 27.4893H114.463C114.903 27.4893 115.243 27.9007 115.158 28.3262L114.194 33.2482L113.655 36C113.569 36.4397 113.91 36.8368 114.35 36.8368H115.91C116.25 36.8368 116.534 36.5957 116.605 36.2695L117.243 33.007L118.208 28.0425C118.265 27.7163 118.562 27.4751 118.903 27.4751H121.428C121.768 27.4751 122.052 27.234 122.123 26.9078L122.293 26.0141C122.378 25.5744 122.038 25.1773 121.598 25.1773L121.584 25.1914Z" fill="white"/>
<path d="M128.535 27.1915C129.386 27.1915 130.237 27.3901 131.074 27.773C131.4 27.9291 131.783 27.8156 131.982 27.5035L132.578 26.5248C132.805 26.156 132.649 25.6596 132.237 25.5035C131.329 25.1489 130.237 24.9503 129.074 24.9503C125.258 24.9503 123.514 26.8936 123.159 28.7092C122.719 30.9929 124.478 31.6312 126.237 32.0567C126.422 32.0993 126.606 32.1418 126.776 32.1844C128.095 32.4965 129.23 32.7518 129.046 33.7021C128.89 34.4681 128.095 34.8511 126.691 34.8511C125.599 34.8511 124.45 34.5674 123.528 34.0709C123.216 33.9007 122.819 34.0142 122.62 34.3262L121.996 35.305C121.769 35.6738 121.911 36.1418 122.294 36.3262C123.315 36.8085 124.719 37.0922 126.166 37.0922C129.315 37.0922 131.627 35.6312 132.067 33.3617C132.251 32.3972 132.053 31.7305 131.613 31.2482C130.918 30.4823 129.613 30.1844 128.422 29.9149C127.131 29.617 125.996 29.3617 126.18 28.4539C126.266 27.9858 126.705 27.1915 128.535 27.1915Z" fill="white"/>
<path d="M68.282 26.7659C67.3175 25.6028 65.7572 24.9503 63.899 24.9503C60.1259 24.9503 56.8919 27.5035 56.1826 31.0071C56.1826 31.0213 56.1826 31.0496 56.1826 31.0638C55.8706 32.695 56.1826 34.1986 57.0763 35.2908C58.0408 36.4539 59.6011 37.1064 61.4593 37.1064C64.5941 37.1064 67.3742 35.3475 68.6224 32.7234C68.892 32.1844 69.0764 31.6028 69.204 30.9929C69.5161 29.3617 69.204 27.8581 68.3104 26.7659H68.282ZM64.6508 33.6596C63.9132 34.2979 62.9912 34.6808 61.9983 34.6808C61.0621 34.6808 60.2678 34.3404 59.743 33.7021C59.2749 33.1489 59.0621 32.3688 59.133 31.5035C59.133 31.3333 59.1614 31.1489 59.2039 30.9787C59.6153 28.8794 61.36 27.3617 63.3458 27.3617C64.282 27.3617 65.0763 27.7021 65.6012 28.3262C66.1543 29.0071 66.3529 29.9716 66.1402 31.0496C66.0409 31.5319 65.8848 31.9716 65.6579 32.383C65.3884 32.8652 65.048 33.2908 64.6508 33.6454V33.6596Z" fill="white"/>
<path style="mix-blend-mode:overlay" d="M44.4537 25.6311L45.5601 28.312C43.8722 27.6878 42.5247 27.0354 41.5317 26.3545L41.6452 25.7729C41.7019 25.4325 41.9998 25.1914 42.3403 25.1914H43.7871C44.0708 25.1914 44.3261 25.3616 44.4396 25.6311H44.4537ZM52.6382 19.4751L52.0566 18.8226C51.8155 18.5531 51.4183 18.5247 51.1205 18.7375C50.2978 19.3474 49.4325 19.6595 48.5105 19.6595C47.5885 19.6595 46.7516 19.3474 46.2268 18.7658C45.0921 19.163 44.0849 19.5744 43.2197 19.9999C43.2906 20.0992 43.3615 20.2127 43.4466 20.2978C44.397 21.4467 45.9289 22.0708 47.7871 22.0708C49.6453 22.0708 51.2339 21.5176 52.5673 20.4822C52.8935 20.2268 52.9219 19.7588 52.6524 19.4609L52.6382 19.4751ZM54.5106 25.1914H53.2481C53.0354 25.1914 52.8226 25.2907 52.6949 25.4609L49.4892 29.5318C50.9644 29.929 52.5815 30.312 54.3262 30.6666L55.2056 26.0425C55.2907 25.6027 54.9503 25.2056 54.5106 25.2056V25.1914ZM65.5461 14.9361C65.5745 15.2907 65.5461 15.6595 65.4752 16.0566C65.2766 17.1063 64.7376 18.0141 64 18.6524C63.2624 19.2907 62.3404 19.6737 61.3475 19.6737C60.4113 19.6737 59.617 19.3332 59.0922 18.6949C58.539 18.0283 58.3404 17.0495 58.5531 15.9715C58.5531 15.9432 58.5531 15.9148 58.5673 15.9006C57.4893 16.085 56.4397 16.2552 55.4467 16.4538C55.2482 17.929 55.5744 19.2765 56.4113 20.2836C57.3758 21.4467 58.9361 22.0992 60.8085 22.0992C64.5957 22.0992 67.8582 19.5318 68.539 15.9857C68.6383 15.5176 68.6667 15.0495 68.6525 14.6098C67.6029 14.7091 66.5674 14.8226 65.5603 14.9502L65.5461 14.9361ZM68.2837 26.7659C67.3192 25.6027 65.7589 24.9503 63.9007 24.9503C60.1276 24.9503 56.8936 27.5034 56.1843 31.007C57.1347 31.1914 58.1276 31.3474 59.1489 31.5176C59.1489 31.3474 59.1773 31.163 59.2198 30.9928C59.6312 28.8935 61.3759 27.3758 63.3617 27.3758C64.2979 27.3758 65.0922 27.7162 65.617 28.3403C66.1702 29.0212 66.3688 29.9857 66.156 31.0637C66.0567 31.546 65.9007 31.9857 65.6738 32.3971C66.6383 32.5105 67.617 32.6098 68.6241 32.7091C68.8936 32.1701 69.078 31.5886 69.2057 30.9786C69.5178 29.3474 69.2057 27.8439 68.3121 26.7517L68.2837 26.7659ZM82.4399 13.6311C81.2767 13.6736 80.1278 13.7304 79.0072 13.8013C79.4895 14.4254 79.6313 15.2907 79.4327 16.2978C79.3193 16.8935 79.1065 17.4467 78.7802 17.929C78.0143 19.1063 76.6951 19.7871 75.149 19.7871H73.6029C73.149 19.7871 72.8228 19.3758 72.9079 18.9502L73.844 14.1559C72.8086 14.241 71.7873 14.3119 70.7944 14.4112L69.461 21.2623C69.3759 21.702 69.7164 22.0992 70.1561 22.0992H74.766C77.8441 22.0992 80.454 20.6807 81.7306 18.2978C82.0852 17.6595 82.3406 16.9786 82.4824 16.2268C82.6668 15.2765 82.6526 14.4112 82.4399 13.6453V13.6311ZM84.8796 25.1914H83.6172C83.4044 25.1914 83.1916 25.2907 83.064 25.4609L78.3689 31.4042C78.0285 31.8297 77.3618 31.7446 77.1632 31.2339L74.837 25.6169C74.7235 25.3474 74.4682 25.1772 74.1845 25.1772H72.7376C72.3972 25.1772 72.1135 25.4183 72.0426 25.7588L70.6525 32.9077C71.532 32.9928 72.4398 33.0637 73.3476 33.1347L73.4894 32.4254C73.6171 31.7446 74.5675 31.6453 74.837 32.2836L75.2483 33.2765C76.5533 33.3758 77.8724 33.4467 79.22 33.5176L80.3122 32.1276C80.7661 31.546 81.7023 31.9715 81.5604 32.6949L81.3902 33.6169C82.2838 33.6595 83.1916 33.702 84.1136 33.7304L85.5888 26.0141C85.6739 25.5744 85.3335 25.1772 84.8938 25.1772L84.8796 25.1914ZM84.142 22.0992H91.986C92.3264 22.0992 92.6101 21.8581 92.6811 21.5176L92.8371 20.7091C92.9222 20.2694 92.5818 19.8722 92.1421 19.8722H87.5463C87.1066 19.8722 86.7661 19.4751 86.8512 19.0354L87.0782 17.8297C87.1349 17.4893 87.4328 17.2481 87.7732 17.2481H91.9718C92.3123 17.2481 92.596 17.007 92.6669 16.6807L92.8087 15.9432C92.8938 15.5034 92.5534 15.1063 92.1137 15.1063H88.4683C88.0144 15.1063 87.6881 14.6949 87.7732 14.2694L87.9293 13.4751C86.9222 13.5034 85.9292 13.5318 84.9505 13.5602L83.447 21.2765C83.3618 21.7162 83.7023 22.1134 84.142 22.1134V22.0992ZM96.4258 25.1914H88.8087C88.4683 25.1914 88.1846 25.4325 88.1137 25.7588L86.5392 33.8297C87.5179 33.8581 88.5108 33.8864 89.5037 33.9006C89.5037 33.8722 89.5037 33.8297 89.5037 33.8013L89.7449 32.5956C89.8158 32.2552 90.0995 32.0283 90.4399 32.0283H94.6385C94.979 32.0283 95.2768 31.7871 95.3336 31.4467L95.4754 30.7233C95.5605 30.2836 95.2201 29.8864 94.7804 29.8864H91.135C90.681 29.8864 90.3548 29.4893 90.4399 29.0495L90.6385 28.0283C90.6952 27.6878 90.9931 27.4467 91.3335 27.4467H96.2556C96.596 27.4467 96.8797 27.2056 96.9506 26.8793L97.1066 26.0566C97.1917 25.6169 96.8513 25.2198 96.4116 25.2198L96.4258 25.1914ZM109.419 25.1914H107.929C107.589 25.1914 107.291 25.4325 107.234 25.7729L106.369 30.2268C106.241 30.851 105.419 31.0212 105.078 30.468L101.944 25.5176C101.816 25.3049 101.589 25.1914 101.348 25.1914H99.7875C99.4471 25.1914 99.1634 25.4325 99.0925 25.7588L99.0641 25.9006L97.5038 33.929C98.4967 33.929 99.4754 33.9006 100.44 33.8864L100.837 31.8439C100.965 31.2198 101.788 31.0637 102.128 31.6027L103.532 33.8155C105.263 33.7588 106.965 33.702 108.639 33.6027L110.114 26.0425C110.199 25.6027 109.858 25.2056 109.419 25.2056V25.1914ZM121.589 25.1914H112.639C112.298 25.1914 112.015 25.4325 111.944 25.7588L111.773 26.6524C111.688 27.0921 112.029 27.4893 112.468 27.4893H114.468C114.908 27.4893 115.249 27.9006 115.164 28.3261L114.199 33.2481C115.234 33.1772 116.242 33.0921 117.249 33.007L118.213 28.0424C118.27 27.7162 118.568 27.4751 118.908 27.4751H121.433C121.773 27.4751 122.057 27.2339 122.128 26.9077L122.298 26.0141C122.383 25.5744 122.043 25.1772 121.603 25.1772L121.589 25.1914ZM132.242 25.5034C131.334 25.1488 130.242 24.9503 129.079 24.9503C125.263 24.9503 123.518 26.8935 123.164 28.7091C122.724 30.9928 124.483 31.6311 126.242 32.0566C128.128 31.8155 129.915 31.546 131.603 31.2481C130.908 30.4822 129.603 30.1843 128.412 29.9148C127.121 29.6169 125.986 29.3616 126.171 28.4538C126.256 27.9857 126.696 27.1914 128.525 27.1914C129.376 27.1914 130.227 27.39 131.064 27.7729C131.391 27.929 131.774 27.8155 131.972 27.5034L132.568 26.5247C132.795 26.1559 132.639 25.6595 132.227 25.5034H132.242Z" fill="url(#paint0_linear_289_9846)"/>
<path style="mix-blend-mode:overlay" opacity="0.75" d="M21.4874 39.4327L21.0761 41.7447L20.0973 47.3334C20.0973 47.3334 20.0973 47.3759 20.0831 47.4043C20.0406 47.7447 19.686 48.0001 19.3455 48.0001H11.5299L12.3384 43.4469L12.4093 42.9646L12.4377 42.7802C12.4377 42.7802 12.4377 42.6809 12.4377 42.6383C12.5086 41.5745 12.3384 40.5816 11.9554 39.7164C11.6008 38.8795 11.0476 38.1561 10.3668 37.5745C9.96959 37.0355 9.47313 36.5674 8.89157 36.1844C8.01213 35.6171 6.94829 35.2625 5.74261 35.2057H0.948242L2.38088 27.2341C2.42343 26.8795 2.73549 26.6242 3.10429 26.6242H8.02631C9.75682 26.6242 11.459 26.0142 12.8916 25.0071C12.4944 25.4043 12.1256 25.8298 11.8136 26.2979C11.6434 26.5391 11.5015 26.7802 11.3597 27.0355C10.9058 27.844 10.5795 28.7234 10.4235 29.6454L10.154 31.149V31.1774C9.89867 32.6383 10.0972 34 10.6504 35.1348C11.0051 35.8724 11.5157 36.5107 12.1398 37.0355C12.4519 37.461 12.8207 37.844 13.2462 38.1703C14.0973 38.8228 15.1327 39.2483 16.3242 39.3759C16.5654 39.4043 16.8065 39.4185 17.0618 39.4185H21.5016L21.4874 39.4327ZM18.1682 13.8298C17.7994 13.8298 17.5016 14.0851 17.4023 14.4539L16.5512 19.3759L16.5228 19.5603C16.1824 21.2483 15.2888 22.7944 14.0689 24.0142C14.5228 23.688 15.0051 23.4043 15.5157 23.1773C15.9696 22.9646 16.4377 22.7944 16.92 22.6667C17.5725 22.4965 18.2392 22.3972 18.92 22.3972H23.8279C24.1966 22.3972 24.4945 22.1419 24.5938 21.7731L25.913 14.2128L25.9839 13.8298H18.1682ZM22.0264 26.539C21.6434 26.5958 21.2605 26.6242 20.8775 26.6242H15.9696C15.6008 26.6242 15.2746 26.8937 15.2037 27.2766L14.8491 29.2625L13.7994 35.2199H21.6293C21.998 35.2199 22.2959 34.9646 22.3668 34.5958L23.2179 29.6738L23.2605 29.4894C23.3314 29.1632 23.4165 28.8369 23.5158 28.5391C23.7853 27.7447 24.1683 26.993 24.6364 26.3121C24.9626 25.844 25.3456 25.4043 25.7569 24.9929C24.9059 25.6029 23.9697 26.0568 22.9768 26.3405C22.6505 26.4398 22.3243 26.5107 21.998 26.5532M34.0832 13.8298C33.9414 13.8298 33.7854 13.8156 33.6435 13.8015C32.6222 13.688 31.7144 13.3617 30.9343 12.8653C30.3527 12.4965 29.8563 12.0142 29.4449 11.461C27.9981 10.2695 27.2038 8.3972 27.3882 6.26954V6.08514L27.4875 5.60287L28.2534 1.33336L28.3102 1.03549H20.4803C20.225 1.03549 19.9697 1.17734 19.8278 1.37592C19.7853 1.47521 19.7285 1.56032 19.7143 1.65961L19.5158 2.78017L19.0193 5.63124L18.3243 9.63124H22.7498C24.0832 9.63124 25.2747 9.98585 26.2392 10.61C26.8208 10.9929 27.3172 11.461 27.7286 12.0142C28.3385 12.5249 28.8492 13.1632 29.2038 13.8866C29.757 15.0355 29.9556 16.3972 29.7002 17.8582L29.4165 19.3759C29.2747 20.1986 29.0052 20.9788 28.6222 21.7022C28.1825 22.5674 27.5867 23.3617 26.8917 24.0426C27.7711 23.4185 28.7499 22.9362 29.7853 22.6667C29.8421 22.6525 29.8988 22.6383 29.9697 22.6242C30.5655 22.4823 31.1754 22.3972 31.7854 22.3972H36.7074C37.0762 22.3972 37.4024 22.1419 37.445 21.7731L38.6365 15.0922L38.8634 13.8298H34.0974H34.0832Z" fill="url(#paint1_linear_289_9846)"/>
<defs>
<linearGradient id="paint0_linear_289_9846" x1="-61.8166" y1="-47.9434" x2="221.121" y2="92.7249" gradientUnits="userSpaceOnUse">
<stop/>
<stop offset="1" stop-color="white"/>
</linearGradient>
<linearGradient id="paint1_linear_289_9846" x1="26.764" y1="90.5107" x2="15.9698" y2="-13.2482" gradientUnits="userSpaceOnUse">
<stop/>
<stop offset="1" stop-color="white"/>
</linearGradient>
</defs>
</svg>
