<svg width="133" height="48" viewBox="0 0 133 48" fill="none" xmlns="http://www.w3.org/2000/svg" shape-rendering="geometricPrecision">
<style>path[style*="mix-blend-mode"] { display: none; }</style>
<path d="M26.009 13.7305L24.6047 21.7731C24.5054 22.1419 24.2075 22.3972 23.8387 22.3972H18.9309C14.9025 22.3972 11.0869 25.6313 10.406 29.6596L10.1223 31.1632V31.1915C9.42728 35.1632 12.1081 38.4256 16.094 38.4256H20.7465C21.2288 38.4256 21.5834 38.8653 21.5125 39.3334L20.1082 47.3334C20.1082 47.3334 20.1082 47.3759 20.0798 47.4043C20.0373 47.7447 19.6827 48.0001 19.3422 48.0001H11.2996C10.8174 48.0001 10.4627 47.5887 10.562 47.1206L11.3989 42.4539L11.4698 41.9717L11.4982 41.7873C11.7961 38.227 9.37054 35.3759 5.76768 35.2199H0.77473C0.306641 35.2199 -0.0621557 34.7802 0.00876681 34.3121L1.46977 26.2412C1.51232 25.9008 1.8102 25.6454 2.19318 25.6454H7.1152C11.0727 25.6454 14.8316 22.4965 15.6259 18.5674L15.6543 18.383L16.5053 13.461C16.6046 13.0922 16.9025 12.8369 17.2713 12.8369H25.2997C25.4558 12.8369 25.626 12.8795 25.7395 12.9929C25.9664 13.149 26.1083 13.4327 26.0657 13.7305H26.009Z" fill="#F35822"/>
<path d="M38.8597 13.7021L37.4271 21.7731C37.3845 22.1419 37.0583 22.3972 36.6895 22.3972H31.7674C27.81 22.3972 24.0653 25.5461 23.2851 29.4752L23.2426 29.6596L22.3915 34.5816C22.3206 34.9504 22.0227 35.2057 21.6539 35.2057H13.6255C13.2992 35.2057 13.0439 35.0213 12.9304 34.7376C12.8595 34.5958 12.8311 34.4539 12.8595 34.2979L14.2638 26.2553C14.3347 25.8865 14.6609 25.6028 15.0297 25.6028H19.9376C23.966 25.6028 27.7816 22.3688 28.4625 18.3688L28.7461 16.8369C29.4412 12.8369 26.7603 9.60284 22.7603 9.60284H18.1361C17.6539 9.60284 17.2993 9.16313 17.3702 8.69504L18.7744 0.624112C18.8028 0.524821 18.8454 0.439719 18.8879 0.340428C19.0298 0.127662 19.2851 0 19.5404 0H27.5688C28.0511 0 28.4057 0.439716 28.3348 0.907801L27.4979 5.57447L27.427 6.05674L27.3986 6.24114C27.0724 9.80143 29.5263 12.6525 33.1292 12.8085H38.1221C38.5902 12.8085 38.959 13.2199 38.8597 13.688V13.7021Z" fill="#6B27EB"/>
<path d="M54.1955 11.3617C53.2735 10.4255 51.9259 9.94324 50.2096 9.94324C46.4507 9.94324 43.2308 12.5106 42.55 16.0567C42.2521 17.5886 42.4791 18.9503 43.2166 20.0142C43.2876 20.1135 43.3585 20.2269 43.4436 20.312C44.394 21.461 45.9259 22.0851 47.7841 22.0851C49.6422 22.0851 51.2309 21.5319 52.5642 20.4964C52.8905 20.2411 52.9188 19.773 52.6493 19.4752L52.0678 18.8227C51.8266 18.5532 51.4295 18.5248 51.1316 18.7376C50.3089 19.3475 49.4436 19.6596 48.5217 19.6596C47.5997 19.6596 46.7628 19.3475 46.2379 18.7659C46.2096 18.7376 46.1812 18.695 46.1528 18.6666C45.5996 17.9858 45.4152 17.0638 45.628 15.9574C46.0394 13.8014 47.7415 12.3404 49.8692 12.3404C50.7628 12.3404 51.5146 12.6241 52.0961 13.2056C52.3515 13.4468 52.7344 13.4751 53.0181 13.2624L54.1529 12.3971C54.4791 12.1418 54.5217 11.6454 54.238 11.3475L54.1955 11.3617Z" fill="white"/>
<path d="M82.4348 13.6312C82.2788 13.0922 82.0376 12.5958 81.683 12.1702C80.7326 11.0213 79.1582 10.4114 77.1156 10.4114H72.151C71.8106 10.4114 71.5127 10.6525 71.456 10.9788L70.8035 14.3688L69.4701 21.2199C69.385 21.6596 69.7255 22.0568 70.1652 22.0568H74.7751C77.8532 22.0568 80.4631 20.6383 81.7397 18.2554C82.0944 17.6171 82.3497 16.9362 82.4915 16.1844C82.6759 15.2341 82.6617 14.3688 82.449 13.6029L82.4348 13.6312ZM79.4277 16.2979C79.3142 16.8937 79.1014 17.4468 78.7752 17.9291C78.0092 19.1064 76.6901 19.7873 75.1439 19.7873H73.5978C73.1439 19.7873 72.8177 19.3759 72.9028 18.9504L73.839 14.1561L73.995 13.3334C74.0517 13.0071 74.3496 12.766 74.69 12.766H76.4347C77.5411 12.766 78.4064 13.1064 78.9312 13.7589C78.9454 13.7873 78.9738 13.8014 78.9879 13.8298C79.4702 14.4539 79.6121 15.3192 79.4135 16.3263L79.4277 16.2979Z" fill="white"/>
<path d="M93.7393 10.4255H86.1222C85.7818 10.4255 85.4981 10.6667 85.4272 10.9929L84.9307 13.5319L83.4272 21.2482C83.3421 21.688 83.6825 22.0851 84.1222 22.0851H91.9663C92.3067 22.0851 92.5904 21.844 92.6613 21.5036L92.8173 20.695C92.9024 20.2553 92.562 19.8582 92.1223 19.8582H87.5265C87.0868 19.8582 86.7464 19.461 86.8315 19.0213L87.0584 17.8156C87.1152 17.4752 87.413 17.2341 87.7535 17.2341H91.9521C92.2925 17.2341 92.5762 16.9929 92.6471 16.6667L92.789 15.9291C92.8741 15.4894 92.5336 15.0922 92.0939 15.0922H88.4485C87.9946 15.0922 87.6683 14.6809 87.7535 14.2553L87.9095 13.461L87.952 13.2341C88.023 12.8936 88.3066 12.6525 88.6471 12.6525H93.5691C93.9095 12.6525 94.2074 12.4114 94.2641 12.0851L94.4202 11.2624C94.5053 10.8227 94.1648 10.4255 93.7251 10.4255H93.7393Z" fill="white"/>
<path d="M67.6111 11.7588C66.6465 10.5957 65.0862 9.94324 63.2139 9.94324C59.4266 9.94324 56.1642 12.5248 55.4833 16.0567C55.4549 16.1844 55.4408 16.3262 55.4266 16.4539C55.228 17.9291 55.5542 19.2766 56.3911 20.2837C57.3557 21.4468 58.916 22.0993 60.7883 22.0993C64.5756 22.0993 67.838 19.5319 68.5189 15.9858C68.6182 15.5177 68.6465 15.0496 68.6323 14.6099C68.604 13.5177 68.2494 12.539 67.6111 11.7588ZM65.455 16.0567C65.2564 17.1064 64.7174 18.0142 63.9798 18.6525C63.2422 19.2908 62.3202 19.6737 61.3273 19.6737C60.3911 19.6737 59.5968 19.3333 59.072 18.695C58.5188 18.0283 58.3202 17.0496 58.533 15.9716C58.533 15.9432 58.533 15.9149 58.5472 15.9007C58.9869 13.8439 60.7032 12.3688 62.6749 12.3688C63.611 12.3688 64.4054 12.7092 64.9302 13.3333C65.2848 13.7588 65.4976 14.312 65.5401 14.9361C65.5685 15.2908 65.5401 15.6595 65.4692 16.0567H65.455Z" fill="white"/>
<path d="M54.5083 25.1915H53.2458C53.0331 25.1915 52.8203 25.2908 52.6926 25.461L49.4869 29.532L48.0118 31.4185C47.6713 31.844 47.0047 31.7589 46.8061 31.2483L45.5862 28.3121L44.4798 25.6312C44.3663 25.3617 44.111 25.1915 43.8273 25.1915H42.3805C42.0401 25.1915 41.7422 25.4327 41.6855 25.7731L41.572 26.3546L39.6996 36.0284C39.6145 36.4681 39.955 36.8653 40.3947 36.8653H41.6855C42.0259 36.8653 42.3238 36.6242 42.3805 36.2979L43.1323 32.4398C43.2599 31.7589 44.2103 31.6596 44.4798 32.2979L45.7139 35.2483C45.8273 35.5178 46.0827 35.688 46.3664 35.688H46.8344C47.0472 35.688 47.26 35.5887 47.3876 35.4185L49.955 32.1561C50.4089 31.5745 51.3451 32 51.2033 32.7234L50.5792 36.0284C50.494 36.4681 50.8345 36.8653 51.2742 36.8653H52.565C52.9054 36.8653 53.2033 36.6242 53.26 36.2837L54.338 30.6525L55.2175 26.0284C55.3026 25.5887 54.9622 25.1915 54.5224 25.1915H54.5083Z" fill="white"/>
<path d="M84.8779 25.1914H83.6155C83.4027 25.1914 83.1899 25.2907 83.0623 25.4609L78.3672 31.4042C78.0268 31.8297 77.3601 31.7446 77.1615 31.234L74.8352 25.617C74.7218 25.3475 74.4665 25.1772 74.1828 25.1772H72.7359C72.3955 25.1772 72.1118 25.4184 72.0409 25.7588L70.6508 32.9077L70.0409 36.0141C69.9558 36.4538 70.282 36.851 70.7359 36.851H72.0267C72.3671 36.851 72.6508 36.6099 72.7218 36.2836L73.3317 33.1347L73.4735 32.4255C73.6012 31.7446 74.5516 31.6453 74.8211 32.2836L75.2324 33.2765L76.0551 35.234C76.1686 35.5035 76.4239 35.6737 76.7076 35.6737H77.1757C77.3885 35.6737 77.6012 35.5744 77.7289 35.4042L79.2041 33.5319L80.2963 32.1418C80.7502 31.5602 81.6864 31.9858 81.5445 32.7092L81.3743 33.6312L80.9204 36.0141C80.8353 36.4538 81.1757 36.851 81.6154 36.851H82.9062C83.2467 36.851 83.5445 36.6099 83.6013 36.2695L84.0835 33.7446L85.5587 26.0283C85.6438 25.5886 85.3034 25.1914 84.8637 25.1914H84.8779Z" fill="white"/>
<path d="M96.419 25.1915H88.8019C88.4615 25.1915 88.1778 25.4327 88.1069 25.7589L86.5324 33.8298L86.1069 36.0142C86.0218 36.4539 86.3622 36.8511 86.8019 36.8511H94.6459C94.9864 36.8511 95.2842 36.61 95.341 36.2837L95.497 35.4752C95.5821 35.0355 95.2417 34.6383 94.802 34.6383H90.2062C89.7948 34.6383 89.4828 34.2979 89.497 33.9008C89.497 33.8724 89.497 33.8298 89.497 33.8015L89.7381 32.5958C89.809 32.2554 90.0927 32.0284 90.4331 32.0284H94.6318C94.9722 32.0284 95.2701 31.7873 95.3268 31.4468L95.4686 30.7234C95.5538 30.2837 95.2133 29.8866 94.7736 29.8866H91.1282C90.6743 29.8866 90.348 29.4894 90.4331 29.0497L90.6317 28.0284C90.6885 27.688 90.9863 27.4468 91.3268 27.4468H96.2488C96.5892 27.4468 96.8729 27.2057 96.9438 26.8795L97.0999 26.0568C97.185 25.6171 96.8445 25.2199 96.4048 25.2199L96.419 25.1915Z" fill="white"/>
<path d="M109.417 25.1915H107.927C107.587 25.1915 107.289 25.4327 107.232 25.7731L106.367 30.227C106.239 30.8511 105.417 31.0213 105.076 30.4681L101.941 25.5178C101.814 25.305 101.587 25.1915 101.346 25.1915H99.7853C99.4449 25.1915 99.1612 25.4327 99.0903 25.7589L99.0619 25.9007L97.5016 33.9291L97.0903 36.0142C97.0052 36.4539 97.3456 36.8511 97.7853 36.8511H99.2747C99.6151 36.8511 99.8988 36.61 99.9697 36.2837L100.438 33.8724L100.835 31.8298C100.963 31.2057 101.785 31.0497 102.126 31.5887L103.53 33.8015L105.261 36.5249C105.388 36.7376 105.615 36.8511 105.856 36.8511H107.417C107.757 36.8511 108.055 36.61 108.112 36.2837L108.636 33.5887L110.112 26.0284C110.197 25.5887 109.856 25.1915 109.417 25.1915Z" fill="white"/>
<path d="M121.584 25.1914H112.633C112.293 25.1914 112.009 25.4326 111.938 25.7588L111.768 26.6524C111.683 27.0921 112.023 27.4893 112.463 27.4893H114.463C114.903 27.4893 115.243 27.9007 115.158 28.3262L114.194 33.2482L113.655 35.9999C113.569 36.4397 113.91 36.8368 114.35 36.8368H115.91C116.25 36.8368 116.534 36.5957 116.605 36.2695L117.243 33.007L118.208 28.0425C118.265 27.7162 118.562 27.4751 118.903 27.4751H121.428C121.768 27.4751 122.052 27.234 122.123 26.9077L122.293 26.0141C122.378 25.5744 122.038 25.1772 121.598 25.1772L121.584 25.1914Z" fill="white"/>
<path d="M128.535 27.1916C129.386 27.1916 130.237 27.3902 131.074 27.7731C131.4 27.9292 131.783 27.8157 131.981 27.5036L132.577 26.5249C132.804 26.1561 132.648 25.6597 132.237 25.5036C131.329 25.149 130.237 24.9504 129.074 24.9504C125.258 24.9504 123.513 26.8937 123.159 28.7093C122.719 30.993 124.478 31.6313 126.237 32.0568C126.421 32.0994 126.605 32.1419 126.776 32.1845C128.095 32.4965 129.23 32.7519 129.045 33.7022C128.889 34.4682 128.095 34.8512 126.691 34.8512C125.598 34.8512 124.449 34.5675 123.527 34.071C123.215 33.9008 122.818 34.0143 122.62 34.3263L121.996 35.3051C121.769 35.6738 121.91 36.1419 122.293 36.3263C123.315 36.8086 124.719 37.0923 126.166 37.0923C129.315 37.0923 131.627 35.6313 132.067 33.3618C132.251 32.3972 132.052 31.7306 131.613 31.2483C130.918 30.4824 129.613 30.1845 128.421 29.915C127.13 29.6171 125.996 29.3618 126.18 28.454C126.265 27.9859 126.705 27.1916 128.535 27.1916Z" fill="white"/>
<path d="M68.2815 26.766C67.317 25.6029 65.7567 24.9504 63.8985 24.9504C60.1254 24.9504 56.8914 27.5036 56.1821 31.0072C56.1821 31.0214 56.1821 31.0497 56.1821 31.0639C55.8701 32.6951 56.1822 34.1987 57.0758 35.2909C58.0403 36.454 59.6006 37.1065 61.4588 37.1065C64.5936 37.1065 67.3737 35.3476 68.622 32.7235C68.8915 32.1845 69.0759 31.6029 69.2035 30.993C69.5156 29.3618 69.2035 27.8582 68.3099 26.766H68.2815ZM64.6503 33.6597C63.9127 34.298 62.9907 34.6809 61.9978 34.6809C61.0616 34.6809 60.2673 34.3405 59.7425 33.7022C59.2744 33.149 59.0616 32.3689 59.1325 31.5036C59.1325 31.3334 59.1609 31.149 59.2034 30.9788C59.6148 28.8795 61.3595 27.3618 63.3453 27.3618C64.2815 27.3618 65.0758 27.7022 65.6007 28.3263C66.1539 29.0072 66.3524 29.9717 66.1397 31.0497C66.0404 31.532 65.8844 31.9717 65.6574 32.3831C65.3879 32.8653 65.0475 33.2909 64.6503 33.6455V33.6597Z" fill="white"/>
<path d="M44.4533 25.6311L45.5596 28.312C43.8717 27.6879 42.5242 27.0354 41.5312 26.3545L41.6447 25.773C41.7015 25.4326 41.9993 25.1914 42.3398 25.1914H43.7866C44.0703 25.1914 44.3256 25.3616 44.4391 25.6311H44.4533ZM52.6377 19.4751L52.0562 18.8226C51.815 18.5531 51.4178 18.5247 51.12 18.7375C50.2973 19.3474 49.432 19.6595 48.51 19.6595C47.588 19.6595 46.7512 19.3474 46.2263 18.7659C45.0916 19.163 44.0845 19.5744 43.2192 19.9999C43.2901 20.0992 43.361 20.2127 43.4462 20.2978C44.3965 21.4467 45.9284 22.0708 47.7866 22.0708C49.6448 22.0708 51.2334 21.5177 52.5668 20.4822C52.893 20.2269 52.9214 19.7588 52.6519 19.4609L52.6377 19.4751ZM54.5101 25.1914H53.2476C53.0349 25.1914 52.8221 25.2907 52.6945 25.4609L49.4888 29.5318C50.9639 29.929 52.581 30.312 54.3257 30.6666L55.2051 26.0425C55.2902 25.6028 54.9498 25.2056 54.5101 25.2056V25.1914ZM65.5456 14.9361C65.574 15.2907 65.5456 15.6595 65.4747 16.0567C65.2761 17.1063 64.7371 18.0141 63.9995 18.6524C63.2619 19.2907 62.3399 19.6737 61.347 19.6737C60.4108 19.6737 59.6165 19.3333 59.0917 18.695C58.5385 18.0283 58.3399 17.0496 58.5527 15.9716C58.5527 15.9432 58.5527 15.9148 58.5668 15.9006C57.4888 16.085 56.4392 16.2552 55.4463 16.4538C55.2477 17.929 55.5739 19.2765 56.4108 20.2836C57.3753 21.4467 58.9356 22.0992 60.808 22.0992C64.5953 22.0992 67.8577 19.5318 68.5386 15.9857C68.6378 15.5177 68.6662 15.0496 68.652 14.6098C67.6024 14.7091 66.5669 14.8226 65.5598 14.9503L65.5456 14.9361ZM68.2832 26.7659C67.3187 25.6028 65.7584 24.9503 63.9002 24.9503C60.1271 24.9503 56.8931 27.5035 56.1838 31.007C57.1342 31.1914 58.1271 31.3474 59.1484 31.5177C59.1484 31.3474 59.1768 31.163 59.2193 30.9928C59.6307 28.8935 61.3754 27.3758 63.3612 27.3758C64.2974 27.3758 65.0917 27.7162 65.6165 28.3404C66.1697 29.0212 66.3683 29.9857 66.1556 31.0638C66.0563 31.546 65.9002 31.9858 65.6733 32.3971C66.6378 32.5106 67.6166 32.6099 68.6237 32.7091C68.8932 32.1701 69.0776 31.5886 69.2052 30.9787C69.5173 29.3475 69.2052 27.8439 68.3116 26.7517L68.2832 26.7659ZM82.4394 13.6311C81.2762 13.6737 80.1273 13.7304 79.0067 13.8013C79.489 14.4255 79.6308 15.2907 79.4322 16.2978C79.3188 16.8935 79.106 17.4467 78.7798 17.929C78.0138 19.1063 76.6946 19.7872 75.1485 19.7872H73.6024C73.1485 19.7872 72.8223 19.3758 72.9074 18.9503L73.8436 14.1559C72.8081 14.2411 71.7868 14.312 70.7939 14.4113L69.4605 21.2623C69.3754 21.7021 69.7159 22.0992 70.1556 22.0992H74.7655C77.8436 22.0992 80.4535 20.6808 81.7301 18.2978C82.0848 17.6595 82.3401 16.9786 82.4819 16.2269C82.6663 15.2765 82.6521 14.4113 82.4394 13.6453V13.6311ZM84.8791 25.1914H83.6167C83.4039 25.1914 83.1911 25.2907 83.0635 25.4609L78.3684 31.4042C78.028 31.8297 77.3613 31.7446 77.1627 31.234L74.8365 25.617C74.723 25.3474 74.4677 25.1772 74.184 25.1772H72.7372C72.3967 25.1772 72.113 25.4184 72.0421 25.7588L70.652 32.9077C71.5315 32.9928 72.4393 33.0638 73.3471 33.1347L73.4889 32.4255C73.6166 31.7446 74.567 31.6453 74.8365 32.2836L75.2478 33.2765C76.5528 33.3758 77.8719 33.4467 79.2195 33.5177L80.3117 32.1276C80.7656 31.546 81.7018 31.9716 81.5599 32.695L81.3897 33.6169C82.2833 33.6595 83.1911 33.7021 84.1131 33.7304L85.5883 26.0141C85.6734 25.5744 85.333 25.1772 84.8933 25.1772L84.8791 25.1914ZM84.1415 22.0992H91.9855C92.326 22.0992 92.6097 21.8581 92.6806 21.5177L92.8366 20.7091C92.9217 20.2694 92.5813 19.8723 92.1416 19.8723H87.5458C87.1061 19.8723 86.7656 19.4751 86.8507 19.0354L87.0777 17.8297C87.1344 17.4893 87.4323 17.2481 87.7727 17.2481H91.9714C92.3118 17.2481 92.5955 17.007 92.6664 16.6808L92.8082 15.9432C92.8933 15.5035 92.5529 15.1063 92.1132 15.1063H88.4678C88.0139 15.1063 87.6876 14.695 87.7727 14.2694L87.9288 13.4751C86.9217 13.5035 85.9287 13.5318 84.95 13.5602L83.4465 21.2765C83.3614 21.7162 83.7018 22.1134 84.1415 22.1134V22.0992ZM96.4253 25.1914H88.8082C88.4678 25.1914 88.1841 25.4326 88.1132 25.7588L86.5387 33.8297C87.5174 33.8581 88.5103 33.8865 89.5032 33.9006C89.5032 33.8723 89.5032 33.8297 89.5032 33.8014L89.7444 32.5957C89.8153 32.2553 90.099 32.0283 90.4394 32.0283H94.638C94.9785 32.0283 95.2763 31.7872 95.3331 31.4467L95.4749 30.7233C95.56 30.2836 95.2196 29.8865 94.7799 29.8865H91.1345C90.6806 29.8865 90.3543 29.4893 90.4394 29.0496L90.638 28.0283C90.6947 27.6879 90.9926 27.4467 91.333 27.4467H96.2551C96.5955 27.4467 96.8792 27.2056 96.9501 26.8794L97.1061 26.0567C97.1912 25.6169 96.8508 25.2198 96.4111 25.2198L96.4253 25.1914ZM109.418 25.1914H107.929C107.588 25.1914 107.291 25.4326 107.234 25.773L106.369 30.2269C106.241 30.851 105.418 31.0212 105.078 30.468L101.943 25.5177C101.815 25.3049 101.588 25.1914 101.347 25.1914H99.787C99.4466 25.1914 99.1629 25.4326 99.092 25.7588L99.0636 25.9006L97.5033 33.929C98.4962 33.929 99.475 33.9006 100.44 33.8865L100.837 31.8439C100.964 31.2198 101.787 31.0638 102.127 31.6028L103.532 33.8155C105.262 33.7588 106.964 33.7021 108.638 33.6028L110.113 26.0425C110.198 25.6028 109.858 25.2056 109.418 25.2056V25.1914ZM121.589 25.1914H112.638C112.298 25.1914 112.014 25.4326 111.943 25.7588L111.773 26.6524C111.688 27.0921 112.028 27.4893 112.468 27.4893H114.468C114.908 27.4893 115.248 27.9006 115.163 28.3262L114.198 33.2482C115.234 33.1772 116.241 33.0921 117.248 33.007L118.213 28.0425C118.269 27.7162 118.567 27.4751 118.908 27.4751H121.433C121.773 27.4751 122.057 27.234 122.128 26.9077L122.298 26.0141C122.383 25.5744 122.043 25.1772 121.603 25.1772L121.589 25.1914ZM132.241 25.5035C131.333 25.1489 130.241 24.9503 129.078 24.9503C125.262 24.9503 123.518 26.8935 123.163 28.7091C122.723 30.9928 124.482 31.6311 126.241 32.0567C128.128 31.8155 129.915 31.546 131.603 31.2482C130.908 30.4822 129.603 30.1843 128.411 29.9148C127.121 29.617 125.986 29.3616 126.17 28.4538C126.255 27.9857 126.695 27.1914 128.525 27.1914C129.376 27.1914 130.227 27.39 131.064 27.773C131.39 27.929 131.773 27.8155 131.972 27.5035L132.567 26.5248C132.794 26.156 132.638 25.6595 132.227 25.5035H132.241Z" fill="url(#paint0_linear_29547_4095)" style="mix-blend-mode:overlay"/>
<defs>
<linearGradient id="paint0_linear_29547_4095" x1="-61.817" y1="-47.9434" x2="221.12" y2="92.725" gradientUnits="userSpaceOnUse">
<stop/>
<stop offset="1" stop-color="white"/>
</linearGradient>
</defs>
</svg>
