<svg width="94" height="34" viewBox="0 0 94 34" fill="none" xmlns="http://www.w3.org/2000/svg">
<path d="M18.3362 9.67999L17.3462 15.35C17.2762 15.61 17.0662 15.79 16.8062 15.79H13.3462C10.5062 15.79 7.81618 18.07 7.33618 20.91L7.13618 21.97V21.99C6.64618 24.79 8.53618 27.09 11.3462 27.09H14.6262C14.9662 27.09 15.2162 27.4 15.1662 27.73L14.1762 33.37C14.1762 33.37 14.1762 33.4 14.1562 33.42C14.1262 33.66 13.8762 33.84 13.6362 33.84H7.96618C7.62618 33.84 7.37618 33.55 7.44618 33.22L8.03618 29.93L8.08618 29.59L8.10618 29.46C8.31618 26.95 6.60618 24.94 4.06618 24.83H0.546181C0.216181 24.83 -0.0438194 24.52 0.00618056 24.19L1.03618 18.5C1.06618 18.26 1.27618 18.08 1.54618 18.08H5.01618C7.80618 18.08 10.4562 15.86 11.0162 13.09L11.0362 12.96L11.6362 9.48999C11.7062 9.22999 11.9162 9.04999 12.1762 9.04999H17.8362C17.9462 9.04999 18.0662 9.07999 18.1462 9.15999C18.3062 9.26999 18.4062 9.46999 18.3762 9.67999H18.3362Z" fill="#F35822"/>
<path d="M27.3962 9.66L26.3862 15.35C26.3562 15.61 26.1262 15.79 25.8662 15.79H22.3962C19.6062 15.79 16.9662 18.01 16.4162 20.78L16.3862 20.91L15.7862 24.38C15.7362 24.64 15.5262 24.82 15.2662 24.82H9.6062C9.3762 24.82 9.1962 24.69 9.1162 24.49C9.0662 24.39 9.0462 24.29 9.0662 24.18L10.0562 18.51C10.1062 18.25 10.3362 18.05 10.5962 18.05H14.0562C16.8962 18.05 19.5862 15.77 20.0662 12.95L20.2662 11.87C20.7562 9.05 18.8662 6.77 16.0462 6.77H12.7862C12.4462 6.77 12.1962 6.46 12.2462 6.13L13.2362 0.439999C13.2562 0.369999 13.2862 0.310002 13.3162 0.240002C13.4162 0.0900017 13.5962 0 13.7762 0H19.4362C19.7762 0 20.0262 0.309999 19.9762 0.639999L19.3862 3.93L19.3362 4.27L19.3162 4.4C19.0862 6.91 20.8162 8.92 23.3562 9.03H26.8762C27.2062 9.03 27.4662 9.32 27.3962 9.65V9.66Z" fill="#341869"/>
<path d="M38.2062 8.01001C37.5562 7.35001 36.6062 7.01001 35.3962 7.01001C32.7462 7.01001 30.4762 8.82001 29.9962 11.32C29.7862 12.4 29.9462 13.36 30.4662 14.11C30.5162 14.18 30.5662 14.26 30.6262 14.32C31.2962 15.13 32.3762 15.57 33.6862 15.57C34.9962 15.57 36.1162 15.18 37.0562 14.45C37.2862 14.27 37.3062 13.94 37.1162 13.73L36.7062 13.27C36.5362 13.08 36.2562 13.06 36.0462 13.21C35.4662 13.64 34.8562 13.86 34.2062 13.86C33.5562 13.86 32.9662 13.64 32.5962 13.23C32.5762 13.21 32.5562 13.18 32.5362 13.16C32.1462 12.68 32.0162 12.03 32.1662 11.25C32.4562 9.73001 33.6562 8.70001 35.1562 8.70001C35.7862 8.70001 36.3162 8.90001 36.7262 9.31001C36.9062 9.48001 37.1762 9.50001 37.3762 9.35001L38.1762 8.74001C38.4062 8.56001 38.4362 8.21001 38.2362 8.00001L38.2062 8.01001Z" fill="#341869"/>
<path d="M58.1162 9.61C58.0062 9.23 57.8362 8.88 57.5862 8.58C56.9162 7.77 55.8062 7.34 54.3662 7.34H50.8662C50.6262 7.34 50.4162 7.51 50.3762 7.74L49.9162 10.13L48.9762 14.96C48.9162 15.27 49.1562 15.55 49.4662 15.55H52.7162C54.8862 15.55 56.7262 14.55 57.6262 12.87C57.8762 12.42 58.0562 11.94 58.1562 11.41C58.2862 10.74 58.2762 10.13 58.1262 9.59L58.1162 9.61ZM55.9962 11.49C55.9162 11.91 55.7662 12.3 55.5362 12.64C54.9962 13.47 54.0662 13.95 52.9762 13.95H51.8862C51.5662 13.95 51.3362 13.66 51.3962 13.36L52.0562 9.98L52.1662 9.4C52.2062 9.17 52.4162 9 52.6562 9H53.8862C54.6662 9 55.2762 9.24 55.6462 9.7C55.6562 9.72 55.6762 9.73 55.6862 9.75C56.0262 10.19 56.1262 10.8 55.9862 11.51L55.9962 11.49Z" fill="#341869"/>
<path d="M66.0862 7.35001H60.7162C60.4762 7.35001 60.2762 7.52001 60.2262 7.75001L59.8762 9.54001L58.8162 14.98C58.7562 15.29 58.9962 15.57 59.3062 15.57H64.8362C65.0762 15.57 65.2762 15.4 65.3262 15.16L65.4362 14.59C65.4962 14.28 65.2562 14 64.9462 14H61.7062C61.3962 14 61.1562 13.72 61.2162 13.41L61.3762 12.56C61.4162 12.32 61.6262 12.15 61.8662 12.15H64.8262C65.0662 12.15 65.2662 11.98 65.3162 11.75L65.4162 11.23C65.4762 10.92 65.2362 10.64 64.9262 10.64H62.3562C62.0362 10.64 61.8062 10.35 61.8662 10.05L61.9762 9.49001L62.0062 9.33001C62.0562 9.09001 62.2562 8.92001 62.4962 8.92001H65.9662C66.2062 8.92001 66.4162 8.75001 66.4562 8.52001L66.5662 7.94001C66.6262 7.63001 66.3862 7.35001 66.0762 7.35001H66.0862Z" fill="#341869"/>
<path d="M47.6662 8.29001C46.9862 7.47001 45.8862 7.01001 44.5662 7.01001C41.8962 7.01001 39.5962 8.83001 39.1162 11.32C39.0962 11.41 39.0862 11.51 39.0762 11.6C38.9362 12.64 39.1662 13.59 39.7562 14.3C40.4362 15.12 41.5362 15.58 42.8562 15.58C45.5262 15.58 47.8262 13.77 48.3062 11.27C48.3762 10.94 48.3962 10.61 48.3862 10.3C48.3662 9.53001 48.1162 8.84001 47.6662 8.29001ZM46.1462 11.32C46.0062 12.06 45.6262 12.7 45.1062 13.15C44.5862 13.6 43.9362 13.87 43.2362 13.87C42.5762 13.87 42.0162 13.63 41.6462 13.18C41.2562 12.71 41.1162 12.02 41.2662 11.26C41.2662 11.24 41.2662 11.22 41.2762 11.21C41.5862 9.76001 42.7962 8.72001 44.1862 8.72001C44.8462 8.72001 45.4062 8.96001 45.7762 9.40001C46.0262 9.70001 46.1762 10.09 46.2062 10.53C46.2262 10.78 46.2062 11.04 46.1562 11.32H46.1462Z" fill="#341869"/>
<path d="M38.4262 17.76H37.5362C37.3862 17.76 37.2362 17.83 37.1462 17.95L34.8862 20.82L33.8462 22.15C33.6062 22.45 33.1362 22.39 32.9962 22.03L32.1362 19.96L31.3562 18.07C31.2762 17.88 31.0962 17.76 30.8962 17.76H29.8762C29.6362 17.76 29.4262 17.93 29.3862 18.17L29.3062 18.58L27.9862 25.4C27.9262 25.71 28.1662 25.99 28.4762 25.99H29.3862C29.6262 25.99 29.8362 25.82 29.8762 25.59L30.4062 22.87C30.4962 22.39 31.1662 22.32 31.3562 22.77L32.2262 24.85C32.3062 25.04 32.4862 25.16 32.6862 25.16H33.0162C33.1662 25.16 33.3162 25.09 33.4062 24.97L35.2162 22.67C35.5362 22.26 36.1962 22.56 36.0962 23.07L35.6562 25.4C35.5962 25.71 35.8362 25.99 36.1462 25.99H37.0562C37.2962 25.99 37.5062 25.82 37.5462 25.58L38.3062 21.61L38.9262 18.35C38.9862 18.04 38.7462 17.76 38.4362 17.76H38.4262Z" fill="#341869"/>
<path d="M59.8362 17.76H58.9462C58.7962 17.76 58.6462 17.83 58.5562 17.95L55.2462 22.14C55.0062 22.44 54.5362 22.38 54.3962 22.02L52.7562 18.06C52.6762 17.87 52.4962 17.75 52.2962 17.75H51.2762C51.0362 17.75 50.8362 17.92 50.7862 18.16L49.8062 23.2L49.3762 25.39C49.3162 25.7 49.5462 25.98 49.8662 25.98H50.7762C51.0162 25.98 51.2162 25.81 51.2662 25.58L51.6962 23.36L51.7962 22.86C51.8862 22.38 52.5562 22.31 52.7462 22.76L53.0362 23.46L53.6162 24.84C53.6962 25.03 53.8762 25.15 54.0762 25.15H54.4062C54.5562 25.15 54.7062 25.08 54.7962 24.96L55.8362 23.64L56.6062 22.66C56.9262 22.25 57.5862 22.55 57.4862 23.06L57.3662 23.71L57.0462 25.39C56.9862 25.7 57.2262 25.98 57.5362 25.98H58.4462C58.6862 25.98 58.8962 25.81 58.9362 25.57L59.2762 23.79L60.3162 18.35C60.3762 18.04 60.1362 17.76 59.8262 17.76H59.8362Z" fill="#341869"/>
<path d="M67.9761 17.76H62.6061C62.3661 17.76 62.1661 17.93 62.1161 18.16L61.0061 23.85L60.7061 25.39C60.6461 25.7 60.8861 25.98 61.1961 25.98H66.7261C66.9661 25.98 67.1761 25.81 67.2161 25.58L67.3261 25.01C67.3861 24.7 67.1461 24.42 66.8361 24.42H63.5961C63.3061 24.42 63.0861 24.18 63.0961 23.9C63.0961 23.88 63.0961 23.85 63.0961 23.83L63.2661 22.98C63.3161 22.74 63.5161 22.58 63.7561 22.58H66.7161C66.9561 22.58 67.1661 22.41 67.2061 22.17L67.3061 21.66C67.3661 21.35 67.1261 21.07 66.8161 21.07H64.2461C63.9261 21.07 63.6961 20.79 63.7561 20.48L63.8961 19.76C63.9361 19.52 64.1461 19.35 64.3861 19.35H67.8561C68.0961 19.35 68.2961 19.18 68.3461 18.95L68.4561 18.37C68.5161 18.06 68.2761 17.78 67.9661 17.78L67.9761 17.76Z" fill="#341869"/>
<path d="M77.1362 17.76H76.0862C75.8462 17.76 75.6362 17.93 75.5962 18.17L74.9862 21.31C74.8962 21.75 74.3162 21.87 74.0762 21.48L71.8662 17.99C71.7762 17.84 71.6162 17.76 71.4462 17.76H70.3462C70.1062 17.76 69.9062 17.93 69.8562 18.16L69.8362 18.26L68.7362 23.92L68.4462 25.39C68.3862 25.7 68.6262 25.98 68.9362 25.98H69.9862C70.2262 25.98 70.4262 25.81 70.4762 25.58L70.8062 23.88L71.0862 22.44C71.1762 22 71.7562 21.89 71.9962 22.27L72.9862 23.83L74.2062 25.75C74.2962 25.9 74.4562 25.98 74.6262 25.98H75.7262C75.9662 25.98 76.1762 25.81 76.2162 25.58L76.5862 23.68L77.6262 18.35C77.6862 18.04 77.4462 17.76 77.1362 17.76Z" fill="#341869"/>
<path d="M85.7162 17.76H79.4062C79.1662 17.76 78.9662 17.93 78.9162 18.16L78.7962 18.79C78.7362 19.1 78.9762 19.38 79.2862 19.38H80.6962C81.0062 19.38 81.2462 19.67 81.1862 19.97L80.5062 23.44L80.1262 25.38C80.0662 25.69 80.3062 25.97 80.6162 25.97H81.7162C81.9562 25.97 82.1562 25.8 82.2062 25.57L82.6562 23.27L83.3362 19.77C83.3762 19.54 83.5862 19.37 83.8262 19.37H85.6062C85.8462 19.37 86.0462 19.2 86.0962 18.97L86.2162 18.34C86.2762 18.03 86.0362 17.75 85.7262 17.75L85.7162 17.76Z" fill="#341869"/>
<path d="M90.6161 19.17C91.2161 19.17 91.8161 19.31 92.4061 19.58C92.6361 19.69 92.9061 19.61 93.0461 19.39L93.4661 18.7C93.6261 18.44 93.5161 18.09 93.2261 17.98C92.5861 17.73 91.8161 17.59 90.9961 17.59C88.3061 17.59 87.0761 18.96 86.8261 20.24C86.5161 21.85 87.7561 22.3 88.9961 22.6C89.1261 22.63 89.2561 22.66 89.3761 22.69C90.3061 22.91 91.1061 23.09 90.9761 23.76C90.8661 24.3 90.3061 24.57 89.3161 24.57C88.5461 24.57 87.7361 24.37 87.0861 24.02C86.8661 23.9 86.5861 23.98 86.4461 24.2L86.0061 24.89C85.8461 25.15 85.9461 25.48 86.2161 25.61C86.9361 25.95 87.9261 26.15 88.9461 26.15C91.1661 26.15 92.7961 25.12 93.1061 23.52C93.2361 22.84 93.0961 22.37 92.7861 22.03C92.2961 21.49 91.3761 21.28 90.5361 21.09C89.6261 20.88 88.8261 20.7 88.9561 20.06C89.0161 19.73 89.3261 19.17 90.6161 19.17Z" fill="#341869"/>
<path d="M48.1362 18.87C47.4562 18.05 46.3562 17.59 45.0462 17.59C42.3862 17.59 40.1062 19.39 39.6062 21.86C39.6062 21.87 39.6062 21.89 39.6062 21.9C39.3862 23.05 39.6062 24.11 40.2362 24.88C40.9162 25.7 42.0162 26.16 43.3262 26.16C45.5362 26.16 47.4962 24.92 48.3762 23.07C48.5662 22.69 48.6962 22.28 48.7862 21.85C49.0062 20.7 48.7862 19.64 48.1562 18.87H48.1362ZM45.5762 23.73C45.0562 24.18 44.4062 24.45 43.7062 24.45C43.0462 24.45 42.4862 24.21 42.1162 23.76C41.7862 23.37 41.6362 22.82 41.6862 22.21C41.6862 22.09 41.7062 21.96 41.7362 21.84C42.0262 20.36 43.2562 19.29 44.6562 19.29C45.3162 19.29 45.8762 19.53 46.2462 19.97C46.6362 20.45 46.7762 21.13 46.6262 21.89C46.5562 22.23 46.4462 22.54 46.2862 22.83C46.0962 23.17 45.8562 23.47 45.5762 23.72V23.73Z" fill="#341869"/>
<path d="M31.3362 18.07L32.1162 19.96C30.9262 19.52 29.9762 19.06 29.2762 18.58L29.3562 18.17C29.3962 17.93 29.6062 17.76 29.8462 17.76H30.8662C31.0662 17.76 31.2462 17.88 31.3262 18.07H31.3362ZM37.1062 13.73L36.6962 13.27C36.5262 13.08 36.2462 13.06 36.0362 13.21C35.4562 13.64 34.8462 13.86 34.1962 13.86C33.5462 13.86 32.9562 13.64 32.5862 13.23C31.7862 13.51 31.0762 13.8 30.4662 14.1C30.5162 14.17 30.5662 14.25 30.6262 14.31C31.2962 15.12 32.3762 15.56 33.6862 15.56C34.9962 15.56 36.1162 15.17 37.0562 14.44C37.2862 14.26 37.3062 13.93 37.1162 13.72L37.1062 13.73ZM38.4262 17.76H37.5362C37.3862 17.76 37.2362 17.83 37.1462 17.95L34.8862 20.82C35.9262 21.1 37.0662 21.37 38.2962 21.62L38.9162 18.36C38.9762 18.05 38.7362 17.77 38.4262 17.77V17.76ZM46.2062 10.53C46.2262 10.78 46.2062 11.04 46.1562 11.32C46.0162 12.06 45.6362 12.7 45.1162 13.15C44.5962 13.6 43.9462 13.87 43.2462 13.87C42.5862 13.87 42.0262 13.63 41.6562 13.18C41.2662 12.71 41.1262 12.02 41.2762 11.26C41.2762 11.24 41.2762 11.22 41.2862 11.21C40.5262 11.34 39.7862 11.46 39.0862 11.6C38.9462 12.64 39.1762 13.59 39.7662 14.3C40.4462 15.12 41.5462 15.58 42.8662 15.58C45.5362 15.58 47.8362 13.77 48.3162 11.27C48.3862 10.94 48.4062 10.61 48.3962 10.3C47.6562 10.37 46.9262 10.45 46.2162 10.54L46.2062 10.53ZM48.1362 18.87C47.4562 18.05 46.3562 17.59 45.0462 17.59C42.3862 17.59 40.1062 19.39 39.6062 21.86C40.2762 21.99 40.9762 22.1 41.6962 22.22C41.6962 22.1 41.7162 21.97 41.7462 21.85C42.0362 20.37 43.2662 19.3 44.6662 19.3C45.3262 19.3 45.8862 19.54 46.2562 19.98C46.6462 20.46 46.7862 21.14 46.6362 21.9C46.5662 22.24 46.4562 22.55 46.2962 22.84C46.9762 22.92 47.6662 22.99 48.3762 23.06C48.5662 22.68 48.6962 22.27 48.7862 21.84C49.0062 20.69 48.7862 19.63 48.1562 18.86L48.1362 18.87ZM58.1162 9.61C57.2962 9.64 56.4862 9.68 55.6962 9.73C56.0362 10.17 56.1362 10.78 55.9962 11.49C55.9162 11.91 55.7662 12.3 55.5362 12.64C54.9962 13.47 54.0662 13.95 52.9762 13.95H51.8862C51.5662 13.95 51.3362 13.66 51.3962 13.36L52.0562 9.98C51.3262 10.04 50.6062 10.09 49.9062 10.16L48.9662 14.99C48.9062 15.3 49.1462 15.58 49.4562 15.58H52.7062C54.8762 15.58 56.7162 14.58 57.6162 12.9C57.8662 12.45 58.0462 11.97 58.1462 11.44C58.2762 10.77 58.2662 10.16 58.1162 9.62V9.61ZM59.8362 17.76H58.9462C58.7962 17.76 58.6462 17.83 58.5562 17.95L55.2462 22.14C55.0062 22.44 54.5362 22.38 54.3962 22.02L52.7562 18.06C52.6762 17.87 52.4962 17.75 52.2962 17.75H51.2762C51.0362 17.75 50.8362 17.92 50.7862 18.16L49.8062 23.2C50.4262 23.26 51.0662 23.31 51.7062 23.36L51.8062 22.86C51.8962 22.38 52.5662 22.31 52.7562 22.76L53.0462 23.46C53.9662 23.53 54.8962 23.58 55.8462 23.63L56.6162 22.65C56.9362 22.24 57.5962 22.54 57.4962 23.05L57.3762 23.7C58.0062 23.73 58.6462 23.76 59.2962 23.78L60.3362 18.34C60.3962 18.03 60.1562 17.75 59.8462 17.75L59.8362 17.76ZM59.3162 15.58H64.8462C65.0862 15.58 65.2862 15.41 65.3362 15.17L65.4462 14.6C65.5062 14.29 65.2662 14.01 64.9562 14.01H61.7162C61.4062 14.01 61.1662 13.73 61.2262 13.42L61.3862 12.57C61.4262 12.33 61.6362 12.16 61.8762 12.16H64.8362C65.0762 12.16 65.2762 11.99 65.3262 11.76L65.4262 11.24C65.4862 10.93 65.2462 10.65 64.9362 10.65H62.3662C62.0462 10.65 61.8162 10.36 61.8762 10.06L61.9862 9.5C61.2762 9.52 60.5762 9.54 59.8862 9.56L58.8262 15C58.7662 15.31 59.0062 15.59 59.3162 15.59V15.58ZM67.9762 17.76H62.6062C62.3662 17.76 62.1662 17.93 62.1162 18.16L61.0062 23.85C61.6962 23.87 62.3962 23.89 63.0962 23.9C63.0962 23.88 63.0962 23.85 63.0962 23.83L63.2662 22.98C63.3162 22.74 63.5162 22.58 63.7562 22.58H66.7162C66.9562 22.58 67.1662 22.41 67.2062 22.17L67.3062 21.66C67.3662 21.35 67.1262 21.07 66.8162 21.07H64.2462C63.9262 21.07 63.6962 20.79 63.7562 20.48L63.8962 19.76C63.9362 19.52 64.1462 19.35 64.3862 19.35H67.8562C68.0962 19.35 68.2962 19.18 68.3462 18.95L68.4562 18.37C68.5162 18.06 68.2762 17.78 67.9662 17.78L67.9762 17.76ZM77.1362 17.76H76.0862C75.8462 17.76 75.6362 17.93 75.5962 18.17L74.9862 21.31C74.8962 21.75 74.3162 21.87 74.0762 21.48L71.8662 17.99C71.7762 17.84 71.6162 17.76 71.4462 17.76H70.3462C70.1062 17.76 69.9062 17.93 69.8562 18.16L69.8362 18.26L68.7362 23.92C69.4362 23.92 70.1262 23.9 70.8062 23.89L71.0862 22.45C71.1762 22.01 71.7562 21.9 71.9962 22.28L72.9862 23.84C74.2062 23.8 75.4062 23.76 76.5862 23.69L77.6262 18.36C77.6862 18.05 77.4462 17.77 77.1362 17.77V17.76ZM85.7162 17.76H79.4062C79.1662 17.76 78.9662 17.93 78.9162 18.16L78.7962 18.79C78.7362 19.1 78.9762 19.38 79.2862 19.38H80.6962C81.0062 19.38 81.2462 19.67 81.1862 19.97L80.5062 23.44C81.2362 23.39 81.9462 23.33 82.6562 23.27L83.3362 19.77C83.3762 19.54 83.5862 19.37 83.8262 19.37H85.6062C85.8462 19.37 86.0462 19.2 86.0962 18.97L86.2162 18.34C86.2762 18.03 86.0362 17.75 85.7262 17.75L85.7162 17.76ZM93.2262 17.98C92.5862 17.73 91.8162 17.59 90.9962 17.59C88.3062 17.59 87.0762 18.96 86.8262 20.24C86.5162 21.85 87.7562 22.3 88.9962 22.6C90.3262 22.43 91.5862 22.24 92.7762 22.03C92.2862 21.49 91.3662 21.28 90.5262 21.09C89.6162 20.88 88.8162 20.7 88.9462 20.06C89.0062 19.73 89.3162 19.17 90.6062 19.17C91.2062 19.17 91.8062 19.31 92.3962 19.58C92.6262 19.69 92.8962 19.61 93.0362 19.39L93.4562 18.7C93.6162 18.44 93.5062 18.09 93.2162 17.98H93.2262Z" fill="url(#paint0_linear_2_319)" style="mix-blend-mode:overlay"/>
<path opacity="0.75" d="M15.1462 27.8L14.8562 29.43L14.1662 33.37C14.1662 33.37 14.1662 33.4 14.1562 33.42C14.1262 33.66 13.8762 33.84 13.6362 33.84H8.1262L8.6962 30.63L8.7462 30.29L8.7662 30.16C8.7662 30.16 8.7662 30.09 8.7662 30.06C8.8162 29.31 8.6962 28.61 8.4262 28C8.1762 27.41 7.7862 26.9 7.3062 26.49C7.0262 26.11 6.6762 25.78 6.2662 25.51C5.6462 25.11 4.8962 24.86 4.0462 24.82H0.666199L1.6762 19.2C1.7062 18.95 1.9262 18.77 2.1862 18.77H5.6562C6.8762 18.77 8.0762 18.34 9.0862 17.63C8.8062 17.91 8.5462 18.21 8.3262 18.54C8.2062 18.71 8.1062 18.88 8.0062 19.06C7.6862 19.63 7.4562 20.25 7.3462 20.9L7.1562 21.96V21.98C6.9762 23.01 7.1162 23.97 7.5062 24.77C7.7562 25.29 8.1162 25.74 8.5562 26.11C8.7762 26.41 9.0362 26.68 9.3362 26.91C9.9362 27.37 10.6662 27.67 11.5062 27.76C11.6762 27.78 11.8462 27.79 12.0262 27.79H15.1562L15.1462 27.8ZM12.8062 9.75001C12.5462 9.75001 12.3362 9.93001 12.2662 10.19L11.6662 13.66L11.6462 13.79C11.4062 14.98 10.7762 16.07 9.9162 16.93C10.2362 16.7 10.5762 16.5 10.9362 16.34C11.2562 16.19 11.5862 16.07 11.9262 15.98C12.3862 15.86 12.8562 15.79 13.3362 15.79H16.7962C17.0562 15.79 17.2662 15.61 17.3362 15.35L18.2662 10.02L18.3162 9.75001H12.8062ZM15.5262 18.71C15.2562 18.75 14.9862 18.77 14.7162 18.77H11.2562C10.9962 18.77 10.7662 18.96 10.7162 19.23L10.4662 20.63L9.7262 24.83H15.2462C15.5062 24.83 15.7162 24.65 15.7662 24.39L16.3662 20.92L16.3962 20.79C16.4462 20.56 16.5062 20.33 16.5762 20.12C16.7662 19.56 17.0362 19.03 17.3662 18.55C17.5962 18.22 17.8662 17.91 18.1562 17.62C17.5562 18.05 16.8962 18.37 16.1962 18.57C15.9662 18.64 15.7362 18.69 15.5062 18.72M24.0262 9.75001C23.9262 9.75001 23.8162 9.74001 23.7162 9.73001C22.9962 9.65001 22.3562 9.42001 21.8062 9.07001C21.3962 8.81001 21.0462 8.47001 20.7562 8.08001C19.7362 7.24001 19.1762 5.92001 19.3062 4.42001V4.29001L19.3762 3.95001L19.9162 0.94001L19.9562 0.730011H14.4362C14.2562 0.730011 14.0762 0.830013 13.9762 0.970013C13.9462 1.04001 13.9062 1.10001 13.8962 1.17001L13.7562 1.96001L13.4062 3.97001L12.9162 6.79001H16.0362C16.9762 6.79001 17.8162 7.04001 18.4962 7.48001C18.9062 7.75001 19.2562 8.08001 19.5462 8.47001C19.9762 8.83001 20.3362 9.28001 20.5862 9.79001C20.9762 10.6 21.1162 11.56 20.9362 12.59L20.7362 13.66C20.6362 14.24 20.4462 14.79 20.1762 15.3C19.8662 15.91 19.4462 16.47 18.9562 16.95C19.5762 16.51 20.2662 16.17 20.9962 15.98C21.0362 15.97 21.0762 15.96 21.1262 15.95C21.5462 15.85 21.9762 15.79 22.4062 15.79H25.8762C26.1362 15.79 26.3662 15.61 26.3962 15.35L27.2362 10.64L27.3962 9.75001H24.0362H24.0262Z" fill="url(#paint1_linear_2_319)" style="mix-blend-mode:overlay"/>
<defs>
<linearGradient id="paint0_linear_2_319" x1="-43.5838" y1="-33.8" x2="155.886" y2="65.37" gradientUnits="userSpaceOnUse">
<stop/>
<stop offset="1" stop-color="white"/>
</linearGradient>
<linearGradient id="paint1_linear_2_319" x1="18.8662" y1="63.81" x2="11.2562" y2="-9.33999" gradientUnits="userSpaceOnUse">
<stop/>
<stop offset="1" stop-color="white"/>
</linearGradient>
</defs>
</svg>
