<?xml version="1.0" encoding="UTF-8"?>
<svg xmlns="http://www.w3.org/2000/svg" width="91.54mm" height="49.41mm" xmlns:xlink="http://www.w3.org/1999/xlink" viewBox="0 0 259.48 140.06">
  <defs>
    <radialGradient id="radial-gradient" cx="131.77" cy="34.35" fx="131.77" fy="34.35" r="98.61" gradientUnits="userSpaceOnUse">
      <stop offset="0" stop-color="#fff"/>
      <stop offset="1" stop-color="#fff" stop-opacity="0"/>
    </radialGradient>
    <radialGradient id="radial-gradient-2" cx="88.5" cy="90.4" fx="88.5" fy="90.4" r="37.14" xlink:href="#radial-gradient"/>
    <radialGradient id="radial-gradient-3" cx="-41.33" cy="7.03" fx="-41.33" fy="7.03" r="92.87" xlink:href="#radial-gradient"/>
    <radialGradient id="radial-gradient-4" cx="-18.03" cy="100.97" fx="-18.03" fy="100.97" r="57.58" xlink:href="#radial-gradient"/>
    <radialGradient id="radial-gradient-5" cx="79.66" cy="110.23" fx="79.66" fy="110.23" r="45.83" xlink:href="#radial-gradient"/>
    <radialGradient id="radial-gradient-6" cx="-16.19" cy="141.49" fx="-16.19" fy="141.49" r="56.96" xlink:href="#radial-gradient"/>
    <radialGradient id="radial-gradient-7" cx="95.82" cy="-5.08" fx="95.82" fy="-5.08" r="74.78" xlink:href="#radial-gradient"/>
    <radialGradient id="radial-gradient-8" cx="-19.44" cy="47.81" fx="-19.44" fy="47.81" r="66.63" xlink:href="#radial-gradient"/>
    <radialGradient id="radial-gradient-9" cx="57.01" cy="27.92" fx="57.01" fy="27.92" r="50.86" xlink:href="#radial-gradient"/>
  </defs>
  <g isolation="isolate">
    <g id="Layer_1">
      <g>
        <g>
          <path d="M95.03,61.03h-5.58v-26.06h17.31v4.5h-11.72v6.33h9.23v4.35h-9.23v10.87ZM115.99,61.03h-5.58v-26.06h10.13c2.11,0,3.87.37,5.27,1.1,1.4.73,2.44,1.71,3.13,2.92.68,1.22,1.02,2.57,1.02,4.06,0,1.39-.33,2.69-.99,3.91-.66,1.22-1.68,2.2-3.07,2.94-.3.16-.63.3-.97.42l5.25,10.71h-6.33l-4.61-10.01h-3.24v10.01ZM115.99,47h4.21c1.39,0,2.41-.34,3.07-1,.66-.67.99-1.58.99-2.72s-.33-2-.99-2.66c-.66-.66-1.68-.99-3.07-.99h-4.21v7.37ZM146.4,61.48c-2.56,0-4.8-.57-6.74-1.71-1.93-1.14-3.46-2.72-4.56-4.75-1.11-2.02-1.66-4.36-1.66-7.02s.55-4.99,1.66-7.02c1.1-2.02,2.62-3.6,4.56-4.75,1.94-1.14,4.18-1.71,6.74-1.71s4.82.57,6.78,1.71c1.96,1.14,3.48,2.72,4.56,4.75,1.08,2.02,1.62,4.36,1.62,7.02s-.54,4.99-1.62,7.02c-1.08,2.02-2.6,3.6-4.56,4.75-1.96,1.14-4.22,1.71-6.78,1.71ZM142.57,55.41c1.09.7,2.37,1.04,3.83,1.04s2.81-.35,3.89-1.04c1.08-.69,1.92-1.67,2.51-2.92.6-1.25.89-2.75.89-4.49s-.3-3.23-.89-4.49c-.6-1.25-1.43-2.22-2.51-2.9-1.08-.68-2.38-1.02-3.89-1.02s-2.74.34-3.83,1.02c-1.09.68-1.94,1.65-2.53,2.9-.6,1.25-.89,2.75-.89,4.49s.3,3.23.89,4.49c.6,1.25,1.44,2.23,2.53,2.92ZM169.11,44.39l6.44,12.99h4.47l6.4-12.99v16.64h5.58v-26.06h-6.66l-7.52,15.67-7.59-15.67h-6.7v26.06h5.58v-16.64ZM104.28,81.47c-1.1-.61-2.31-1.13-3.63-1.58-.82-.25-1.57-.5-2.25-.74-.68-.25-1.28-.51-1.79-.8-.51-.28-.91-.63-1.19-1.04-.29-.41-.43-.89-.43-1.43s.14-1.05.41-1.43c.27-.38.64-.67,1.12-.86.47-.19.99-.27,1.56-.24.65,0,1.21.14,1.69.41.48.27.87.63,1.15,1.08.28.45.44.94.47,1.49h5.99c-.05-1.59-.48-2.96-1.28-4.11-.81-1.15-1.89-2.03-3.24-2.64-1.35-.61-2.92-.91-4.71-.91s-3.29.3-4.65.89c-1.36.6-2.44,1.46-3.22,2.59-.78,1.13-1.17,2.49-1.17,4.08,0,1.91.55,3.44,1.66,4.58,1.1,1.14,2.69,2.05,4.75,2.72.89.27,1.73.55,2.51.84.78.28,1.47.6,2.07.93.6.34,1.07.73,1.42,1.19.35.46.52,1.01.52,1.66s-.15,1.14-.45,1.54c-.3.41-.7.72-1.21.93-.51.21-1.1.32-1.77.32-.8,0-1.49-.16-2.09-.47-.6-.31-1.07-.74-1.41-1.28-.35-.55-.53-1.18-.56-1.9h-5.96c.07,1.81.55,3.34,1.42,4.58.87,1.24,2.05,2.18,3.55,2.81,1.5.63,3.18.95,5.04.95,2.03,0,3.74-.36,5.12-1.08,1.38-.72,2.43-1.67,3.16-2.87.73-1.19,1.1-2.49,1.1-3.91,0-1.61-.34-2.91-1.02-3.89-.68-.98-1.58-1.77-2.68-2.38ZM120.21,74.75c1.03-.69,2.28-1.04,3.74-1.04,1.54,0,2.79.37,3.76,1.1.97.73,1.6,1.76,1.9,3.07h6.11c-.5-2.93-1.77-5.2-3.81-6.81-2.05-1.61-4.68-2.42-7.91-2.42-2.61,0-4.85.58-6.74,1.73-1.89,1.15-3.34,2.74-4.35,4.76-1.02,2.02-1.53,4.37-1.53,7.05s.51,4.96,1.53,6.98c1.02,2.02,2.47,3.6,4.35,4.73,1.88,1.13,4.13,1.69,6.74,1.69,3.22,0,5.86-.79,7.91-2.36s3.32-3.74,3.81-6.5h-6.11c-.32,1.24-.96,2.19-1.92,2.85-.96.66-2.2.99-3.74.99s-2.71-.34-3.74-1.02c-1.03-.68-1.81-1.65-2.35-2.9-.53-1.25-.8-2.74-.8-4.45s.27-3.27.8-4.52c.53-1.25,1.32-2.23,2.35-2.92ZM154.4,84.44l5.25,10.71h-6.33l-4.61-10.01h-3.24v10.01h-5.58v-26.06h10.13c2.11,0,3.87.37,5.27,1.1,1.4.73,2.44,1.71,3.13,2.92.68,1.22,1.02,2.57,1.02,4.06,0,1.39-.33,2.69-.99,3.91-.66,1.22-1.68,2.2-3.07,2.94-.3.16-.63.3-.97.42ZM145.47,81.12h4.21c1.39,0,2.41-.34,3.07-1,.66-.67.99-1.58.99-2.72s-.33-2-.99-2.66c-.66-.66-1.68-.99-3.07-.99h-4.21v7.37ZM177.89,69.09l9.49,26.06h-5.92l-1.96-5.69h-9.7l-1.96,5.69h-5.84l9.49-26.06h6.4ZM178.01,85.14l-3.36-9.75-3.36,9.75h6.72ZM186.41,73.6h7.56v21.55h5.58v-21.55h7.56v-4.5h-20.7v4.5ZM217.89,74.75c1.03-.69,2.28-1.04,3.74-1.04,1.54,0,2.79.37,3.76,1.1.97.73,1.6,1.76,1.9,3.07h6.11c-.5-2.93-1.77-5.2-3.81-6.81-2.05-1.61-4.68-2.42-7.91-2.42-2.61,0-4.85.58-6.74,1.73-1.89,1.15-3.34,2.74-4.35,4.76-1.02,2.02-1.53,4.37-1.53,7.05s.51,4.96,1.53,6.98c1.02,2.02,2.47,3.6,4.35,4.73,1.88,1.13,4.13,1.69,6.74,1.69,3.22,0,5.86-.79,7.91-2.36,2.05-1.58,3.32-3.74,3.81-6.5h-6.11c-.32,1.24-.96,2.19-1.92,2.85s-2.2.99-3.74.99-2.71-.34-3.74-1.02c-1.03-.68-1.81-1.65-2.35-2.9-.53-1.25-.8-2.74-.8-4.45s.27-3.27.8-4.52c.53-1.25,1.32-2.23,2.35-2.92ZM253.9,69.09v10.5h-10.76v-10.5h-5.58v26.06h5.58v-11.06h10.76v11.06h5.58v-26.06h-5.58Z" fill="#2b5ea8"/>
          <g>
            <path d="M92.43,115.54c-.77,0-1.44-.14-2.02-.41-.58-.27-1.03-.66-1.35-1.16-.32-.5-.48-1.08-.48-1.75h1.57c0,.38.1.73.28,1.04.17.31.43.56.76.75.33.18.74.28,1.23.28.42,0,.78-.07,1.09-.21.3-.14.53-.33.7-.58.16-.24.24-.53.24-.84,0-.37-.08-.67-.25-.91s-.4-.44-.68-.59c-.29-.15-.61-.29-.99-.41-.37-.12-.76-.25-1.17-.39-.83-.27-1.44-.62-1.84-1.05-.4-.43-.61-.99-.61-1.67,0-.59.14-1.1.42-1.53.28-.43.67-.77,1.17-1.02.5-.24,1.1-.37,1.79-.37s1.27.13,1.78.37c.51.25.9.59,1.19,1.03.29.44.44.95.44,1.54h-1.59c0-.27-.07-.53-.21-.79-.14-.26-.35-.47-.63-.64-.28-.16-.62-.25-1.03-.25-.34,0-.64.04-.91.16-.27.12-.48.29-.63.52s-.22.5-.22.82.07.58.2.77c.14.19.33.36.59.5.26.14.56.27.9.38.34.12.73.24,1.14.38.52.17.98.38,1.38.62.4.24.72.56.96.94.23.38.35.87.35,1.47,0,.52-.13,1-.4,1.45-.27.45-.67.82-1.2,1.1-.53.28-1.18.43-1.97.43Z" fill="#8d4593"/>
            <path d="M189.36,115.54c-.77,0-1.44-.14-2.02-.41-.58-.27-1.03-.66-1.35-1.16-.32-.5-.48-1.08-.48-1.75h1.57c0,.38.1.73.28,1.04.17.31.43.56.76.75.33.18.74.28,1.23.28.42,0,.78-.07,1.09-.21.3-.14.53-.33.7-.58.16-.24.24-.53.24-.84,0-.37-.08-.67-.25-.91-.17-.24-.4-.44-.68-.59-.29-.15-.61-.29-.99-.41-.37-.12-.76-.25-1.17-.39-.83-.27-1.44-.62-1.84-1.05-.4-.43-.61-.99-.61-1.67,0-.59.14-1.1.42-1.53.28-.43.67-.77,1.17-1.02.5-.24,1.1-.37,1.79-.37s1.27.13,1.78.37c.51.25.9.59,1.19,1.03.29.44.44.95.44,1.54h-1.59c0-.27-.07-.53-.21-.79-.14-.26-.35-.47-.63-.64-.28-.16-.62-.25-1.03-.25-.34,0-.64.04-.91.16-.27.12-.48.29-.63.52s-.22.5-.22.82.07.58.2.77c.14.19.33.36.59.5.26.14.56.27.9.38.34.12.73.24,1.14.38.52.17.98.38,1.38.62.4.24.72.56.96.94.23.38.35.87.35,1.47,0,.52-.13,1-.4,1.45-.27.45-.67.82-1.2,1.1-.53.28-1.18.43-1.97.43Z" fill="#8d4593"/>
            <path d="M105.49,115.54c-1.01,0-1.89-.23-2.65-.68-.76-.45-1.36-1.09-1.8-1.9-.43-.81-.65-1.76-.65-2.83s.22-2.01.65-2.82c.43-.81,1.03-1.45,1.8-1.91.76-.46,1.65-.69,2.65-.69s1.92.23,2.69.69,1.36,1.09,1.79,1.91c.42.81.63,1.75.63,2.82s-.21,2.02-.63,2.83c-.43.81-1.02,1.45-1.79,1.9s-1.67.68-2.69.68ZM105.5,114.21c.72,0,1.35-.16,1.89-.49.54-.33.95-.8,1.25-1.41.29-.61.44-1.34.44-2.18s-.15-1.58-.44-2.18c-.3-.61-.71-1.07-1.25-1.4-.54-.33-1.17-.49-1.89-.49s-1.34.16-1.88.49c-.54.32-.96.79-1.26,1.4s-.45,1.34-.45,2.18.15,1.57.45,2.18.72,1.08,1.26,1.41c.54.33,1.17.49,1.88.49Z" fill="#8d4593"/>
            <path d="M115.39,115.36v-10.47h1.49v9.29h4.79v1.18h-6.28Z" fill="#8d4593"/>
            <path d="M129.81,115.54c-.74,0-1.4-.15-2-.44s-1.08-.74-1.43-1.34c-.35-.6-.53-1.37-.53-2.31v-6.55h1.5v6.56c0,.63.1,1.14.32,1.55.21.4.5.7.87.9.37.2.81.29,1.31.29s.95-.1,1.32-.29c.37-.19.65-.49.86-.9s.31-.92.31-1.55v-6.56h1.5v6.55c0,.94-.18,1.71-.54,2.31-.36.6-.84,1.05-1.45,1.34-.61.29-1.28.44-2.02.44Z" fill="#8d4593"/>
            <path d="M141.33,115.36v-9.24h-3.1v-1.23h7.7v1.23h-3.11v9.24h-1.5Z" fill="#8d4593"/>
            <path d="M150.44,115.36v-10.47h1.49v10.47h-1.49Z" fill="#8d4593"/>
            <path d="M161.81,115.54c-1.01,0-1.89-.23-2.65-.68-.76-.45-1.36-1.09-1.8-1.9-.43-.81-.65-1.76-.65-2.83s.22-2.01.65-2.82c.43-.81,1.03-1.45,1.8-1.91.76-.46,1.65-.69,2.65-.69s1.92.23,2.69.69c.77.46,1.36,1.09,1.79,1.91.42.81.63,1.75.63,2.82s-.21,2.02-.63,2.83c-.43.81-1.02,1.45-1.79,1.9-.77.45-1.67.68-2.69.68ZM161.83,114.21c.72,0,1.35-.16,1.89-.49.54-.33.95-.8,1.25-1.41.29-.61.44-1.34.44-2.18s-.15-1.58-.44-2.18c-.3-.61-.71-1.07-1.25-1.4-.54-.33-1.17-.49-1.89-.49s-1.34.16-1.88.49c-.54.32-.96.79-1.26,1.4-.3.61-.45,1.34-.45,2.18s.15,1.57.45,2.18c.3.61.72,1.08,1.26,1.41.54.33,1.17.49,1.88.49Z" fill="#8d4593"/>
            <path d="M171.71,115.36v-10.47h1.49l5.34,8.03v-8.03h1.49v10.47h-1.49l-5.34-8.02v8.02h-1.49Z" fill="#8d4593"/>
          </g>
        </g>
        <g>
          <g>
            <path d="M68.52,99.55c0,.14,0,.28-.01.42-.01.53-.06,1.04-.11,1.54-.02.17-.04.33-.06.49-.03.25-.07.51-.11.76,0,0,0,.01,0,.01-.03.19-.07.38-.1.56-.11.56-.24,1.1-.39,1.62-.07.23-.14.45-.21.68-.07.22-.14.44-.22.66-.08.21-.16.42-.24.63-.16.41-.34.8-.52,1.17-.06.13-.12.25-.18.37-.12.23-.24.46-.37.69,0,.02-.02.04-.03.05-2.64,4.71-6.38,6.86-6.38,6.86,0,0-.24.14-.48.22,0,0,0,0,.01,0t0,0s.03-.02.04-.03h0s.08-.04.11-.07c.05-.03.1-.07.15-.1,0,0,.01,0,.02-.01.05-.04.09-.07.14-.11.04-.03.08-.07.11-.1.06-.05.11-.1.16-.16.13-.14.26-.3.41-.5.1-.14.2-.29.28-.44.08-.14.16-.3.22-.45.05-.11.1-.21.13-.32.08-.22.14-.45.18-.68.04-.17.06-.35.06-.53,0-.15,0-.3,0-.46,0-.06,0-.12-.02-.19,0,0,0-.02,0-.03,0,0,0,0,0-.01h0s-.01-.08-.02-.12c-.03-.2-.09-.41-.16-.62-.03-.1-.07-.2-.12-.3-.05-.1-.1-.21-.16-.31-.08-.15-.18-.3-.3-.44-.03-.05-.07-.1-.12-.14-.03-.05-.08-.1-.12-.14-.01-.01-.02-.02-.03-.03-.04-.04-.07-.07-.11-.11-.01-.02-.03-.03-.04-.04-.41-.41-.94-.77-1.62-1.09-.04-.02-.08-.04-.11-.06-.2-.09-.42-.18-.65-.26-.06-.03-.13-.05-.2-.07-.12-.04-.24-.08-.36-.12-.07-.02-.28-.09-.63-.2-.03-.01-.07-.02-.1-.03-.29-.09-.65-.21-1.08-.34-.16-.05-.33-.11-.51-.16-.67-.22-1.48-.48-2.39-.76-.17-.06-.35-.11-.53-.17-.83-.27-1.74-.56-2.71-.86h0s-.06-.02-.1-.03c-.04-.01-.08-.03-.13-.04-2.96-.95-6.48-2.07-10.15-3.24-1.24-.39-2.39-.76-3.37-1.07-.17-.05-.34-.11-.51-.16-.17-.05-.32-.1-.48-.15-.15-.04-.29-.09-.44-.14-.08-.03-.16-.05-.24-.07-.08-.03-.16-.05-.24-.08-.04-.01-.08-.02-.12-.04-.12-.04-.23-.08-.35-.11-.1-.03-.2-.07-.3-.1-.11-.04-.22-.07-.31-.1-.06-.02-.12-.03-.17-.05-.03-.01-.06-.02-.09-.03-.02,0-.03-.01-.05-.01-.04-.01-.07-.02-.1-.03-.04-.01-.07-.02-.09-.03,0,0-.01,0-.02,0,0,0,0,0-.01,0h0s0,0,0,0h-.01c-2.67-.85-5.28-1.69-7.69-2.45v-6.81c0-3.12,1.25-6.02,3.36-8.14.03-.03.06-.06.09-.08.02-.02.04-.04.06-.06,1.07-1.04,2.35-1.87,3.79-2.44,2.99-1.17,6.15-2.42,9.26-3.64.44-.17.88-.35,1.32-.53l13.81,4.37c1.54.5,5.38,1.87,8.46,5.55.57.68,1.11,1.45,1.61,2.3.14.24.27.48.4.72.07.14.14.28.21.42.12.25.24.5.35.76.06.14.12.27.18.41.14.35.27.7.4,1.08.13.37.24.75.35,1.15.13.48.25.97.35,1.49.03.17.07.34.1.52.03.18.06.35.09.53.06.36.11.73.15,1.11.07.67.11,1.32.13,1.96,0,.38.01.75,0,1.12Z" fill="#8d4593"/>
            <path d="M60.27,115.21c-.36.48-.61.76-1.06,1.03-.2.11-2.3.94-2.88,1.18-.97.39-56.27,22.58-56.27,22.58l-.03.03v-14.13c0-3.78.82-7.93,5.66-13.38,2.69-3,7.72-5.11,8.23-5.33l17.84-6.98c11.38,3.6,24.63,7.86,25.23,8.04,4.9,1.54,4.69,4.99,3.27,6.96Z" fill="#8d4593"/>
            <path d="M68.36,34.5v14.26c0,7.53-4.69,14.38-12.17,17.97-.27.16-26.82,10.63-28.75,11.39-1.64.66-3.07,1.67-4.21,2.92-.02.01-.03.03-.04.05-.02.02-.04.04-.06.07-1.74,1.96-2.8,4.49-2.9,7.21,0,.12,0,.25,0,.37v7.8h0s0,0-.01,0h0c-.24-.1-.48-.2-.72-.3-1.67-.75-3.24-1.72-4.62-2.9-1.58-1.36-2.9-3.02-3.83-4.89-1.88-3.72-2.17-8.23-.68-12.11.73-1.94,1.9-3.72,3.4-5.17.75-.71,1.59-1.33,2.47-1.88.91-.52,1.85-.96,2.8-1.39,3.81-1.7,7.71-3.2,11.6-4.72l11.65-4.64c1.94-.79,3.88-1.55,5.8-2.4l2.85-1.3c.96-.43,1.86-.97,2.78-1.45,3.65-2.02,7.13-4.46,9.93-7.58,1.37-1.57,2.62-3.29,3.46-5.21.66-1.47,1.14-3.05,1.24-4.65,0-.03.01-.05,0-.07v-1.36h0Z" fill="#8d4593"/>
            <path d="M68.36,34.5v14.26c0,7.53-4.69,14.38-12.17,17.97-.27.16-26.82,10.63-28.75,11.39-1.64.66-3.07,1.67-4.21,2.92-.02.01-.03.03-.04.05-.02.02-.04.04-.06.07-1.74,1.96-2.8,4.49-2.9,7.21,0,.12,0,.25,0,.37v7.8h0s0,0-.01,0h0c-.24-.1-.48-.2-.72-.3-1.67-.75-3.24-1.72-4.62-2.9-1.58-1.36-2.9-3.02-3.83-4.89-1.88-3.72-2.17-8.23-.68-12.11.73-1.94,1.9-3.72,3.4-5.17.75-.71,1.59-1.33,2.47-1.88.91-.52,1.85-.96,2.8-1.39,3.81-1.7,7.71-3.2,11.6-4.72l11.65-4.64c1.94-.79,3.88-1.55,5.8-2.4l2.85-1.3c.96-.43,1.86-.97,2.78-1.45,3.65-2.02,7.13-4.46,9.93-7.58,1.37-1.57,2.62-3.29,3.46-5.21.66-1.47,1.14-3.05,1.24-4.65,0-.03.01-.05,0-.07v-1.36h0Z" fill="url(#radial-gradient)" mix-blend-mode="overlay"/>
          </g>
          <path d="M68.53,0v14.22c0,7.51-4.66,14.37-12.07,17.95-.09.06-45,17.79-45,17.79-3.66,1.66-9.17,5.42-10.86,13.62-.03.03-.27.03-.39,0v-23.45c0-8.14,5.42-15.46,13.89-18.79L68.53,0Z" fill="#2b5ea8"/>
          <path d="M68.35,35.93c-.1,1.6-.59,3.18-1.24,4.65-.84,1.92-2.08,3.64-3.46,5.21-2.8,3.12-6.27,5.56-9.93,7.58-.93.48-1.83,1.02-2.78,1.45l-2.85,1.3c-1.92.85-3.86,1.61-5.8,2.4l-11.65,4.64c-3.89,1.53-7.79,3.02-11.6,4.72-.95.43-1.89.87-2.8,1.39-.88.55-1.72,1.17-2.47,1.88-1.5,1.44-2.67,3.22-3.4,5.17-1.49,3.89-1.2,8.4.68,12.11.93,1.87,2.25,3.53,3.83,4.89,1.38,1.18,2.96,2.15,4.62,2.9.24.1.48.2.72.3h0c-.3-.1-.59-.19-.87-.28-.28-.09-.56-.18-.83-.27-.14-.04-.28-.09-.41-.13-.37-.12-.73-.23-1.07-.34-1.03-.33-1.93-.62-2.66-.85-.16-.05-.32-.1-.46-.15-.15-.05-.28-.09-.41-.13-.21-.07-.39-.13-.55-.17-.11-.04-.2-.07-.29-.09-.3-.1-.46-.15-.46-.15-.09-.03-.17-.06-.26-.09-.17-.06-.32-.12-.48-.18-.15-.06-.3-.13-.44-.19-.14-.06-.27-.13-.39-.19-.06-.03-.13-.07-.19-.1-.01,0-.05-.03-.11-.06-.03-.02-.08-.04-.13-.07-.31-.17-.87-.48-1.25-.7-.08-.05-.15-.09-.21-.13-.03-.02-.06-.04-.08-.05-1-.62-1.94-1.34-2.8-2.14-.16-.15-.32-.31-.48-.47-.07-.07-.13-.14-.2-.21-.47-.48-.91-1-1.31-1.53-.03-.03-.05-.07-.07-.1-.17-.22-.33-.45-.49-.68-.05-.08-.1-.15-.15-.23-.22-.33-.42-.67-.62-1.02,0,0-.01-.01-.01-.03,0-.02-.01-.04-.02-.06,0-.01-.01-.02-.02-.03-.07-.13-.14-.26-.2-.39-.19-.39-.37-.79-.53-1.19,0,0,0,0,0,0-.65-1.61-1.07-3.32-1.32-5.05-.3-1.9-.51-4.32-.33-6.21.09-.79.18-1.51.33-2.2.03-.14.06-.27.09-.41.03-.13.06-.27.09-.4.03-.13.06-.26.1-.39.07-.26.14-.51.22-.76.11-.37.23-.72.36-1.07,0,0,0-.01,0-.02.04-.12.08-.23.13-.35.04-.11.09-.22.13-.34.04-.12.1-.23.15-.35.05-.11.1-.22.15-.33.04-.11.09-.21.15-.32.05-.1.1-.21.15-.31.11-.21.21-.41.32-.61h0c.07-.13.15-.25.22-.38.05-.08.1-.16.14-.24.11-.18.21-.35.33-.53.06-.09.11-.18.17-.26.06-.09.12-.18.19-.27,0,0,.01-.01.02-.02,0,0,0,0,0-.01.02-.03.04-.05.06-.08.07-.1.15-.2.22-.3.01-.02.03-.04.05-.07,0-.01.02-.03.03-.04.05-.06.09-.11.14-.18h0c.09-.12.18-.23.27-.34.08-.1.15-.19.24-.28.06-.07.12-.14.18-.21.11-.12.22-.24.32-.36.15-.16.3-.32.45-.47.1-.1.19-.18.29-.28.12-.12.24-.23.36-.34.07-.07.14-.14.22-.2.03-.03.06-.05.08-.07.05-.04.1-.08.15-.12.12-.11.25-.21.37-.31.09-.07.18-.14.27-.21.26-.2.52-.39.77-.57.15-.11.3-.21.45-.31.16-.11.33-.21.49-.31s.32-.2.48-.29c.26-.15.52-.29.77-.42.1-.06.21-.11.31-.16.26-.13.51-.24.75-.35l57.07-22.55v1.36s0,.04,0,.07Z" fill="#2b5ea8"/>
          <g mix-blend-mode="overlay">
            <path d="M68.5,99.58c0,.14,0,.28-.01.42-.02.53-.06,1.04-.11,1.54-.02.17-.04.33-.06.49-.03.25-.07.51-.11.76,0,0,0,.01,0,.01-.03.19-.07.38-.1.56-.11.56-.24,1.1-.39,1.62-.07.23-.14.45-.21.68-.07.22-.15.44-.22.66-.08.21-.16.42-.24.63-.16.41-.34.8-.52,1.17-.06.13-.12.25-.18.37-.25.49-.51.95-.78,1.39l-.02.03s-.05.08-.07.11c.78-1.39,1.28-2.68,1.51-3.89.02-.08.03-.15.04-.23.01-.08.02-.16.03-.24.16-1.14.08-2.19-.21-3.18-.04-.12-.07-.24-.12-.35,0-.02-.01-.04-.02-.06-.03-.08-.06-.15-.09-.23-.03-.08-.07-.17-.1-.25-.01-.03-.03-.06-.04-.09-.05-.12-.11-.24-.17-.36-.07-.13-.14-.27-.22-.4-.07-.11-.13-.22-.21-.34-.05-.08-.11-.17-.17-.25-4.32-6.23-17.79-9.71-30.97-14.71-2.5-.95-4.93-1.85-7.24-2.72.02-.02.04-.04.06-.06,1.07-1.04,2.35-1.87,3.79-2.44,2.99-1.17,6.15-2.42,9.26-3.64.44-.17.88-.35,1.32-.53l13.81,4.37c1.54.5,5.38,1.87,8.46,5.55.57.68,1.11,1.45,1.61,2.3.14.24.27.48.4.72.07.14.14.28.21.42.12.25.24.5.35.76.06.14.12.27.18.41.14.35.27.71.4,1.08.13.37.24.75.35,1.15.13.48.25.97.35,1.49.03.17.07.34.1.52.03.18.06.35.09.53.06.36.1.73.14,1.1.07.67.11,1.33.14,1.97,0,.38.01.75,0,1.12Z" fill="url(#radial-gradient-2)"/>
          </g>
          <path d="M68.51.03l.04,9.26c-.05,3.07.26,6.2-.49,9.23-.74,3.01-2.21,5.83-4.24,8.17-1.02,1.17-2.15,2.24-3.38,3.17-1.24.92-2.57,1.73-3.96,2.42h.01s-30.94,12.22-30.94,12.22l-7.74,3.05-3.87,1.52c-1.28.52-2.61.96-3.81,1.64-2.43,1.31-4.6,3.13-6.24,5.36-.82,1.12-1.5,2.33-2.06,3.59-.56,1.27-.94,2.61-1.25,3.95h0c-.13.04-.27.02-.39,0,.13.02.27.04.39,0h0c.31-1.35.67-2.69,1.22-3.97.55-1.27,1.23-2.49,2.04-3.62,1.63-2.25,3.8-4.09,6.24-5.42,1.22-.69,2.54-1.13,3.81-1.65l3.86-1.53,7.72-3.07,30.91-12.23h.01c1.38-.69,2.7-1.48,3.94-2.4,1.23-.93,2.35-1.98,3.37-3.14,2.03-2.31,3.5-5.11,4.24-8.1.75-3,.45-6.13.53-9.2l.04-9.26Z" fill="#2b5ea8"/>
          <g opacity=".1">
            <path d="M61.12,112.37c0,2.78-2.04,3.96-2.04,3.96-1.49.66-4.59,1.83-4.86,1.93.44-.27.76-.6,1.11-1.07,1.42-1.97,1.63-5.42-3.27-6.96-.29-.08-3.38-1.07-7.77-2.46-.08-.03-.16-.06-.25-.08-4.91-1.56-11.36-3.61-17.28-5.48l4.99-1.96c.11.03,9.73,3.09,17.06,5.43.08.03.15.04.22.07t0,0c4.42,1.41,7.94,2.52,7.95,2.52.4.12,4.12,1.33,4.12,4.11Z" fill="#1c132c" mix-blend-mode="multiply"/>
          </g>
          <path d="M68.51.03c0,14.54-11.94,18.55-35.73,28.07C9,37.63.17,42.4.17,63.62v-23.45c0-8.14,5.42-15.47,13.89-18.79L68.51.03Z" fill="url(#radial-gradient-3)" mix-blend-mode="overlay"/>
          <g mix-blend-mode="overlay">
            <path d="M48.94,105.71c-4.64,2-10.13,4.16-16.43,6.7C10.25,121.34,1.1,125.86.02,140.04v-14.13c0-3.78.82-7.93,5.66-13.38,2.7-3,7.72-5.12,8.23-5.33l13.9-5.42,3.94-1.56c5.9,1.87,12.3,3.91,17.19,5.48Z" fill="url(#radial-gradient-4)"/>
          </g>
          <path d="M65.56,109.9l-.02.03c.78-1.34,1.24-2.6,1.44-3.77.02-.08.03-.15.04-.23.01-.08.02-.16.03-.24.64-5.57-4.64-9.29-10.2-11.78-6.5-2.97-13.37-5.05-20.07-7.54-2.75-1.06-6.06-2.27-9.37-3.53.03-.03.06-.06.09-.08.02-.02.04-.04.06-.06,3.2,1.19,6.38,2.32,9.3,3.47,5.92,2.17,14.43,4.96,20.07,7.6,3.52,1.61,6.93,3.69,8.79,6.42.06.08.11.17.17.25.07.11.14.22.21.34.08.13.15.27.22.4.06.12.12.24.17.36.01.03.03.06.04.09.04.08.07.17.1.25.03.08.06.15.09.23,0,.02.01.04.02.06.04.12.08.24.12.35.64,2.12.37,4.57-1.28,7.39Z" fill="url(#radial-gradient-5)" mix-blend-mode="overlay"/>
          <path d="M49.04,105.73c-1.57.7-3.15,1.37-4.74,2.02-4.04,1.68-8.11,3.27-12.15,4.92-6.93,2.83-13.99,5.52-20.44,9.37-6.71,3.89-10.96,9.5-11.64,17.26.61-7.83,4.8-13.42,11.57-17.38,6.45-3.87,13.49-6.58,20.43-9.44,3.98-1.61,8-3.17,11.98-4.8,1.6-.66,3.19-1.32,4.77-2.01.08.03.15.04.22.07Z" fill="url(#radial-gradient-6)" mix-blend-mode="overlay"/>
          <path d="M60.24,115.24c-.33.46-.72.92-1.26,1.13l-1.58.66c-1.05.45-2.12.86-3.19,1.28h.02s-.03.02-.03.02h-.01s-.02.01-.02.01h-.03s.02,0,.02,0l-27.03,10.92c-9.03,3.59-18.04,7.23-27.08,10.77l-.03.03.03-.03h0c8.98-3.7,18.01-7.31,27.01-10.96l27.07-10.81h0s0,0,0,0h.03s-.03.01-.03.01l.03-.03h0s.01-.01.01-.01c1.07-.41,2.14-.8,3.2-1.24l1.59-.64c.55-.2.94-.65,1.28-1.11Z" fill="#8d4593"/>
          <path d="M68.51.03c.15,9.78-6.17,15.04-14.28,19.07-10.9,5.44-23.97,9.64-34.95,14.9C5.24,40.57.2,48,.18,63.61c-.11-15.71,4.95-23.12,19.03-29.78,10.96-5.32,24.05-9.46,34.96-14.87,8.08-3.99,14.42-9.22,14.34-18.94h0Z" fill="url(#radial-gradient-7)" mix-blend-mode="overlay"/>
          <path d="M27.43,78.14c-1.64.66-3.07,1.67-4.21,2.92-.02.01-.03.03-.04.05-.02.02-.04.04-.06.07-1.74,1.96-2.8,4.49-2.9,7.21.08-2.72,1.14-5.26,2.88-7.22.02-.03.04-.05.06-.07.01-.02.03-.03.04-.05,1.15-1.26,2.58-2.26,4.23-2.91Z" fill="#1c132c" mix-blend-mode="multiply" opacity=".1"/>
          <path d="M68.34,34.53v1.37s0,.04,0,.07c-.1,1.6-.59,3.18-1.24,4.65-.84,1.92-2.08,3.64-3.46,5.21-2.8,3.12-6.27,5.56-9.93,7.58-.92.48-1.82,1.02-2.78,1.45l-2.85,1.3c-1.92.85-3.86,1.61-5.8,2.4l-11.65,4.64c-3.89,1.53-7.79,3.02-11.6,4.73-.95.43-1.89.87-2.8,1.39-.88.54-1.72,1.17-2.47,1.88-1.5,1.44-2.67,3.22-3.4,5.17-1.49,3.89-1.2,8.4.68,12.11.92,1.87,2.25,3.53,3.83,4.89,1.38,1.18,2.96,2.15,4.62,2.9.24.1.48.2.72.3-4.74-1.51-7.99-2.55-8.03-2.56-.7-.24-1.27-.48-1.75-.76-.09-.04-1.41-.75-1.79-1-1-.62-1.94-1.34-2.8-2.14-1.31-1.23-2.44-2.65-3.32-4.24-.03-.03-.03-.09-.06-.12-1.09-2.06-1.72-4.32-2.06-6.63-.3-1.9-.51-4.32-.33-6.2.09-.79.18-1.51.33-2.2,1.69-8.2,7.21-11.96,10.87-13.62l57.07-22.55Z" fill="url(#radial-gradient-8)" mix-blend-mode="overlay"/>
          <g mix-blend-mode="overlay">
            <path d="M68.34,34.53c.16,2.09-.39,4.18-1.24,6.08-.84,1.92-2.09,3.64-3.46,5.21-2.8,3.12-6.28,5.56-9.93,7.58-.93.48-1.83,1.02-2.78,1.45l-2.86,1.29c-1.91.84-3.86,1.61-5.79,2.4l-11.65,4.63c-3.89,1.53-7.79,3.03-11.6,4.73-.95.43-1.9.87-2.8,1.39-.88.54-1.72,1.17-2.48,1.88-1.5,1.44-2.67,3.22-3.4,5.16-1.49,3.89-1.2,8.4.69,12.11.92,1.87,2.25,3.53,3.82,4.9,1.58,1.36,3.41,2.43,5.35,3.2-1.95-.76-3.78-1.81-5.38-3.16-1.59-1.36-2.93-3.02-3.88-4.89-1.92-3.73-2.21-8.27-.73-12.21.74-1.97,1.91-3.77,3.43-5.23.76-.73,1.61-1.36,2.5-1.91.91-.52,1.86-.97,2.81-1.4,3.81-1.72,7.71-3.23,11.6-4.77l11.66-4.6c3.86-1.58,7.78-3.07,11.43-5.11,3.65-2.01,7.11-4.43,9.92-7.53,1.38-1.56,2.64-3.25,3.49-5.16.87-1.89,1.44-3.97,1.29-6.06Z" fill="url(#radial-gradient-9)"/>
          </g>
        </g>
      </g>
    </g>
  </g>
</svg>