<svg width="136" height="74" viewBox="0 0 136 74" fill="none" xmlns="http://www.w3.org/2000/svg">
<g clip-path="url(#clip0_18976_9393)">
<path d="M80.9253 44.2612C81.1012 44.1952 81.2772 44.1248 81.4312 44.0412C82.1571 43.6497 82.6938 43.1393 83.0413 42.5014C83.3845 41.8635 83.556 41.1816 83.556 40.4514C83.556 39.6727 83.3757 38.96 83.0193 38.3265C82.663 37.6886 82.1131 37.1783 81.3784 36.7955C80.6437 36.4128 79.7242 36.2192 78.62 36.2192H73.3145V49.8747H76.24V44.6263H77.9381L80.3577 49.8747H83.6748L80.9253 44.2612ZM80.0586 41.9911C79.7154 42.3431 79.1787 42.519 78.4484 42.519H76.2444V38.6565H78.4484C79.1787 38.6565 79.7154 38.828 80.0586 39.1756C80.4017 39.5187 80.5777 39.985 80.5777 40.5701C80.5777 41.1553 80.4061 41.6436 80.0586 41.9955V41.9911Z" fill="white"/>
<path d="M60.7903 26.7391H62.4884L64.908 31.9875H68.2251L65.4755 26.374C65.6515 26.308 65.8275 26.2376 65.9815 26.154C66.7117 25.7625 67.2441 25.2521 67.5916 24.6142C67.9348 23.9763 68.1107 23.2944 68.1107 22.5642C68.1107 21.7855 67.9304 21.0728 67.574 20.4393C67.2177 19.8014 66.6678 19.2911 65.9331 18.9083C65.1984 18.5256 64.2789 18.332 63.1747 18.332H57.8691V31.9875H60.7947V26.7391H60.7903ZM60.7903 20.7692H62.9943C63.7202 20.7692 64.2613 20.9408 64.6045 21.2884C64.9476 21.6315 65.1236 22.0978 65.1236 22.6829C65.1236 23.268 64.952 23.7564 64.6045 24.1083C64.2613 24.4603 63.7246 24.6362 62.9943 24.6362H60.7903V20.7736V20.7692Z" fill="white"/>
<path d="M76.7276 32.2204C78.0694 32.2204 79.2528 31.9213 80.2778 31.323C81.3072 30.7246 82.1035 29.8976 82.6666 28.8373C83.2341 27.7771 83.5157 26.5497 83.5157 25.1595C83.5157 23.7693 83.2341 22.5419 82.6666 21.4817C82.0991 20.4215 81.3028 19.5944 80.2778 18.9961C79.2484 18.3978 78.065 18.0986 76.7276 18.0986C75.3902 18.0986 74.2112 18.3978 73.1949 18.9961C72.1831 19.5944 71.3824 20.4215 70.8061 21.4817C70.2254 22.5419 69.9395 23.7693 69.9395 25.1595C69.9395 26.5497 70.2298 27.7771 70.8061 28.8373C71.3824 29.8976 72.1831 30.7246 73.1949 31.323C74.2112 31.9213 75.3858 32.2204 76.7276 32.2204ZM73.3929 22.8103C73.7053 22.1548 74.1452 21.6489 74.7215 21.2881C75.2934 20.9318 75.9621 20.7514 76.732 20.7514C77.5018 20.7514 78.2057 20.9318 78.7732 21.2881C79.3363 21.6445 79.7763 22.1548 80.0886 22.8103C80.401 23.4658 80.5594 24.2489 80.5594 25.1595C80.5594 26.0702 80.401 26.8533 80.0886 27.5088C79.7763 28.1642 79.3363 28.6746 78.7732 29.0397C78.2057 29.4049 77.5282 29.5852 76.732 29.5852C75.9357 29.5852 75.2934 29.4049 74.7215 29.0397C74.1496 28.6746 73.7053 28.1642 73.3929 27.5088C73.0806 26.8533 72.9222 26.0702 72.9222 25.1595C72.9222 24.2489 73.0806 23.4658 73.3929 22.8103Z" fill="white"/>
<path d="M93.2346 36.2148H89.8779L84.9023 49.8703H87.9643L88.9937 46.8876H94.0793L95.1087 49.8703H98.2102L93.2346 36.2148ZM89.7768 44.6219L91.5365 39.5099L93.2962 44.6219H89.7724H89.7768Z" fill="white"/>
<path d="M49.8083 26.2904H54.6476V24.0071H49.8083V20.6901H55.9542V18.332H46.8828V31.9875H49.8083V26.2904Z" fill="white"/>
<path d="M88.6331 23.268L92.0073 30.0738H94.3478L97.7044 23.268V31.9875H100.63V18.332H97.1369L93.1951 26.5455L89.2182 18.332H85.7031V31.9875H88.6331V23.268Z" fill="white"/>
<path d="M114.197 39.1802C114.739 38.8151 115.39 38.6347 116.159 38.6347C116.965 38.6347 117.624 38.8283 118.13 39.211C118.636 39.5938 118.971 40.1305 119.125 40.8212H122.323C122.063 39.2858 121.395 38.098 120.321 37.2489C119.248 36.4043 117.866 35.9819 116.177 35.9819C114.809 35.9819 113.634 36.2855 112.644 36.8882C111.655 37.4909 110.894 38.3268 110.361 39.387C109.829 40.4472 109.561 41.679 109.561 43.0824C109.561 44.4858 109.825 45.6824 110.361 46.7426C110.894 47.8029 111.655 48.6299 112.644 49.2195C113.63 49.8134 114.809 50.1081 116.177 50.1081C117.866 50.1081 119.248 49.6946 120.321 48.8675C121.395 48.0404 122.059 46.9054 122.323 45.4624H119.125C118.957 46.1135 118.619 46.6107 118.122 46.9538C117.62 47.297 116.969 47.4729 116.159 47.4729C115.35 47.4729 114.739 47.2926 114.197 46.9362C113.656 46.5799 113.247 46.0695 112.97 45.4141C112.688 44.7586 112.552 43.9799 112.552 43.0824C112.552 42.185 112.693 41.3711 112.97 40.7112C113.252 40.0557 113.661 39.5454 114.197 39.1802Z" fill="white"/>
<path d="M133.075 36.2148V41.714H127.435V36.2148H124.51V49.8703H127.435V44.0764H133.075V49.8703H136.001V36.2148H133.075Z" fill="white"/>
<path d="M97.7051 38.5773H101.664V49.8703H104.59V38.5773H108.549V36.2148H97.7051V38.5773Z" fill="white"/>
<path d="M56.0207 48.036C56.4034 47.4113 56.597 46.7295 56.597 45.986C56.597 45.1413 56.4166 44.4594 56.0603 43.9491C55.7039 43.4344 55.2332 43.0208 54.6569 42.6997C54.0762 42.3829 53.4427 42.1058 52.7564 41.8726C52.3252 41.745 51.9337 41.6131 51.5774 41.4811C51.221 41.3491 50.9087 41.2127 50.6403 41.0631C50.372 40.9136 50.1652 40.7332 50.0156 40.5176C49.866 40.3021 49.7912 40.0513 49.7912 39.7653C49.7912 39.4794 49.8616 39.2154 50.0068 39.0131C50.152 38.8107 50.3456 38.6611 50.5919 38.5643C50.8383 38.4676 51.111 38.4236 51.4102 38.4368C51.7489 38.4368 52.0437 38.5071 52.2988 38.6523C52.554 38.7975 52.752 38.9823 52.9016 39.2198C53.0511 39.453 53.1347 39.7126 53.1435 39.9985H56.2846C56.2582 39.167 56.0339 38.4456 55.6115 37.8428C55.1892 37.2401 54.6217 36.7782 53.9134 36.4571C53.2051 36.1403 52.3824 35.9775 51.4454 35.9775C50.5083 35.9775 49.7209 36.1315 49.0082 36.4439C48.2955 36.7562 47.7324 37.2093 47.3188 37.7989C46.9097 38.3928 46.7029 39.101 46.7029 39.9369C46.7029 40.94 46.9933 41.7406 47.5696 42.3345C48.1503 42.9328 48.9774 43.408 50.0552 43.7599C50.5259 43.9051 50.9615 44.0503 51.3706 44.1998C51.7797 44.3494 52.1405 44.5122 52.4528 44.6882C52.7652 44.8641 53.0115 45.0709 53.1963 45.3129C53.3767 45.5548 53.4691 45.8408 53.4691 46.1795C53.4691 46.5183 53.3899 46.7734 53.2359 46.989C53.0819 47.2046 52.8708 47.3673 52.6024 47.4773C52.334 47.5873 52.0261 47.6445 51.6741 47.6445C51.2562 47.6445 50.8911 47.5609 50.5831 47.4025C50.2708 47.2398 50.0244 47.0154 49.844 46.7295C49.6593 46.4435 49.5625 46.1135 49.5493 45.7352H46.4258C46.4654 46.6855 46.7117 47.4861 47.1693 48.1328C47.6224 48.7839 48.2471 49.2723 49.0302 49.6066C49.8176 49.9365 50.6975 50.1037 51.6741 50.1037C52.7388 50.1037 53.6362 49.9145 54.3577 49.5362C55.0792 49.1579 55.6335 48.6563 56.0163 48.036H56.0207Z" fill="white"/>
<path d="M63.0075 39.1802C63.5486 38.8151 64.1997 38.6347 64.9695 38.6347C65.7746 38.6347 66.4345 38.8283 66.9404 39.211C67.4463 39.5938 67.7807 40.1305 67.9347 40.8212H71.133C70.8734 39.2858 70.2047 38.098 69.1357 37.2489C68.0622 36.4043 66.6809 35.9819 64.9915 35.9819C63.6234 35.9819 62.4487 36.2855 61.4589 36.8882C60.4691 37.4909 59.708 38.3268 59.1757 39.387C58.6434 40.4472 58.375 41.679 58.375 43.0824C58.375 44.4858 58.639 45.6824 59.1757 46.7426C59.708 47.8029 60.4691 48.6299 61.4589 49.2195C62.4443 49.8134 63.6234 50.1081 64.9915 50.1081C66.6809 50.1081 68.0622 49.6946 69.1357 48.8675C70.2091 48.0404 70.8734 46.9054 71.133 45.4624H67.9347C67.7675 46.1135 67.4287 46.6107 66.9316 46.9538C66.4301 47.297 65.779 47.4729 64.9695 47.4729C64.1601 47.4729 63.5486 47.2926 63.0075 46.9362C62.4663 46.5799 62.0572 46.0695 61.7801 45.4141C61.5029 44.7586 61.3621 43.9799 61.3621 43.0824C61.3621 42.185 61.5029 41.3711 61.7801 40.7112C62.0572 40.0557 62.4707 39.5454 63.0075 39.1802Z" fill="white"/>
<path d="M49.6338 57.7326C49.4227 57.605 49.1807 57.495 48.908 57.407C48.688 57.3323 48.49 57.2663 48.3096 57.2047C48.1293 57.1431 47.9709 57.0771 47.8345 57.0067C47.6981 56.9319 47.597 56.8439 47.5222 56.7427C47.4518 56.6416 47.4166 56.5052 47.4166 56.338C47.4166 56.1708 47.4562 56.0257 47.5354 55.9069C47.6146 55.7881 47.7245 55.6957 47.8653 55.6341C48.0061 55.5725 48.1645 55.5417 48.3448 55.5461C48.556 55.5461 48.7364 55.5901 48.886 55.6737C49.0311 55.7617 49.1411 55.8717 49.2159 56.0081C49.2907 56.1444 49.3259 56.2808 49.3259 56.426H50.1574C50.1574 56.118 50.0826 55.8497 49.9286 55.6165C49.779 55.3878 49.5678 55.2074 49.3039 55.0754C49.0355 54.9434 48.7276 54.8774 48.3712 54.8774C48.0149 54.8774 47.6981 54.9434 47.4342 55.071C47.1702 55.1986 46.9635 55.379 46.8183 55.6033C46.6731 55.8321 46.5983 56.1005 46.5983 56.404C46.5983 56.7647 46.7039 57.0595 46.9151 57.2839C47.1262 57.5082 47.4474 57.693 47.8829 57.8338C48.0985 57.9086 48.3008 57.9746 48.4988 58.0361C48.6968 58.0977 48.8684 58.1725 49.0179 58.2517C49.1675 58.3309 49.2863 58.4365 49.3743 58.5597C49.4623 58.6828 49.5063 58.8456 49.5063 59.0392C49.5063 59.2064 49.4667 59.3515 49.3831 59.4835C49.2995 59.6111 49.1763 59.7123 49.0179 59.7871C48.8596 59.8619 48.6704 59.8971 48.4504 59.8971C48.1953 59.8971 47.9797 59.8487 47.8037 59.7519C47.6278 59.6551 47.4958 59.5231 47.4034 59.3603C47.311 59.1976 47.2626 59.0128 47.2582 58.8148H46.4355C46.4355 59.1668 46.5191 59.4703 46.6863 59.7299C46.8535 59.9894 47.0866 60.1918 47.3902 60.337C47.6937 60.4822 48.0457 60.5526 48.446 60.5526C48.8464 60.5526 49.2027 60.4778 49.4799 60.3282C49.757 60.1786 49.9638 59.9894 50.109 59.7519C50.2497 59.5187 50.3201 59.2636 50.3201 58.9908C50.3201 58.6784 50.2585 58.4189 50.1354 58.2165C50.0122 58.0142 49.845 57.8514 49.6338 57.7238V57.7326Z" fill="white"/>
<path d="M100.431 57.7326C100.22 57.605 99.9776 57.495 99.7048 57.407C99.4849 57.3323 99.2869 57.2663 99.1065 57.2047C98.9261 57.1431 98.7678 57.0771 98.6314 57.0067C98.495 56.9319 98.3938 56.8439 98.319 56.7427C98.2487 56.6416 98.2135 56.5052 98.2135 56.338C98.2135 56.1708 98.2531 56.0257 98.3322 55.9069C98.4114 55.7881 98.5214 55.6957 98.6622 55.6341C98.803 55.5725 98.9613 55.5417 99.1417 55.5461C99.3529 55.5461 99.5333 55.5901 99.6828 55.6737C99.828 55.7617 99.938 55.8717 100.013 56.0081C100.088 56.1444 100.123 56.2808 100.123 56.426H100.954C100.954 56.118 100.879 55.8497 100.725 55.6165C100.576 55.3878 100.365 55.2074 100.101 55.0754C99.8324 54.9434 99.5245 54.8774 99.1681 54.8774C98.8118 54.8774 98.495 54.9434 98.2311 55.071C97.9671 55.1986 97.7603 55.379 97.6152 55.6033C97.47 55.8321 97.3952 56.1005 97.3952 56.404C97.3952 56.7647 97.5008 57.0595 97.7119 57.2839C97.9231 57.5082 98.2443 57.693 98.6798 57.8338C98.8954 57.9086 99.0977 57.9746 99.2957 58.0361C99.4937 58.0977 99.6652 58.1725 99.8148 58.2517C99.9644 58.3309 100.083 58.4365 100.171 58.5597C100.259 58.6828 100.303 58.8456 100.303 59.0392C100.303 59.2064 100.264 59.3515 100.18 59.4835C100.096 59.6111 99.9732 59.7123 99.8148 59.7871C99.6564 59.8619 99.4673 59.8971 99.2473 59.8971C98.9921 59.8971 98.7766 59.8487 98.6006 59.7519C98.4246 59.6551 98.2927 59.5231 98.2003 59.3603C98.1079 59.1976 98.0595 59.0128 98.0551 58.8148H97.2324C97.2324 59.1668 97.316 59.4703 97.4832 59.7299C97.6504 59.9894 97.8835 60.1918 98.1871 60.337C98.4906 60.4822 98.8426 60.5526 99.2429 60.5526C99.6432 60.5526 99.9996 60.4778 100.277 60.3282C100.554 60.1786 100.761 59.9894 100.906 59.7519C101.047 59.5187 101.117 59.2636 101.117 58.9908C101.117 58.6784 101.055 58.4189 100.932 58.2165C100.809 58.0142 100.642 57.8514 100.431 57.7238V57.7326Z" fill="white"/>
<path d="M56.6973 55.247C56.297 55.005 55.8262 54.8862 55.2895 54.8862C54.7528 54.8862 54.2997 55.005 53.8993 55.247C53.499 55.4889 53.1866 55.8189 52.9579 56.2456C52.7291 56.6723 52.6191 57.1651 52.6191 57.7238C52.6191 58.2825 52.7335 58.784 52.9579 59.2064C53.1866 59.6331 53.499 59.963 53.8993 60.2006C54.2997 60.4382 54.7616 60.5569 55.2895 60.5569C55.8174 60.5569 56.297 60.4382 56.6973 60.2006C57.0976 59.963 57.41 59.6331 57.6343 59.2064C57.8543 58.7796 57.9687 58.2869 57.9687 57.7238C57.9687 57.1607 57.8587 56.6723 57.6343 56.2456C57.41 55.8189 57.0976 55.4889 56.6973 55.247ZM56.9348 58.8676C56.7809 59.1844 56.5609 59.4307 56.2794 59.6067C55.9978 59.7783 55.6679 59.8662 55.2895 59.8662C54.9112 59.8662 54.5856 59.7783 54.3041 59.6067C54.0225 59.4351 53.8026 59.1888 53.6442 58.8676C53.4858 58.5465 53.411 58.1681 53.411 57.7238C53.411 57.2795 53.4902 56.8967 53.6442 56.58C53.8026 56.2632 54.0225 56.0169 54.3041 55.8497C54.5856 55.6781 54.9156 55.5945 55.2895 55.5945C55.6635 55.5945 55.9934 55.6781 56.2794 55.8497C56.5609 56.0212 56.7765 56.2632 56.9348 56.58C57.0888 56.8967 57.1636 57.2795 57.1636 57.7238C57.1636 58.1681 57.0888 58.5509 56.9348 58.8676Z" fill="white"/>
<path d="M61.2596 54.9785H60.4766V60.4645H63.7672V59.8442H61.2596V54.9785Z" fill="white"/>
<path d="M69.3547 58.4188C69.3547 58.7487 69.302 59.0171 69.1964 59.2282C69.0908 59.4394 68.9412 59.5978 68.7476 59.699C68.5541 59.8001 68.3253 59.8529 68.057 59.8529C67.7886 59.8529 67.5686 59.8001 67.3707 59.699C67.1727 59.5978 67.0231 59.4394 66.9131 59.2282C66.8032 59.0171 66.746 58.7443 66.746 58.4188V54.9785H65.9629V58.41C65.9629 58.9027 66.0553 59.303 66.2444 59.6198C66.4292 59.9365 66.68 60.1697 66.9923 60.3237C67.3047 60.4776 67.6566 60.5568 68.0438 60.5568C68.4309 60.5568 68.7828 60.482 69.0996 60.3237C69.4163 60.1697 69.6715 59.9321 69.8607 59.6198C70.0498 59.303 70.1422 58.8983 70.1422 58.41V54.9785H69.3592V58.4188H69.3547Z" fill="white"/>
<path d="M72.4473 55.6208H74.0706V60.4645H74.8537V55.6208H76.4858V54.9785H72.4473V55.6208Z" fill="white"/>
<path d="M79.6268 54.9785H78.8438V60.4645H79.6268V54.9785Z" fill="white"/>
<path d="M86.2173 55.247C85.817 55.005 85.3463 54.8862 84.8095 54.8862C84.2728 54.8862 83.8197 55.005 83.4194 55.247C83.019 55.4889 82.7067 55.8189 82.4779 56.2456C82.2491 56.6723 82.1348 57.1651 82.1348 57.7238C82.1348 58.2825 82.2491 58.784 82.4779 59.2064C82.7067 59.6331 83.019 59.963 83.4194 60.2006C83.8197 60.4382 84.2816 60.5569 84.8095 60.5569C85.3375 60.5569 85.817 60.4382 86.2173 60.2006C86.6177 59.963 86.93 59.6331 87.1544 59.2064C87.3743 58.7796 87.4887 58.2869 87.4887 57.7238C87.4887 57.1607 87.3787 56.6723 87.1544 56.2456C86.93 55.8189 86.6177 55.4889 86.2173 55.247ZM86.4593 58.8676C86.3053 59.1844 86.0853 59.4307 85.8038 59.6067C85.5222 59.7783 85.1923 59.8662 84.8139 59.8662C84.4356 59.8662 84.1101 59.7783 83.8285 59.6067C83.5469 59.4351 83.327 59.1888 83.1686 58.8676C83.0102 58.5465 82.9354 58.1681 82.9354 57.7238C82.9354 57.2795 83.0146 56.8967 83.1686 56.58C83.327 56.2632 83.5469 56.0169 83.8285 55.8497C84.1101 55.6781 84.44 55.5945 84.8139 55.5945C85.1879 55.5945 85.5178 55.6781 85.8038 55.8497C86.0853 56.0212 86.3053 56.2632 86.4593 56.58C86.6133 56.8967 86.688 57.2795 86.688 57.7238C86.688 58.1681 86.6133 58.5509 86.4593 58.8676Z" fill="white"/>
<path d="M93.5771 59.1887L90.7792 54.9785H89.9961V60.4645H90.7792V56.2631L93.5771 60.4645H94.3602V54.9785H93.5771V59.1887Z" fill="white"/>
<path d="M34.5433 57.2574C34.5829 57.1694 34.6181 57.0814 34.6577 56.9935C34.9216 56.3556 35.0976 55.6649 35.0976 54.9874C35.0976 54.7718 35.0844 54.5474 35.0492 54.3363C34.8469 53.2189 34.1474 52.2642 33.2807 51.5383C31.5606 50.0558 29.3653 49.2419 27.2449 48.4016C25.098 47.5965 22.916 46.8575 20.7339 46.1052C18.5519 45.3265 16.4182 44.5126 14.2493 43.7076L14.135 43.6724C13.1671 44.7502 12.604 46.1668 12.604 47.6757V51.2392C13.871 51.6395 15.2392 52.0794 16.6426 52.5326L7.29844 56.184C7.03448 56.2984 4.3993 57.4114 2.98273 58.982C0.448729 61.8371 0.0219965 64.006 0.0219965 65.9856V73.2753C0.136378 71.9335 0.387138 70.6137 0.901857 69.3731C1.42977 68.0929 2.24364 66.9271 3.25988 65.9724C5.29236 64.0543 7.78676 62.7741 10.2856 61.5951C12.7932 60.4161 15.3536 59.3735 17.9008 58.3089L25.1904 55.2469H25.2168L25.5291 55.1106L26.3958 55.4009L26.0835 55.5285L18.0811 58.7532C15.5075 59.7694 12.9383 60.7593 10.4175 61.8899C7.91874 63.0073 5.41114 64.2479 3.36546 66.0912C2.34923 67.0063 1.53536 68.1501 0.981044 69.4039C0.43993 70.6313 0.167173 71.9511 0.0263958 73.2797V73.3941L0.0395937 73.3809C0.0395937 73.3809 0.101184 73.3545 0.228764 73.3061C0.277156 73.2929 0.31675 73.2797 0.365142 73.2577L1.02504 72.9937C0.69069 73.1301 0.356343 73.2621 0.0219965 73.4029H0.0175972C4.76004 71.5464 9.48049 69.6415 14.2141 67.7586L28.3755 62.0395H28.3887H28.3975L28.4063 62.0307L28.4195 62.0175C28.9782 61.7975 29.5369 61.5863 30.0868 61.3488L30.9183 61.0012C30.9447 60.9924 30.9623 60.9704 30.9843 60.9572C30.9843 60.9572 30.9843 60.9572 30.9887 60.9572C31.0151 60.9572 31.0371 60.944 31.0635 60.9308C31.0591 60.9264 31.0547 60.9308 31.0503 60.9308C31.0767 60.9176 31.0899 60.9044 31.1119 60.8912V60.9044C31.1866 60.8649 31.235 60.8429 31.235 60.8429C31.235 60.8429 33.0651 59.787 34.4333 57.4818C34.4597 57.4422 34.4817 57.4202 34.4949 57.3806C34.5213 57.3542 34.5345 57.3322 34.5433 57.3058C34.5565 57.2926 34.5565 57.2794 34.5697 57.2574C34.5565 57.2838 34.5433 57.297 34.5213 57.319C34.5213 57.3058 34.5345 57.2794 34.5477 57.2706L34.5433 57.2574ZM31.2086 60.8077C31.2086 60.8077 31.213 60.8033 31.2218 60.7945C31.235 60.7945 31.2482 60.7813 31.2614 60.7681C31.2438 60.7813 31.2262 60.7945 31.213 60.8077H31.2086ZM31.4814 60.5305C31.455 60.5437 31.4462 60.5701 31.433 60.5789C31.433 60.5789 31.4374 60.5701 31.4462 60.5525C31.4638 60.5261 31.4902 60.4997 31.5078 60.4777C31.4946 60.4909 31.4814 60.5129 31.4814 60.5261V60.5305ZM31.8597 59.9146C31.8333 59.9762 31.8113 60.029 31.7717 60.0774C31.8201 59.9762 31.8729 59.8662 31.9213 59.7518C31.9081 59.8002 31.8817 59.8662 31.8597 59.9146ZM32.0489 59.0127V59.1139C32.0489 59.2151 32.0357 59.3031 32.0225 59.3911C31.9961 59.5187 31.9609 59.6286 31.9213 59.743C31.9961 59.5187 32.0489 59.2679 32.0489 59.0171C32.0489 58.9424 32.0489 58.8544 32.0357 58.7796C32.0357 58.8192 32.0489 58.8412 32.0489 58.8808V59.0171V59.0127Z" fill="white"/>
<path d="M35.7611 49.9807C35.7479 49.8927 35.7347 49.8047 35.7127 49.7035C35.6995 49.6156 35.6863 49.5276 35.6643 49.4396C35.6159 49.1624 35.55 48.8985 35.4884 48.6477C35.4268 48.4453 35.3608 48.2474 35.2992 48.0582C35.2376 47.8558 35.1628 47.6711 35.0968 47.4951C35.0572 47.4203 35.0352 47.3455 34.9956 47.2707C34.9473 47.1343 34.8813 47.0068 34.8197 46.8704C34.7801 46.7956 34.7317 46.7208 34.7053 46.6592C34.6305 46.5316 34.5557 46.3953 34.4941 46.2809C34.2302 45.8278 33.9398 45.4274 33.6407 45.0755C32.0349 43.1442 30.0156 42.4271 29.2106 42.1631L21.9737 39.8667C21.7493 39.9679 21.5074 40.0559 21.283 40.1439C19.6509 40.7818 17.9967 41.4373 16.4262 42.0488C15.7883 42.3127 15.1988 42.6647 14.6973 43.1002L19.928 45.0711L25.348 47.042C27.1429 47.7327 28.9378 48.4453 30.6667 49.3252C32.3473 50.2183 34.1026 51.3445 34.9341 53.1658V53.179L35.0616 53.5045C35.2992 54.1952 35.3256 54.9475 35.176 55.6382C35.1628 55.7262 35.1364 55.8142 35.1144 55.889C35.1012 55.9154 35.088 55.9374 35.088 55.9637C35.0616 56.0781 35.0264 56.1793 34.9868 56.2761C34.9253 56.5005 34.8373 56.716 34.7361 56.914C34.6965 56.9888 34.6613 57.0636 34.6217 57.1384C34.6701 57.0372 34.7361 56.9492 34.7845 56.848C34.8109 56.7864 34.8461 56.7248 34.8725 56.6588C34.9736 56.4565 35.0616 56.2585 35.1496 56.0429C35.1892 55.9286 35.2376 55.8186 35.2728 55.7042C35.3212 55.5898 35.3608 55.4798 35.4004 55.3654C35.4268 55.2423 35.462 55.1279 35.5016 55.0003C35.5763 54.7363 35.6511 54.4504 35.7039 54.16C35.7303 54.0589 35.7435 53.9577 35.7655 53.8609C35.7919 53.7245 35.8051 53.5969 35.8139 53.4605C35.8271 53.3726 35.8403 53.2846 35.8491 53.1966C35.8755 52.9458 35.8975 52.6687 35.9107 52.3959V51.5908C35.8975 51.2521 35.8711 50.9133 35.8359 50.5614C35.8227 50.359 35.7963 50.1611 35.7611 49.9719V49.9807Z" fill="white"/>
<path d="M27.8077 28.4415C25.9028 29.5061 23.8791 30.2584 21.8862 31.1031L15.89 33.5227L9.90696 35.9555C9.44503 36.1931 8.93031 36.3822 8.50358 36.6814C8.09005 36.9937 7.65012 37.2841 7.27618 37.6228C6.55029 38.3619 5.96079 39.255 5.60884 40.2448C4.86976 42.2025 5.01934 44.4726 5.96079 46.3687C6.65148 47.8116 7.80409 49.0038 9.15908 49.8705C9.34825 49.9849 9.53302 50.0949 9.73539 50.196C9.89816 50.284 10.0609 50.3588 10.2237 50.4336C10.2853 50.4732 10.3513 50.5084 10.4261 50.5348C10.4393 50.548 10.4657 50.5612 10.4745 50.5612C10.5141 50.5744 10.5493 50.5876 10.602 50.6008V46.3115C10.6152 46.0123 10.6592 45.7176 10.712 45.4272C10.7428 45.2776 10.7824 45.1324 10.822 44.9873C10.8704 44.8025 10.9232 44.6221 10.9892 44.4462C11.0068 44.3978 11.02 44.3494 11.042 44.301V44.2834C11.1168 44.0986 11.2223 43.9226 11.3147 43.7467C11.4071 43.5707 11.5039 43.3991 11.6139 43.2319C11.7283 43.0604 11.8514 42.8976 11.979 42.7436C12.0274 42.682 12.0714 42.616 12.1198 42.5589L12.133 42.5457C12.133 42.5457 12.1374 42.5369 12.1418 42.5325C12.1418 42.5325 12.1506 42.5237 12.1506 42.5193H12.1594C12.1594 42.5193 12.1638 42.5061 12.1682 42.5017C12.1682 42.5017 12.1726 42.4973 12.177 42.4929C12.4146 42.2333 12.6917 42.0089 12.9777 41.7934C13.1228 41.6834 13.2768 41.5778 13.4308 41.4766C13.7343 41.2875 14.0379 41.1027 14.3766 40.9663L14.3898 40.9531C15.4061 40.5528 29.3167 35.058 29.4574 34.9833C33.3728 33.1004 35.832 29.5149 35.832 25.5599V18.9126C35.6956 21.0815 34.5166 23.0259 33.0605 24.5833C31.5559 26.1627 29.7346 27.4165 27.8165 28.4459L27.8077 28.4415ZM10.5932 46.3027V46.2763C10.602 46.0475 10.6372 45.8275 10.6768 45.6032C10.6416 45.8363 10.602 46.0651 10.5932 46.3027ZM12.2738 42.3785C12.3926 42.2553 12.5157 42.1277 12.6389 42.0133C12.7181 41.9474 12.8149 41.899 12.8985 41.833C12.6785 42.0045 12.4674 42.1805 12.2738 42.3785ZM13.466 41.4414C13.5628 41.3798 13.642 41.3051 13.7431 41.2479C13.7431 41.2347 13.7563 41.2347 13.7563 41.2347C13.9543 41.1335 14.1567 41.0499 14.3678 40.9619C14.0467 41.0895 13.7563 41.2655 13.466 41.4414Z" fill="white"/>
<path d="M4.31219 21.1122C5.99272 19.5945 7.97681 18.5035 9.95649 17.5224C11.9626 16.5458 14.0083 15.6791 16.0539 14.852C20.1673 13.1847 24.3334 11.6801 28.2972 9.75765C30.2681 8.78981 32.1994 7.67678 33.6555 6.04464C35.1997 4.46529 35.8508 2.20405 35.9124 0.00880337V-0.00439453L7.3829 11.1786C2.94401 12.9339 0.0976562 16.7745 0.0976562 21.0375V31.8641C0.124052 30.144 0.300024 28.4151 0.775149 26.7346C1.35146 24.5657 2.63165 22.5948 4.31219 21.1122Z" fill="white"/>
<path d="M0.910668 44.0942C0.998654 44.3053 1.08664 44.5077 1.18782 44.7101C1.22742 44.7848 1.26261 44.8464 1.28901 44.9256C1.28901 44.9256 1.29341 44.93 1.30221 44.9388C1.30221 44.9388 1.3154 44.9652 1.3154 44.9784C1.3154 44.9784 1.3286 44.9784 1.3286 44.9916C1.42979 45.1676 1.54417 45.3436 1.65415 45.5195C1.68055 45.5679 1.70254 45.6075 1.72894 45.6427C1.81692 45.7703 1.89171 45.8803 1.9797 46.0079C1.9929 46.021 2.00609 46.0342 2.01929 46.0562C2.23046 46.3334 2.47242 46.6062 2.70998 46.8569C2.74958 46.8965 2.78477 46.9317 2.82436 46.9581C2.89915 47.0461 2.98714 47.1341 3.07512 47.2089C3.51505 47.6356 4.01657 48.0007 4.54449 48.3263C4.55769 48.3395 4.57089 48.3527 4.58408 48.3615C4.62368 48.3747 4.65887 48.4011 4.69847 48.4231C4.90084 48.5374 5.18679 48.7002 5.34956 48.7882L5.42435 48.8278L5.47274 48.8542C5.50794 48.8806 5.53433 48.8938 5.57393 48.9158C5.63552 48.9422 5.71031 48.9774 5.78949 49.017C5.85108 49.0434 5.93907 49.0786 6.01386 49.1182C6.08865 49.1446 6.17663 49.1797 6.26462 49.2061C6.30421 49.2193 6.3526 49.2457 6.401 49.2545C6.401 49.2545 6.48898 49.2809 6.63856 49.3293C6.68695 49.3425 6.73974 49.3689 6.78814 49.3777C6.87612 49.4041 6.96411 49.4393 7.07849 49.4657C7.14008 49.4921 7.21487 49.5141 7.28966 49.5405C7.36444 49.5669 7.45243 49.5889 7.54042 49.6153C7.91436 49.7429 8.39388 49.8924 8.9306 50.0684C9.10657 50.1168 9.29574 50.1828 9.49371 50.2444C9.5553 50.2708 9.63008 50.284 9.70487 50.306C9.84125 50.3544 9.98203 50.394 10.1316 50.4423C10.2196 50.4687 10.3208 50.5039 10.422 50.5303C8.47747 49.7781 6.70895 48.4099 5.67951 46.505C4.65007 44.5737 4.42571 42.1893 5.1516 40.082C5.50354 39.0262 6.09305 38.0495 6.88052 37.2488C7.29406 36.8705 7.76038 36.5581 8.19591 36.2062C8.65784 35.8939 9.17256 35.6915 9.65208 35.4275L15.6483 32.9419C19.6385 31.3098 23.7386 29.9064 27.5792 27.9971C29.4841 27.0292 31.3054 25.8502 32.81 24.3457C34.3146 22.8675 35.5816 20.9714 35.7971 18.8113L35.8103 18.0943L35.8235 18.4594V18.0723L5.91707 29.9064C5.78949 29.9548 5.65312 30.0208 5.51674 30.0824C5.46834 30.122 5.41555 30.144 5.35396 30.1704C5.22638 30.2451 5.09 30.3067 4.95363 30.3947C4.86564 30.4431 4.79085 30.4959 4.70287 30.5443C4.61488 30.5927 4.52689 30.6455 4.43891 30.7071C4.36412 30.7555 4.28933 30.8083 4.20135 30.8698C4.07817 30.9578 3.93739 31.059 3.80101 31.169C3.75262 31.1954 3.71302 31.2306 3.66463 31.2702C3.60304 31.3318 3.54145 31.3846 3.46226 31.433C3.43587 31.4593 3.41387 31.4813 3.38747 31.4945L3.34788 31.5341C3.30829 31.5737 3.27309 31.6089 3.2335 31.6485C3.17191 31.6969 3.11032 31.7629 3.04433 31.8245C2.99594 31.8729 2.94315 31.9125 2.89475 31.9609C2.80677 32.0489 2.73198 32.1236 2.65719 32.2116C2.5956 32.2732 2.54281 32.3392 2.48122 32.4008C2.45482 32.436 2.41963 32.4756 2.39323 32.5152C2.34484 32.5548 2.30525 32.6032 2.26565 32.6516C2.21726 32.7132 2.16447 32.7659 2.12927 32.8275C2.08968 32.8671 2.08088 32.8891 2.05449 32.9287C2.04129 32.9287 2.02809 32.9419 2.02809 32.9551C2.01489 32.9683 2.01489 32.9815 2.00169 32.9815C1.9665 33.0431 1.92691 33.0959 1.88731 33.1443L1.84772 33.1839V33.1971L1.83452 33.2103C1.80813 33.2587 1.77293 33.2983 1.73334 33.3467C1.70694 33.395 1.68494 33.4346 1.64535 33.483C1.58376 33.571 1.53097 33.6722 1.48258 33.7602C1.45618 33.7998 1.43418 33.8482 1.40779 33.8878C1.3682 33.9494 1.333 34.0109 1.28461 34.0901C1.23622 34.1913 1.17023 34.3013 1.12183 34.4157C1.09544 34.4641 1.07344 34.5169 1.03385 34.5653C1.00745 34.6268 0.985456 34.6796 0.95906 34.7412C0.932664 34.7896 0.910668 34.8556 0.884272 34.9172C0.857876 34.9656 0.835879 35.0316 0.809484 35.0932C0.783088 35.1548 0.761091 35.2076 0.734695 35.2691C0.7083 35.3307 0.686303 35.3967 0.673105 35.4583H0.659907C0.598317 35.6475 0.532328 35.8367 0.470737 36.0214C0.431144 36.149 0.395949 36.2854 0.356355 36.4218C0.343158 36.4834 0.316762 36.5581 0.307963 36.6241C0.299165 36.6901 0.281567 36.7605 0.259571 36.8353C0.246373 36.8969 0.233175 36.9717 0.219977 37.0509C0.145189 37.4028 0.0923973 37.7899 0.044005 38.2035C-0.0571789 39.1801 0.0572029 40.4471 0.219977 41.4546C0.347557 42.3564 0.571921 43.2495 0.910668 44.103V44.0942Z" fill="white"/>
<path d="M35.9123 0.26417C35.8991 2.38463 35.336 4.60628 33.8931 6.24722C32.4237 7.96734 30.4792 9.15955 28.5127 10.1846C24.549 12.2171 20.3696 13.7216 16.2959 15.4286C14.237 16.2424 12.1957 17.0827 10.2116 18.0373C8.22756 18.9788 6.29627 20.0566 4.64213 21.46C2.9748 22.8634 1.6946 24.7199 1.0655 26.8183C0.374812 28.9124 0.163646 31.1209 0.0976562 33.3293C0.159246 33.3425 0.273628 33.3425 0.300024 33.3293H0.313222C0.361614 33.0522 0.427604 32.8014 0.502392 32.5506C0.528787 32.4626 0.550784 32.3747 0.57718 32.2867C0.603575 32.2119 0.625572 32.1503 0.651968 32.0711C0.678364 31.9831 0.713558 31.9083 0.726756 31.8203C0.739954 31.8071 0.753152 31.7808 0.753152 31.772C0.836738 31.5476 0.937922 31.354 1.03031 31.1429C1.30746 30.5226 1.64621 29.9242 2.04655 29.3875C2.90001 28.2085 4.03943 27.2671 5.31962 26.5764C5.94872 26.2112 6.63501 25.9869 7.31251 25.7097L9.33178 24.9178L13.3967 23.3121L29.6037 16.9023V16.9155C30.3296 16.5504 31.0203 16.1236 31.6758 15.6485C32.3269 15.1602 32.9164 14.5927 33.4443 13.9812C34.509 12.7538 35.2876 11.2844 35.6792 9.70507C36.0663 8.11252 35.9035 6.48038 35.9299 4.86144L35.9167 0.255371L35.9123 0.26417Z" fill="white"/>
<path d="M35.8374 18.807L35.8242 18.4683V18.9082C35.8374 18.873 35.8374 18.8466 35.8374 18.807Z" fill="white"/>
</g>
<defs>
<clipPath id="clip0_18976_9393">
<rect width="136" height="73.4068" fill="white"/>
</clipPath>
</defs>
</svg>
