<svg viewBox="0 0 1266.6502 632" fill="none" xmlns="http://www.w3.org/2000/svg" xmlns:xlink="http://www.w3.org/1999/xlink" id="552de04a" x="0" y="0"><g id="Home" data-node-id="213:13980" clip-path="url(#clip0_213_13980)"><g id="Frame 1437256644" data-node-id="213:14193"><g id="Frame 1437256637" data-node-id="213:14194"><g id="Frame 1437256636" data-node-id="213:14195"><g id="Frame 1437256635" data-node-id="213:14196"><g id="Frame 1437256625" data-node-id="213:14197" clip-path="url(#clip6_213_13980)"><g id="Group 66" data-node-id="213:14199" opacity="0.19">
<path id="Vector_126" data-node-id="213:14200" d="M272.3922,79.9987c3.194,1.44 247.581,429.92 273.443,471.73l-67.322,0.14c-22.869,0.25 -45.741,0.14 -68.606,-0.33c-8.754,-11.33 -17.195,-27.61 -24.416,-40.33c-11.336,-20.13 -22.824,-40.17 -34.464,-60.12c-47.984,-83 -96.543,-170.78 -146.192,-252.22c16.836,-35.5 48.73,-80.81 67.557,-118.87z" fill="#D9CEA9"/>
<path id="Vector_127" data-node-id="213:14201" d="M91.1072,228.9987c32.122,0.31 64.246,0.35 96.369,0.12c5.931,13.76 16.722,31.31 24.457,44.53c14.232,24.04 28.321,48.16 42.266,72.36c-5.889,15 -17.597,33.98 -25.904,48.28l-40.541,69.55c-6.82,11.68 -13.712,23.35 -20.353,35.13c-3.808,6.75 -6.102,13.39 -10.543,19.89c6.014,1.58 56.881,0.48 66.186,0.4c6.667,9.25 8.793,12.55 13.109,23.02c9.306,0.62 47.797,-2.62 49.682,6.2c-7.739,5.53 -106.94,2.89 -123.815,2.91l-161.185,-0.2c9.424,-17.56 22.811,-39.1 33.044,-56.74l66.568,-115.18l41.33,-71.72c8.404,-14.55 18.176,-32.84 28.133,-46.02l-87.204,-0.4c-11.207,-0.08 -34.205,0.4 -44.675,-0.71l-1.137,-2.19c5.793,-8.15 31.913,-5.71 41.8,-5.57c4.352,-9.32 9.755,-12.88 12.413,-23.66z" fill="#C2B27B"/>
</g><g id="Element_4" data-node-id="213:14202" filter="url(#filter9_f_213_13980)">
<ellipse cx="300.527" cy="499.849" rx="300.527" ry="499.849" transform="matrix(-0.69105, 0.709539, 0.530222, 0.837381, 1004.0101999999999, -379.9972999999999)" fill="url(#paint20_radial_213_13980)" fill-opacity="0.5"/>
</g></g></g></g></g></g></g><defs><filter id="filter9_f_213_13980" x="542.6932" y="-399.9922999999999" width="1037.33" height="1303.59" filterUnits="userSpaceOnUse" color-interpolation-filters="sRGB">
<feFlood flood-opacity="0" result="BackgroundImageFix"/>
<feBlend mode="normal" in="SourceGraphic" in2="BackgroundImageFix" result="shape"/>
<feGaussianBlur stdDeviation="90.9722" result="effect1_foregroundBlur_213_13980"/>
</filter><radialGradient id="paint20_radial_213_13980" cx="0" cy="0" r="1" gradientTransform="matrix(-52.6412 -277.232 1149.63 305.152 330.784 504.903)" gradientUnits="userSpaceOnUse">
<stop stop-color="#B4A571"/>
<stop offset="1" stop-color="#F6F7F7"/>
</radialGradient><clipPath id="clip0_213_13980">
<rect width="1440" height="6053" fill="white" x="-173.3498" y="-1108.0013"/>
</clipPath><clipPath id="clip6_213_13980">
<rect width="1441" height="632" fill="white" transform="translate(-174.3498, -0.001299999999901047)"/>
</clipPath></defs></svg>