<?xml version="1.0" encoding="UTF-8"?>
<svg id="Layer_1" xmlns="http://www.w3.org/2000/svg" width="569.17" height="402.75" viewBox="284.39 105.47 569.17 402.75">
  <g id="Logo">
    <g id="_x32_">
      <path d="M569.06,105.48l-27.8,48.15,27.8,48.15,55.6,96.3h55.6l-111.2-192.61h0Z" fill="#414042"/>
      <path d="M572.87,294.33h-18.65l-5.34-9.25h-27.91l40.57-70.27-27.8-48.15h-38.77l-5.34,9.25h-14.94l-2.18,3.77h53.7l-68.36,118.4h52.42v.02h64.77l-2.18-3.77h0Z" fill="#c4b37b"/>
      <rect x="273.61" y="367.53" width="580.74" height="77.98" fill="none"/>
      <path d="M326.67,421.46l-3.92-9.92h-19.55l-3.71,9.92h-13.27l21.19-50.5h11.84l20.97,50.5h-13.55ZM313.12,384.44l-6.42,17.33h12.7l-6.28-17.33Z" fill="#414042"/>
      <path d="M376.32,421.46v-21.12h-19.69v21.12h-12.2v-50.5h12.2v19.12h19.69v-19.12h12.2v50.5h-12.2Z" fill="#414042"/>
      <path d="M444.73,421.46l.29-35.74h-.21l-13.13,35.74h-8.56l-12.77-35.74h-.21l.29,35.74h-11.48v-50.5h17.33l11.48,32.39h.29l10.99-32.39h17.62v50.5h-11.93Z" fill="#414042"/>
      <path d="M501.3,421.46l-3.92-9.92h-19.55l-3.71,9.92h-13.27l21.19-50.5h11.84l20.97,50.5h-13.55ZM487.75,384.44l-6.42,17.33h12.7l-6.28-17.33Z" fill="#414042"/>
      <path d="M537.9,421.46h-18.83v-50.5h18.26c14.34,0,28.89,5.99,28.89,25.11,0,17.76-14.41,25.4-28.32,25.4h0ZM537.04,381.37h-6.06v29.53h5.78c8.7,0,16.76-3.57,16.76-14.84s-8.06-14.69-16.48-14.69h0Z" fill="#414042"/>
      <path d="M625.07,421.46l-3.92-9.92h-19.55l-3.71,9.92h-13.27l21.19-50.5h11.84l20.97,50.5h-13.55ZM611.51,384.44l-6.42,17.33h12.7l-6.28-17.33Z" fill="#414042"/>
      <path d="M642.83,421.46v-50.5h12.27v39.88h19.55v10.63h-31.82Z" fill="#414042"/>
      <path d="M677.93,421.46v-10.56l24.04-29.6h-23.47v-10.34h38.73v9.77l-24.61,30.17h25.11v10.56h-39.8Z" fill="#414042"/>
      <path d="M725.65,421.46v-50.5h33.96v10.34h-22.19v9.49h20.97v9.77h-20.97v10.49h23.47v10.42h-35.24Z" fill="#414042"/>
      <path d="M768.95,421.46v-50.5h33.96v10.34h-22.19v9.49h20.97v9.77h-20.97v10.49h23.47v10.42h-35.24Z" fill="#414042"/>
      <path d="M839.29,421.46l-10.91-20.04h-4.14v20.04h-11.98v-50.5h19.26c9.7,0,19.33,3.71,19.33,15.27,0,6.78-4,11.63-10.49,13.62l13.2,21.61h-14.27ZM830.66,380.8h-6.49v11.77h5.78c3.92,0,8.85-1,8.85-6.13,0-4.71-4.49-5.64-8.13-5.64h-.01Z" fill="#414042"/>
      <rect x="281.81" y="450.5" width="578.44" height="95.99" fill="none"/>
      <path d="M284.4,451.83h5.82c2.98,0,6.29,1.08,6.29,5,0,2.04-1.38,3.73-3.45,4.2v.06c2.54.28,4.42,2.04,4.42,4.89,0,3.26-2.79,5.41-7.29,5.41h-5.8v-19.56ZM286.39,460.39h4c1.91,0,4.14-.83,4.14-3.42s-2.12-3.42-4.69-3.42h-3.45v6.85h0ZM286.39,469.66h3.7c2.87,0,5.38-1.08,5.38-3.81,0-2.57-1.85-3.84-5.02-3.84h-4.06v7.65h0Z" fill="#c4b37b"/>
      <path d="M306.32,464.09v-12.26h1.99v12.04c0,3.15,1.35,6.24,5.33,6.24s5.33-3.09,5.33-6.24v-12.04h1.99v12.26c0,3.26-1.46,7.78-7.31,7.78s-7.32-4.53-7.32-7.78h0Z" fill="#c4b37b"/>
      <path d="M339.98,454.98c-.83-1.19-2.18-1.96-4.03-1.96s-4.17,1.16-4.17,3.67,2.07,3.12,4.25,3.84c2.76.91,5.8,1.79,5.8,5.71s-3.28,5.63-6.38,5.63c-2.37,0-4.75-.97-6.16-2.9l1.71-1.27c.86,1.38,2.43,2.46,4.47,2.46s4.33-1.27,4.33-3.78c0-2.73-2.29-3.42-4.78-4.2-2.59-.8-5.25-1.93-5.25-5.47,0-3.78,3.37-5.38,6.24-5.38,2.62,0,4.58,1.1,5.52,2.37l-1.57,1.27h.02Z" fill="#c4b37b"/>
      <path d="M352.54,471.37h-1.99v-19.54h1.99v19.54Z" fill="#c4b37b"/>
      <path d="M376.06,468.48h.05v-16.64h1.99v19.54h-2.48l-11.37-16.81h-.06v16.81h-1.99v-19.54h2.48l11.37,16.64h.01Z" fill="#c4b37b"/>
      <path d="M389.76,469.61h10.46v1.77h-12.45v-19.54h12.12v1.77h-10.13v6.74h9.47v1.74h-9.47v7.54-.02Z" fill="#c4b37b"/>
      <path d="M418.06,454.98c-.83-1.19-2.18-1.96-4.03-1.96s-4.17,1.16-4.17,3.67,2.07,3.12,4.25,3.84c2.76.91,5.8,1.79,5.8,5.71s-3.29,5.63-6.38,5.63c-2.37,0-4.75-.97-6.16-2.9l1.71-1.27c.86,1.38,2.43,2.46,4.47,2.46s4.33-1.27,4.33-3.78c0-2.73-2.29-3.42-4.78-4.2-2.59-.8-5.24-1.93-5.24-5.47,0-3.78,3.37-5.38,6.24-5.38,2.62,0,4.58,1.1,5.52,2.37l-1.57,1.27h.01Z" fill="#c4b37b"/>
      <path d="M438.1,454.98c-.83-1.19-2.18-1.96-4.03-1.96s-4.17,1.16-4.17,3.67,2.07,3.12,4.25,3.84c2.76.91,5.8,1.79,5.8,5.71s-3.28,5.63-6.38,5.63c-2.37,0-4.75-.97-6.16-2.9l1.71-1.27c.86,1.38,2.43,2.46,4.47,2.46s4.33-1.27,4.33-3.78c0-2.73-2.29-3.42-4.78-4.2-2.59-.8-5.25-1.93-5.25-5.47,0-3.78,3.37-5.38,6.24-5.38,2.62,0,4.58,1.1,5.52,2.37l-1.57,1.27h.02Z" fill="#c4b37b"/>
      <path d="M460.06,451.83h6.49c4.89,0,10.27,3.26,10.27,9.77s-5.38,9.77-10.27,9.77h-6.49v-19.54h0ZM462.04,469.61h3.95c5.88,0,8.72-3.97,8.72-8s-2.84-8-8.72-8h-3.95v16.01h0Z" fill="#c4b37b"/>
      <path d="M487.42,469.61h10.46v1.77h-12.45v-19.54h12.12v1.77h-10.13v6.74h9.47v1.74h-9.47v7.54-.02Z" fill="#c4b37b"/>
      <path d="M512.24,468.81h.06l6.35-16.98h2.12l-7.48,19.54h-2.1l-7.45-19.54h2.15l6.35,16.98h0Z" fill="#c4b37b"/>
      <path d="M529.91,469.61h10.46v1.77h-12.45v-19.54h12.12v1.77h-10.13v6.74h9.47v1.74h-9.47v7.54-.02Z" fill="#c4b37b"/>
      <path d="M550.72,469.61h9.11v1.77h-11.1v-19.54h1.99v17.78h0Z" fill="#c4b37b"/>
      <path d="M575.6,471.87c-5.82,0-10.19-4.33-10.19-10.27s4.36-10.27,10.19-10.27,10.19,4.33,10.19,10.27-4.36,10.27-10.19,10.27ZM575.6,453.07c-5.02,0-8.09,3.97-8.09,8.53s3.06,8.5,8.09,8.5,8.09-3.95,8.09-8.5-3.06-8.53-8.09-8.53Z" fill="#c4b37b"/>
      <path d="M594.4,451.83h5.52c3.97,0,6.6,1.71,6.6,5.22s-2.68,5.25-6.65,5.25h-3.48v9.08h-1.99v-19.54h0ZM596.39,460.61h3.37c3.09,0,4.78-1.24,4.78-3.56s-1.77-3.51-4.78-3.51h-3.37v7.07Z" fill="#c4b37b"/>
      <path d="M624.55,468.01h.03l6.54-16.18h3.04v19.54h-1.99v-16.98h-.06l-7.07,16.98h-1.05l-7.07-16.98h-.05v16.98h-1.99v-19.54h3.04l6.62,16.18h.01Z" fill="#c4b37b"/>
      <path d="M645.81,469.61h10.46v1.77h-12.45v-19.54h12.12v1.77h-10.13v6.74h9.47v1.74h-9.47v7.54-.02Z" fill="#c4b37b"/>
      <path d="M678.5,468.48h.06v-16.64h1.99v19.54h-2.48l-11.37-16.81h-.05v16.81h-1.99v-19.54h2.48l11.37,16.64h-.01Z" fill="#c4b37b"/>
      <path d="M696.47,471.37h-1.99v-17.78h-6.54v-1.77h15.07v1.77h-6.54v17.78h0Z" fill="#c4b37b"/>
      <path d="M733.14,466.85l4.39,4.53h-2.76l-2.76-2.9c-1.6,2.21-3.37,3.23-6.02,3.23-3.34,0-6.1-1.9-6.1-5.41,0-2.95,1.96-4.67,4.53-5.8-1.19-1.21-2.37-2.76-2.37-4.55,0-2.93,2.18-4.61,4.86-4.61s4.72,1.6,4.72,4.39c0,2.57-2.21,4.06-4.39,5.13l4.55,4.69,2.71-4.75h2.24l-3.59,6.04h0ZM725.52,461.77c-2.35,1.05-3.59,2.46-3.59,4.55,0,2.21,1.85,3.73,4.09,3.73s3.42-.97,4.67-2.87l-5.16-5.41h-.01ZM726.93,452.96c-1.71,0-2.95,1.19-2.95,3.01,0,1.41,1.38,3.09,2.13,3.7,1.74-.8,3.59-1.93,3.59-3.95,0-1.6-1.19-2.76-2.76-2.76h-.01Z" fill="#c4b37b"/>
      <path d="M286.39,499.72h10.46v1.77h-12.45v-19.54h12.12v1.77h-10.13v6.74h9.47v1.74h-9.47v7.54-.02Z" fill="#c4b37b"/>
      <path d="M319.08,498.59h.05v-16.64h1.99v19.54h-2.48l-11.37-16.81h-.06v16.81h-1.99v-19.54h2.48l11.37,16.64h.01Z" fill="#c4b37b"/>
      <path d="M337.05,501.49h-1.99v-17.78h-6.54v-1.77h15.07v1.77h-6.54v17.78Z" fill="#c4b37b"/>
      <path d="M352.98,501.49h-1.99v-19.54h5.74c3.86,0,6.68,1.41,6.68,5.22,0,2.9-2.15,4.72-5,5.02l5.71,9.3h-2.43l-5.41-9.14h-3.31v9.14h.01ZM352.98,490.64h3.45c3.17,0,5-1.16,5-3.48,0-2.57-1.96-3.51-4.91-3.51h-3.53v6.98h-.01Z" fill="#c4b37b"/>
      <path d="M374,499.72h10.46v1.77h-12.45v-19.54h12.12v1.77h-10.13v6.74h9.47v1.74h-9.47v7.54-.02Z" fill="#c4b37b"/>
      <path d="M392.83,481.95h5.52c3.98,0,6.6,1.71,6.6,5.22s-2.68,5.25-6.65,5.25h-3.48v9.08h-1.99v-19.54h0ZM394.81,490.73h3.37c3.09,0,4.78-1.24,4.78-3.56s-1.77-3.51-4.78-3.51h-3.37v7.07Z" fill="#c4b37b"/>
      <path d="M415.3,501.49h-1.99v-19.54h5.74c3.87,0,6.68,1.41,6.68,5.22,0,2.9-2.15,4.72-5,5.02l5.71,9.3h-2.43l-5.41-9.14h-3.31v9.14h.01ZM415.3,490.64h3.45c3.17,0,5-1.16,5-3.48,0-2.57-1.96-3.51-4.91-3.51h-3.53v6.98h-.01Z" fill="#c4b37b"/>
      <path d="M436.31,499.72h10.46v1.77h-12.45v-19.54h12.12v1.77h-10.13v6.74h9.47v1.74h-9.47v7.54-.02Z" fill="#c4b37b"/>
      <path d="M469,498.59h.06v-16.64h1.99v19.54h-2.48l-11.37-16.81h-.05v16.81h-1.99v-19.54h2.48l11.37,16.64h-.01Z" fill="#c4b37b"/>
      <path d="M482.69,499.72h10.46v1.77h-12.45v-19.54h12.12v1.77h-10.13v6.74h9.47v1.74h-9.47v7.54-.02Z" fill="#c4b37b"/>
      <path d="M501.41,494.2v-12.26h1.99v12.04c0,3.15,1.35,6.24,5.33,6.24s5.33-3.09,5.33-6.24v-12.04h1.99v12.26c0,3.26-1.46,7.78-7.31,7.78s-7.31-4.53-7.31-7.78h-.02Z" fill="#c4b37b"/>
      <path d="M527.59,501.49h-1.99v-19.54h5.74c3.87,0,6.68,1.41,6.68,5.22,0,2.9-2.15,4.72-5,5.02l5.71,9.3h-2.43l-5.41-9.14h-3.31v9.14h0ZM527.59,490.64h3.45c3.17,0,5-1.16,5-3.48,0-2.57-1.96-3.51-4.91-3.51h-3.53v6.98h-.01Z" fill="#c4b37b"/>
      <path d="M556.08,485.09c-.83-1.19-2.18-1.96-4.03-1.96s-4.17,1.16-4.17,3.67,2.07,3.12,4.25,3.84c2.76.91,5.8,1.79,5.8,5.71s-3.29,5.63-6.38,5.63c-2.37,0-4.75-.97-6.16-2.9l1.71-1.27c.86,1.38,2.43,2.46,4.47,2.46s4.33-1.27,4.33-3.78c0-2.73-2.29-3.42-4.78-4.2-2.59-.8-5.24-1.93-5.24-5.47,0-3.78,3.37-5.38,6.24-5.38,2.62,0,4.58,1.1,5.52,2.37l-1.57,1.27h.01Z" fill="#c4b37b"/>
      <path d="M566.66,481.95h1.99v8.47h10.66v-8.47h1.99v19.54h-1.99v-9.25h-10.66v9.25h-1.99v-19.54Z" fill="#c4b37b"/>
      <path d="M592.94,501.49h-1.99v-19.54h1.99v19.54Z" fill="#c4b37b"/>
      <path d="M602.6,481.95h5.52c3.97,0,6.6,1.71,6.6,5.22s-2.68,5.25-6.65,5.25h-3.48v9.08h-1.99v-19.54h0ZM604.59,490.73h3.37c3.09,0,4.78-1.24,4.78-3.56s-1.77-3.51-4.78-3.51h-3.37v7.07Z" fill="#c4b37b"/>
      <path d="M650.92,498.34c-1.3,1.96-3.81,3.64-7.32,3.64-5.91,0-10.19-4.33-10.19-10.27s4.36-10.27,10.19-10.27c2.87,0,5.6,1.19,6.96,3.09l-1.66,1.21c-.83-1.27-2.79-2.57-5.27-2.57-5.05,0-8.12,3.97-8.12,8.53s3.09,8.53,8.12,8.53c2.24,0,4.39-.88,5.74-2.9l1.55.99v.02Z" fill="#c4b37b"/>
      <path d="M667.62,501.99c-5.82,0-10.19-4.33-10.19-10.27s4.36-10.27,10.19-10.27,10.19,4.33,10.19,10.27-4.36,10.27-10.19,10.27ZM667.62,483.19c-5.02,0-8.09,3.97-8.09,8.53s3.06,8.5,8.09,8.5,8.09-3.95,8.09-8.5-3.06-8.53-8.09-8.53Z" fill="#c4b37b"/>
      <path d="M700.28,498.59h.06v-16.64h1.99v19.54h-2.48l-11.37-16.81h-.05v16.81h-1.99v-19.54h2.48l11.37,16.64h-.01Z" fill="#c4b37b"/>
      <path d="M721.46,485.09c-.83-1.19-2.18-1.96-4.03-1.96s-4.17,1.16-4.17,3.67,2.07,3.12,4.25,3.84c2.76.91,5.8,1.79,5.8,5.71s-3.29,5.63-6.38,5.63c-2.37,0-4.75-.97-6.16-2.9l1.71-1.27c.86,1.38,2.43,2.46,4.47,2.46s4.33-1.27,4.33-3.78c0-2.73-2.29-3.42-4.78-4.2-2.59-.8-5.24-1.93-5.24-5.47,0-3.78,3.37-5.38,6.24-5.38,2.62,0,4.58,1.1,5.52,2.37l-1.57,1.27h.01Z" fill="#c4b37b"/>
      <path d="M731.93,494.2v-12.26h1.99v12.04c0,3.15,1.35,6.24,5.33,6.24s5.33-3.09,5.33-6.24v-12.04h1.99v12.26c0,3.26-1.46,7.78-7.31,7.78s-7.32-4.53-7.32-7.78h-.01Z" fill="#c4b37b"/>
      <path d="M758.1,499.72h9.11v1.77h-11.1v-19.54h1.99v17.78h0Z" fill="#c4b37b"/>
      <path d="M778.28,501.49h-1.99v-17.78h-6.54v-1.77h15.07v1.77h-6.54v17.78h0Z" fill="#c4b37b"/>
      <path d="M790.43,501.49h-2.18l8.45-19.54h1.93l8.39,19.54h-2.21l-2.15-5.13h-10.1l-2.13,5.13ZM793.3,494.54h8.61l-4.31-10.38-4.31,10.38h.01Z" fill="#c4b37b"/>
      <path d="M828.23,498.59h.05v-16.64h1.99v19.54h-2.48l-11.37-16.81h-.06v16.81h-1.99v-19.54h2.48l11.37,16.64h.01Z" fill="#c4b37b"/>
      <path d="M846.2,501.49h-1.99v-17.78h-6.54v-1.77h15.07v1.77h-6.54v17.78h0Z" fill="#c4b37b"/>
    </g>
  </g>
</svg>