<svg width="689" height="596" viewBox="0 0 689 596" fill="none" xmlns="http://www.w3.org/2000/svg">
<g clip-path="url(#clip0_223_15032)">
<path d="M29.0391 162.261L138.93 181.438L193.875 138.858L84.9597 119.681L29.0391 162.423V162.261Z" fill="#F2F2F2"/>
<path d="M465.512 450.731L574.427 469.908L629.372 427.328L520.457 408.151L465.512 450.731Z" fill="#F2F2F2"/>
<path d="M356.598 378.735L465.513 397.912L520.458 355.332L411.543 336.155L356.598 378.735Z" fill="#F2F2F2"/>
<path d="M247.682 306.577L356.597 325.754L411.542 283.174L302.627 263.997L247.682 306.577Z" fill="#F2F2F2"/>
<path d="M139.092 234.256L247.844 253.433L302.79 210.853L193.874 191.676L139.092 234.419V234.256Z" fill="#F2F2F2"/>
<path d="M138.93 181.438L193.875 138.858V191.839L138.93 234.581V181.438Z" fill="#CCCCCC"/>
<path d="M247.682 253.433L302.627 210.854V263.835L247.682 306.739V253.433Z" fill="#CCCCCC"/>
<path d="M356.598 325.754L411.543 283.174V335.993L356.598 378.573V325.754Z" fill="#CCCCCC"/>
<path d="M465.512 397.912L520.457 355.333V408.151L465.512 450.731V397.912Z" fill="#CCCCCC"/>
<path d="M574.428 469.908L629.048 427.328V550.355L574.428 592.934V469.908Z" fill="#CCCCCC"/>
<path d="M15.627 488.796L29.6195 491.599L30.9211 491.911L575 593V470.416L465.989 451.257V398.454L356.815 379.296V326.492L247.642 307.334V254.375L138.631 235.216V182.413L28.4806 163.255L27.9925 107.959L14 105L15.7897 488.484L15.627 488.796Z" fill="#E6E6E6"/>
<path d="M10.6701 113.993L-3.47266 110.417L44.9702 7.54297L57.975 8.35556L10.6701 113.993Z" fill="#F2F2F2"/>
<path d="M98.453 47.6849L84.6354 58.0861V120.006L29.3651 162.26L27.902 100.991L9.69531 114.48L57.8131 8.35547L98.453 47.6849Z" fill="#CCCCCC"/>
<path d="M30.5352 162.748L140.426 181.925V512.163L30.5352 491.686V162.748Z" fill="#C4B37B"/>
<path d="M465.188 451.218L574.103 470.395V593.422L465.188 573.107V451.218Z" fill="#F6F4EB"/>
<path d="M356.271 378.085L465.187 397.262V571.97L356.271 551.655V378.085Z" fill="#F0ECDE"/>
<path d="M247.26 306.252L356.175 325.429V551.817L247.91 531.665L247.26 306.252Z" fill="#E4DDC4"/>
<path d="M139.711 234.256L248.464 253.434L249.114 531.99L139.711 511.513V234.256Z" fill="#D9CEA9"/>
<path d="M124.136 143.652C123.551 144.627 122.088 145.814 119.942 147.049C117.796 148.284 115.748 149.178 113.375 150.023C111.001 150.868 108.514 151.502 106.108 151.794C103.507 152.233 101.15 152.347 98.4681 152.412C95.7859 152.477 93.3637 152.217 90.9253 151.957C88.5357 151.518 86.4712 151.16 84.9756 150.527C83.4801 149.893 82.4885 149.178 82.0333 148.365C81.5781 147.552 81.8382 146.512 82.4072 145.537C83.1875 144.416 84.618 143.408 86.6012 142.141C88.747 140.905 90.7953 140.012 93.1686 139.167C95.542 138.321 98.0292 137.688 100.435 137.395C103.036 136.956 105.604 136.696 108.075 136.777C110.758 136.712 113.18 136.973 115.764 137.265C118.154 137.704 120.219 138.061 121.714 138.695C123.21 139.329 124.201 140.044 124.657 140.857C125.112 141.669 124.852 142.709 124.283 143.685L124.12 143.652H124.136ZM102.678 148.284C105.003 147.617 107.23 146.756 109.571 145.375C111.912 143.993 113.017 142.921 113.245 142.059C113.472 141.198 112.643 140.499 110.53 140.304C108.628 139.963 106.58 140.142 104.093 140.775C101.768 141.442 99.541 142.303 97.2001 143.685C94.8593 145.066 93.7539 146.139 93.5263 147C93.2987 147.861 94.1278 148.56 96.0785 148.723C97.9804 149.064 100.191 148.918 102.516 148.251L102.678 148.284Z" fill="#585137"/>
<path d="M162.225 144.383C162.176 144.562 161.932 144.871 161.851 145.212C161.607 145.537 161.201 145.813 160.795 146.106C159.982 146.691 158.746 147 157.69 147.178C156.487 147.325 155.495 147.325 154.373 147.13C149.757 146.301 147.335 146.041 142.507 145.358C140.978 146.171 140.198 146.577 138.313 147.487C139.109 147.634 140.101 147.634 141.109 147.634C141.905 147.78 142.864 147.942 144.327 148.04C146.392 148.414 148.147 148.722 149.172 149.275C150.407 149.681 151.057 150.348 151.447 150.77C151.789 151.371 151.659 151.892 151.334 152.558C150.846 153.192 150.196 153.793 149.009 154.492C148.001 155.207 146.701 155.711 145.108 156.133C143.661 156.588 141.743 156.978 139.645 157.32C137.76 157.515 135.565 157.661 133.257 157.612C130.949 157.563 128.315 157.45 125.6 156.962L120.675 156.068C119.244 155.808 118.171 155.434 117.472 154.947C116.562 154.606 116.334 154.199 116.107 153.793C116.042 153.419 116.318 152.932 117.098 152.525C117.7 152.087 118.789 151.745 119.992 151.599C121.032 151.42 122.235 151.274 123.389 151.306C124.105 151.794 124.804 152.282 125.877 152.655C126.95 153.029 128.331 153.468 130.25 153.809C132.168 154.151 133.988 154.118 135.191 153.972C136.394 153.825 137.63 153.517 138.443 152.932C139.044 152.493 139.499 152.038 139.272 151.631C139.044 151.225 138.134 150.884 136.183 150.705C135.061 150.51 134.281 150.364 133.078 150.51C132.282 150.364 131.079 150.51 129.924 150.478C128.022 150.136 126.624 149.698 126.283 149.096C125.568 148.609 126.283 147.829 127.437 147.13L127.632 146.983L128.234 146.545C130.9 145.212 132.233 144.546 134.899 143.229C136.232 142.563 137.679 142.108 139.239 141.848C140.962 141.62 142.637 141.555 144.392 141.88C151.431 142.969 155.137 143.457 162.176 144.546L162.225 144.367V144.383Z" fill="#585137"/>
<path d="M255.128 227.268C256.087 227.089 256.997 226.732 257.696 226.163L258.493 225.253C258.753 224.944 258.541 224.733 258.493 224.554C256.412 224.164 255.371 223.969 253.177 223.741C256.119 221.287 257.696 220.166 260.638 217.728C261.029 217.273 261.305 216.964 261.386 216.639C261.305 216.265 261.094 216.054 260.525 215.778C259.826 215.648 259.403 215.209 258.72 215.079L256.119 214.591C255.42 214.461 254.396 214.266 253.388 214.25C252.348 214.055 251.356 214.039 250.527 214.071C241.18 216.022 236.563 216.932 227.216 218.882C226.436 219.093 225.655 219.288 225.087 219.711C224.469 219.954 223.9 220.377 223.64 220.67C223.103 221.271 222.713 221.726 222.973 222.132C223.233 222.539 223.656 222.961 224.388 223.286C230.402 224.229 233.475 224.635 239.457 225.399C238.92 226 238.628 226.13 237.913 226.699L237.116 227.609C236.986 227.755 237.376 228.015 237.587 228.227C237.929 228.292 238.319 228.535 239.018 228.665L241.261 229.088C241.96 229.218 242.822 229.381 243.813 229.397C244.675 229.559 245.504 229.543 245.845 229.608C247.113 228.617 247.812 228.032 249.227 226.878L251.99 227.398C253.031 227.593 254.022 227.609 254.981 227.43L255.111 227.284L255.128 227.268ZM235.393 221.287C240.741 219.987 243.44 219.434 248.788 218.151C246.674 219.873 245.537 220.718 243.44 222.441C240.318 221.856 238.644 221.726 235.214 221.255L235.393 221.287Z" fill="#585137"/>
<path d="M222.259 218.118C223.657 216.964 224.583 215.908 224.86 214.9C225.136 213.893 224.925 212.966 224.421 212.17C223.738 211.341 222.584 210.593 220.975 210.106C219.512 209.472 217.431 209.082 215.187 208.676C212.944 208.269 210.424 208.139 208.132 208.237C205.661 208.302 203.532 208.432 201.321 208.903C199.11 209.375 197.062 209.878 195.095 210.74C193.258 211.455 191.519 212.544 190.105 213.698C188.69 214.851 187.78 215.908 187.325 216.883C187.048 217.891 187.081 218.784 187.764 219.613C188.446 220.442 189.601 221.19 191.21 221.677C192.673 222.311 194.754 222.701 197.176 223.14C199.419 223.562 201.76 223.644 204.231 223.579C206.702 223.514 208.831 223.384 211.042 222.912C213.253 222.441 215.301 221.937 217.268 221.076C219.105 220.361 220.845 219.272 222.421 218.151L222.243 218.118H222.259ZM200.931 219.955C199.208 219.629 198.086 219.061 198.054 218.183C198.021 217.289 198.769 216.2 200.313 214.9C201.858 213.6 203.646 212.69 205.645 212.007C207.515 211.471 209.465 211.309 211.335 211.487C213.237 211.845 214.18 212.381 214.342 213.112C214.375 214.006 213.627 215.095 212.083 216.395C210.538 217.696 208.75 218.606 206.751 219.288C204.881 219.825 202.93 219.987 201.061 219.808L200.931 219.955Z" fill="#585137"/>
<path d="M362.319 299.215L363.668 297.931C363.977 297.476 363.831 297.118 363.701 296.761C363.571 296.403 363.132 296.143 362.839 295.77C362.4 295.526 361.831 295.249 361.246 294.973C362.855 294.924 364.611 294.729 366.237 294.356C367.862 293.982 369.325 293.397 370.219 292.714C371.861 291.495 372.024 290.341 370.739 289.269C369.439 288.196 366.692 287.351 362.319 286.734C359.116 286.148 356.044 286.116 353.703 286.197C351.216 286.262 349.444 286.782 348.55 287.465C348.095 287.887 347.802 288.18 347.949 288.537C347.949 288.879 348.225 289.09 348.518 289.48C349.542 289.334 350.712 289.366 352.175 289.301C353.492 289.366 354.955 289.464 356.711 289.61C358.466 289.919 359.62 290.13 360.059 290.553C360.498 290.975 360.628 291.333 360.027 291.723C358.986 292.552 356.922 292.86 354.305 292.373C352.273 291.999 351.249 291.82 348.908 291.577C348.469 291.658 347.884 291.902 347.282 292.129C346.697 292.357 346.242 292.617 345.803 293.039L344.909 293.884C344.616 294.161 344.746 294.356 344.746 294.534C346.778 294.908 347.802 295.087 350.143 295.331C351.899 295.64 353.053 295.851 353.492 296.273C353.931 296.696 353.768 297.005 353.313 297.427C352.858 297.85 351.834 298.175 350.517 298.272C349.2 298.37 347.591 298.419 345.689 298.077C343.657 297.704 342.194 297.443 341.17 297.102C340.146 296.761 339.577 296.306 338.992 296.03C338.114 296.03 337.09 296.192 336.195 296.533C335.318 296.712 334.57 297.086 333.985 297.492C333.091 298.175 333.221 298.874 334.667 299.638C336.114 300.401 338.731 301.051 342.665 301.588C344.697 301.962 346.746 301.994 348.648 302.157C350.696 302.189 352.451 302.157 354.207 301.978C355.963 301.783 357.588 301.409 359.051 301.003C360.531 300.596 361.701 299.963 362.449 299.426L362.303 299.231H362.319V299.215ZM337.463 292.032C339.105 290.813 340.146 289.643 340.617 288.716C341.219 287.644 341.105 286.782 340.536 286.002C339.967 285.222 338.959 284.54 337.512 283.938C336.065 283.337 334.326 282.849 331.985 282.606C329.807 282.216 327.466 282.134 325.125 282.216C322.784 282.297 320.443 282.557 318.379 283.028C316.168 283.467 314.12 284.117 312.039 284.93C310.121 285.758 308.203 286.766 306.561 288.001C304.919 289.236 303.879 290.39 303.407 291.317C302.806 292.389 302.919 293.251 303.488 294.031C304.057 294.811 305.065 295.493 306.512 296.095C307.959 296.696 309.698 297.183 312.039 297.427C314.217 297.817 316.412 297.882 318.753 297.801C321.094 297.72 323.435 297.46 325.645 297.021C327.856 296.582 329.904 295.932 331.985 295.119C334.066 294.307 335.822 293.283 337.463 292.048V292.032ZM316.347 294.144C314.591 293.836 313.73 293.332 313.746 292.487C313.762 291.642 314.819 290.488 316.607 289.123C318.395 287.757 320.313 286.75 322.378 286.116C324.296 285.45 326.198 285.287 327.954 285.596C329.709 285.905 330.571 286.408 330.555 287.254C330.538 288.099 329.628 289.285 327.694 290.618C325.905 291.983 323.987 292.99 321.923 293.624C319.858 294.258 318.103 294.453 316.347 294.144Z" fill="#585137"/>
<path d="M440.397 366.644C441.682 365.246 442.527 363.946 442.69 362.873C442.95 361.638 442.527 360.647 441.844 359.786C440.999 358.892 439.877 358.128 438.17 357.445C436.464 356.763 434.497 356.194 432.156 355.934C429.766 355.479 427.474 355.414 425.068 355.511C422.678 355.609 420.484 355.918 418.354 356.438C416.225 356.958 414.307 357.673 412.437 358.599C410.568 359.526 409.088 360.696 407.804 362.11C406.52 363.523 405.675 364.807 405.512 365.88C405.252 367.115 405.512 368.074 406.26 369.13C407.105 370.024 408.227 370.788 409.934 371.471C411.641 372.153 413.608 372.722 415.948 372.982C418.192 373.405 420.63 373.502 423.036 373.405C425.426 373.307 427.62 372.998 429.75 372.478C431.879 371.958 433.798 371.243 435.667 370.317C437.536 369.39 439.016 368.22 440.462 366.839L440.414 366.644H440.397ZM419.313 369.228C417.395 368.87 416.339 368.302 416.225 367.359C415.965 366.4 416.647 365.067 418.192 363.54C419.736 362.012 421.394 360.858 423.15 360.094C424.906 359.33 426.824 359.152 428.742 359.509C430.66 359.867 431.717 360.436 431.993 361.394C432.269 362.353 431.57 363.686 430.026 365.214C428.482 366.741 426.824 367.895 424.922 368.627C423.004 369.358 421.085 369.537 419.232 369.374L419.346 369.212H419.313V369.228Z" fill="#585137"/>
<path d="M465.318 377.386L465.952 376.411C466.163 376.086 465.952 375.859 466 375.501C460.034 374.737 457.157 374.185 451.354 373.453C455.564 372.787 457.742 372.478 462.115 371.844C468.504 370.869 472.649 369.455 474.421 367.603C475.006 366.985 475.38 366.14 475.218 365.571C475.169 364.824 474.681 364.19 473.787 363.653C472.991 362.955 471.658 362.516 470.276 361.898C468.618 361.411 466.813 360.874 464.359 360.777C461.01 360.143 458.133 360.143 455.727 360.241C453.321 360.338 451.679 360.939 450.72 361.85C450.395 362.337 450.183 362.662 450.297 363.052C450.411 363.442 450.671 363.848 451.208 364.141C452.378 363.995 453.711 363.881 455.093 363.962C456.588 363.881 458.133 363.995 459.726 364.287C461.156 364.564 462.278 364.775 463.026 365.279C463.773 365.782 463.871 366.173 463.4 366.628C463.286 366.79 462.928 367.083 462.489 367.18C462.229 367.31 461.53 367.554 460.831 367.781C460.132 368.009 459.287 368.22 458.279 368.399C457.271 368.578 455.987 368.87 454.556 369.147C449.923 369.91 447.631 370.398 442.998 371.162C441.99 371.341 441.129 371.536 440.17 371.909C439.211 372.283 438.414 372.673 437.829 373.291C437.406 373.941 437.081 374.428 437.195 374.818C437.195 375.371 437.617 375.81 438.316 376.119C446.835 377.37 451.094 377.988 459.449 379.206C460.408 379.385 461.465 379.401 462.327 379.206C463.188 379.011 463.985 378.605 464.57 377.988L465.318 377.403V377.386Z" fill="#585137"/>
<path d="M585.628 434.95C586.327 434.154 586.555 433.439 586.018 432.756C585.482 432.073 584.181 431.618 582.442 431.245L580.052 430.741C576.768 430.627 574.899 430.611 571.615 430.497C568.023 430.318 565.438 430.92 564.3 432.008C563.747 432.658 563.325 433.13 563.682 433.585C564.04 434.04 564.235 434.462 564.739 434.755C567.698 434.804 569.274 434.934 572.233 434.983C567.828 438.997 565.584 441.174 561.179 445.189C560.756 445.676 560.48 445.985 560.366 446.343C560.252 446.7 560.594 446.96 560.919 447.22C561.39 447.318 561.748 447.773 562.398 447.903L564.95 448.439C565.909 448.634 566.852 448.829 567.958 448.878C568.917 449.073 569.681 449.057 570.168 449.154C576.411 443.433 579.386 440.638 585.628 434.934V434.95Z" fill="#585137"/>
<path d="M556.253 436.787C557.813 435.405 558.61 434.056 558.935 432.789C559.276 431.537 559.146 430.367 558.268 429.424C557.537 428.319 556.35 427.507 554.562 426.759C552.774 426.012 550.677 425.378 548.287 424.89C545.735 424.354 543.069 424.191 540.598 424.24C537.948 424.256 535.494 424.5 533.202 424.971C530.91 425.443 528.65 426.109 526.732 427.035C524.651 427.929 522.895 429.083 521.497 430.497C519.937 431.879 519.14 433.227 518.653 434.463C518.311 435.714 518.441 436.884 519.319 437.827C520.051 438.932 521.237 439.744 523.025 440.492C524.814 441.24 526.911 441.873 529.593 442.247C532.145 442.784 534.648 442.914 537.282 442.897C539.915 442.881 542.386 442.637 544.678 442.166C546.97 441.695 549.23 441.028 551.311 440.134C553.392 439.241 555.147 438.087 556.545 436.673L556.253 436.803V436.787ZM533.12 438.802C531.056 438.363 529.902 437.745 529.934 436.624C529.967 435.486 530.617 434.3 532.47 432.594C534.177 431.05 536.079 429.928 538.03 429.197C540.127 428.498 542.142 428.352 544.044 428.742C546.109 429.181 547.263 429.798 547.393 430.952C547.653 431.96 546.873 433.309 545.02 435.015C543.313 436.559 541.281 437.843 539.314 438.379C537.217 439.078 535.201 439.224 533.137 438.802H533.12Z" fill="#585137"/>
<path d="M499.477 515.104C497.45 515.104 495.87 514.644 494.737 513.724C493.617 512.817 493.057 511.544 493.057 509.904C493.057 509.304 493.137 508.644 493.297 507.924C493.47 507.204 493.704 506.497 493.997 505.804L495.517 506.264C495.264 506.81 495.057 507.37 494.897 507.944C494.737 508.517 494.657 509.037 494.657 509.504C494.657 510.517 495.024 511.297 495.757 511.844C496.49 512.404 497.504 512.684 498.797 512.684H500.177C501.71 512.684 502.904 512.41 503.757 511.864C504.624 511.33 505.057 510.584 505.057 509.624L501.917 508.984C500.73 508.744 499.844 508.357 499.257 507.824C498.684 507.29 498.397 506.57 498.397 505.664C498.397 505.01 498.517 504.364 498.757 503.724C499.01 503.07 499.35 502.49 499.777 501.984C500.217 501.464 500.724 501.044 501.297 500.724C501.87 500.404 502.477 500.244 503.117 500.244C503.877 500.244 504.537 500.43 505.097 500.804C505.657 501.164 506.117 501.67 506.477 502.324L504.877 503.804C504.624 503.404 504.324 503.09 503.977 502.864C503.644 502.624 503.237 502.504 502.757 502.504C502.397 502.504 502.05 502.577 501.717 502.724C501.384 502.87 501.09 503.07 500.837 503.324C500.584 503.564 500.384 503.85 500.237 504.184C500.09 504.504 500.017 504.844 500.017 505.204C500.017 505.59 500.19 505.91 500.537 506.164C500.884 506.404 501.424 506.597 502.157 506.744L504.777 507.284C505.457 507.43 505.944 507.69 506.237 508.064C506.53 508.424 506.677 508.944 506.677 509.624C506.677 510.49 506.51 511.264 506.177 511.944C505.857 512.624 505.384 513.197 504.757 513.664C504.144 514.13 503.39 514.484 502.497 514.724C501.617 514.977 500.61 515.104 499.477 515.104ZM507.937 512.844H509.097C510.497 512.844 511.59 512.617 512.377 512.164C513.164 511.724 513.684 511.104 513.937 510.304H511.537C510.457 510.304 509.617 510.01 509.017 509.424C508.43 508.837 508.137 508.004 508.137 506.924C508.137 506.284 508.23 505.684 508.417 505.124C508.617 504.564 508.884 504.084 509.217 503.684C509.564 503.27 509.97 502.944 510.437 502.704C510.904 502.464 511.417 502.344 511.977 502.344C513.15 502.344 514.064 502.844 514.717 503.844C515.384 504.844 515.73 506.244 515.757 508.044H516.697V509.824L516.217 510.304H515.537C515.204 511.837 514.504 513.017 513.437 513.844C512.384 514.684 510.964 515.104 509.177 515.104H507.937V512.844ZM509.797 506.644C509.797 507.137 509.95 507.497 510.257 507.724C510.564 507.937 511.017 508.044 511.617 508.044H514.097V507.664C514.097 506.744 513.884 506.01 513.457 505.464C513.03 504.904 512.477 504.624 511.797 504.624C511.184 504.624 510.697 504.81 510.337 505.184C509.977 505.557 509.797 506.044 509.797 506.644ZM516.211 508.524L516.691 508.044H517.351C518.458 508.044 519.011 507.517 519.011 506.464V503.424H520.751V506.464C520.751 507.517 521.271 508.044 522.311 508.044H523.071V509.824L522.571 510.304C521.585 510.304 520.818 510.124 520.271 509.764C519.738 509.39 519.385 508.81 519.211 508.024H519.091C518.931 508.85 518.631 509.437 518.191 509.784C517.765 510.13 517.105 510.304 516.211 510.304V508.524ZM521.091 501.384C520.785 501.384 520.538 501.29 520.351 501.104C520.178 500.917 520.091 500.63 520.091 500.244C520.091 499.844 520.178 499.557 520.351 499.384C520.538 499.197 520.785 499.104 521.091 499.104H521.391C521.698 499.104 521.945 499.197 522.131 499.384C522.318 499.557 522.411 499.844 522.411 500.244C522.411 500.63 522.318 500.917 522.131 501.104C521.945 501.29 521.698 501.384 521.391 501.384H521.091ZM518.271 501.384C517.965 501.384 517.718 501.29 517.531 501.104C517.358 500.917 517.271 500.63 517.271 500.244C517.271 499.844 517.358 499.557 517.531 499.384C517.718 499.197 517.965 499.104 518.271 499.104H518.571C518.878 499.104 519.125 499.197 519.311 499.384C519.498 499.557 519.591 499.844 519.591 500.244C519.591 500.63 519.498 500.917 519.311 501.104C519.125 501.29 518.878 501.384 518.571 501.384H518.271ZM522.598 508.524L523.078 508.044H524.058C524.711 508.044 525.311 508.03 525.858 508.004C526.405 507.977 526.938 507.917 527.458 507.824C527.978 507.717 528.511 507.57 529.058 507.384C529.605 507.184 530.211 506.924 530.878 506.604L532.258 505.944V505.844L529.178 505.184L525.518 504.284V505.904H523.738V504.364C523.738 503.644 523.911 503.11 524.258 502.764C524.618 502.404 525.118 502.224 525.758 502.224C525.931 502.224 526.131 502.244 526.358 502.284C526.598 502.324 526.978 502.41 527.498 502.544L531.938 503.684C533.218 504.017 534.318 504.184 535.238 504.184H535.598V506.444H534.138V506.544C534.138 507.104 534.265 507.497 534.518 507.724C534.771 507.937 535.185 508.044 535.758 508.044H536.418V509.824L535.938 510.304C534.831 510.304 534.011 510.077 533.478 509.624C532.958 509.157 532.665 508.404 532.598 507.364L531.578 508.004C530.725 508.537 529.965 508.957 529.298 509.264C528.645 509.57 528.031 509.804 527.458 509.964C526.885 510.11 526.325 510.204 525.778 510.244C525.245 510.284 524.671 510.304 524.058 510.304H522.598V508.524ZM538.678 509.164C538.371 509.577 538.005 509.87 537.578 510.044C537.151 510.217 536.605 510.304 535.938 510.304V508.524L536.418 508.044C536.925 508.044 537.291 507.937 537.518 507.724C537.758 507.497 537.978 507.117 538.178 506.584L538.738 505.144C539.058 504.317 539.478 503.657 539.998 503.164C540.531 502.657 541.245 502.404 542.138 502.404C543.231 502.404 544.071 502.87 544.658 503.804C545.245 504.724 545.538 506.017 545.538 507.684V508.464L544.038 510.664L538.678 509.164ZM539.618 507.064L543.818 508.244V507.684C543.818 506.737 543.638 505.997 543.278 505.464C542.918 504.93 542.418 504.664 541.778 504.664C541.311 504.664 540.931 504.804 540.638 505.084C540.358 505.35 540.125 505.724 539.938 506.204L539.618 507.064ZM504.584 544.104C502.558 544.104 500.978 543.644 499.844 542.724C498.724 541.817 498.164 540.544 498.164 538.904C498.164 538.304 498.244 537.644 498.404 536.924C498.578 536.204 498.811 535.497 499.104 534.804L500.624 535.264C500.371 535.81 500.164 536.37 500.004 536.944C499.844 537.517 499.764 538.037 499.764 538.504C499.764 539.517 500.131 540.297 500.864 540.844C501.598 541.404 502.611 541.684 503.904 541.684H505.284C506.031 541.684 506.698 541.617 507.284 541.484C507.884 541.364 508.391 541.19 508.804 540.964C509.231 540.75 509.558 540.497 509.784 540.204C510.011 539.924 510.138 539.624 510.164 539.304L505.564 538.404V536.264H506.544C507.371 536.264 507.958 536.157 508.304 535.944C508.651 535.717 508.824 535.304 508.824 534.704C508.824 534.477 508.804 534.19 508.764 533.844C508.738 533.497 508.671 533.037 508.564 532.464L508.264 530.724L510.004 530.444L510.264 532.184C510.424 533.25 510.504 534.09 510.504 534.704C510.504 535.73 510.131 536.49 509.384 536.984V537.084L510.184 537.304C511.251 537.57 511.784 538.21 511.784 539.224C511.784 539.944 511.618 540.597 511.284 541.184C510.964 541.784 510.491 542.297 509.864 542.724C509.251 543.164 508.498 543.504 507.604 543.744C506.724 543.984 505.718 544.104 504.584 544.104ZM505.844 548.244C505.538 548.244 505.291 548.15 505.104 547.964C504.931 547.777 504.844 547.49 504.844 547.104C504.844 546.704 504.931 546.41 505.104 546.224C505.291 546.05 505.538 545.964 505.844 545.964H506.144C506.451 545.964 506.698 546.05 506.884 546.224C507.071 546.41 507.164 546.704 507.164 547.104C507.164 547.49 507.071 547.777 506.884 547.964C506.698 548.15 506.451 548.244 506.144 548.244H505.844ZM503.024 548.244C502.718 548.244 502.471 548.15 502.284 547.964C502.111 547.777 502.024 547.49 502.024 547.104C502.024 546.704 502.111 546.41 502.284 546.224C502.471 546.05 502.718 545.964 503.024 545.964H503.324C503.631 545.964 503.878 546.05 504.064 546.224C504.251 546.41 504.344 546.704 504.344 547.104C504.344 547.49 504.251 547.777 504.064 547.964C503.878 548.15 503.631 548.244 503.324 548.244H503.024ZM508.804 528.424C508.498 528.424 508.251 528.33 508.064 528.144C507.891 527.957 507.804 527.67 507.804 527.284C507.804 526.884 507.891 526.597 508.064 526.424C508.251 526.237 508.498 526.144 508.804 526.144H509.104C509.411 526.144 509.658 526.237 509.844 526.424C510.031 526.597 510.124 526.884 510.124 527.284C510.124 527.67 510.031 527.957 509.844 528.144C509.658 528.33 509.411 528.424 509.104 528.424H508.804ZM517.445 539.304C516.138 539.304 515.198 539.037 514.625 538.504C514.051 537.957 513.765 537.05 513.765 535.784V524.504H515.625V535.604C515.625 536.164 515.751 536.544 516.005 536.744C516.271 536.944 516.705 537.044 517.305 537.044H517.965V538.824L517.465 539.304H517.445ZM517.491 537.524L517.971 537.044H518.951C519.604 537.044 520.204 537.03 520.751 537.004C521.297 536.977 521.831 536.917 522.351 536.824C522.871 536.717 523.404 536.57 523.951 536.384C524.497 536.184 525.104 535.924 525.771 535.604L527.151 534.944V534.844L524.071 534.184L520.411 533.284V534.904H518.631V533.364C518.631 532.644 518.804 532.11 519.151 531.764C519.511 531.404 520.011 531.224 520.651 531.224C520.824 531.224 521.024 531.244 521.251 531.284C521.491 531.324 521.871 531.41 522.391 531.544L526.831 532.684C528.111 533.017 529.211 533.184 530.131 533.184H530.491V535.444H529.031V535.544C529.031 536.104 529.157 536.497 529.411 536.724C529.664 536.937 530.077 537.044 530.651 537.044H531.311V538.824L530.831 539.304C529.724 539.304 528.904 539.077 528.371 538.624C527.851 538.157 527.557 537.404 527.491 536.364L526.471 537.004C525.617 537.537 524.857 537.957 524.191 538.264C523.537 538.57 522.924 538.804 522.351 538.964C521.777 539.11 521.217 539.204 520.671 539.244C520.137 539.284 519.564 539.304 518.951 539.304H517.491V537.524ZM524.091 543.444C523.784 543.444 523.537 543.35 523.351 543.164C523.177 542.977 523.091 542.69 523.091 542.304C523.091 541.904 523.177 541.61 523.351 541.424C523.537 541.25 523.784 541.164 524.091 541.164H524.391C524.697 541.164 524.944 541.25 525.131 541.424C525.317 541.61 525.411 541.904 525.411 542.304C525.411 542.69 525.317 542.977 525.131 543.164C524.944 543.35 524.697 543.444 524.391 543.444H524.091ZM533.571 538.164C533.264 538.577 532.897 538.87 532.471 539.044C532.044 539.217 531.497 539.304 530.831 539.304V537.524L531.311 537.044C531.817 537.044 532.184 536.937 532.411 536.724C532.651 536.497 532.871 536.117 533.071 535.584L533.631 534.144C533.951 533.317 534.371 532.657 534.891 532.164C535.424 531.657 536.137 531.404 537.031 531.404C538.124 531.404 538.964 531.87 539.551 532.804C540.137 533.724 540.431 535.017 540.431 536.684V537.464L538.931 539.664L533.571 538.164ZM534.511 536.064L538.711 537.244V536.684C538.711 535.737 538.531 534.997 538.171 534.464C537.811 533.93 537.311 533.664 536.671 533.664C536.204 533.664 535.824 533.804 535.531 534.084C535.251 534.35 535.017 534.724 534.831 535.204L534.511 536.064Z" fill="#414042"/>
<path d="M398.539 439C397.326 439 396.452 438.753 395.919 438.26C395.399 437.753 395.139 436.973 395.139 435.92V435.68H395.039C394.839 436.427 394.526 436.967 394.099 437.3C393.672 437.62 393.112 437.78 392.419 437.78C391.499 437.78 390.792 437.533 390.299 437.04C389.806 436.547 389.559 435.853 389.559 434.96C389.559 434.507 389.626 434.093 389.759 433.72C389.892 433.333 390.099 432.973 390.379 432.64C390.659 432.307 391.006 431.993 391.419 431.7C391.846 431.393 392.346 431.087 392.919 430.78L395.039 429.66V428.6H396.859V435.48C396.859 435.96 396.979 436.293 397.219 436.48C397.459 436.653 397.839 436.74 398.359 436.74H399.019V438.52L398.539 439ZM392.859 435.52C393.659 435.52 394.219 435.42 394.539 435.22C394.872 435.02 395.039 434.667 395.039 434.16V431.46L393.239 432.38C392.519 432.753 391.999 433.087 391.679 433.38C391.359 433.66 391.199 434.007 391.199 434.42C391.199 434.807 391.319 435.087 391.559 435.26C391.812 435.433 392.246 435.52 392.859 435.52ZM395.839 426.98C395.532 426.98 395.286 426.887 395.099 426.7C394.926 426.513 394.839 426.227 394.839 425.84C394.839 425.44 394.926 425.153 395.099 424.98C395.286 424.793 395.532 424.7 395.839 424.7H396.139C396.446 424.7 396.692 424.793 396.879 424.98C397.066 425.153 397.159 425.44 397.159 425.84C397.159 426.227 397.066 426.513 396.879 426.7C396.692 426.887 396.446 426.98 396.139 426.98H395.839ZM393.019 426.98C392.712 426.98 392.466 426.887 392.279 426.7C392.106 426.513 392.019 426.227 392.019 425.84C392.019 425.44 392.106 425.153 392.279 424.98C392.466 424.793 392.712 424.7 393.019 424.7H393.319C393.626 424.7 393.872 424.793 394.059 424.98C394.246 425.153 394.339 425.44 394.339 425.84C394.339 426.227 394.246 426.513 394.059 426.7C393.872 426.887 393.626 426.98 393.319 426.98H393.019ZM398.54 437.22L399.02 436.74H399.42C399.7 436.74 399.946 436.72 400.16 436.68C400.373 436.64 400.56 436.567 400.72 436.46C400.88 436.353 401.026 436.213 401.16 436.04C401.293 435.867 401.426 435.647 401.56 435.38L402.38 433.72L403.88 434.48L402.96 436.26L403.1 436.34C403.5 436.567 403.886 436.733 404.26 436.84C404.633 436.947 405.013 437 405.4 437C406 437 406.44 436.867 406.72 436.6C407 436.32 407.14 435.84 407.14 435.16V433.72H408.88V435.16C408.88 435.813 408.98 436.28 409.18 436.56C409.38 436.827 409.693 436.96 410.12 436.96H410.42C411.18 436.96 411.56 436.527 411.56 435.66C411.56 435.233 411.5 434.62 411.38 433.82L411.2 432.76L412.92 432.5L413.08 433.54C413.133 433.94 413.173 434.32 413.2 434.68C413.226 435.04 413.24 435.367 413.24 435.66C413.24 436.833 412.986 437.727 412.48 438.34C411.986 438.94 411.246 439.24 410.26 439.24C409.406 439.24 408.746 439.047 408.28 438.66C407.813 438.273 407.506 437.687 407.36 436.9H407.24C407.013 438.46 406.273 439.24 405.02 439.24C404.633 439.24 404.233 439.167 403.82 439.02C403.42 438.873 402.94 438.633 402.38 438.3L401.84 437.98C401.453 438.393 401 438.667 400.48 438.8C399.973 438.933 399.326 439 398.54 439V437.22ZM409.3 431.68C408.993 431.68 408.746 431.587 408.56 431.4C408.373 431.213 408.28 430.927 408.28 430.54C408.28 430.14 408.373 429.853 408.56 429.68C408.746 429.493 408.993 429.4 409.3 429.4H409.58C409.886 429.4 410.133 429.493 410.32 429.68C410.506 429.853 410.6 430.14 410.6 430.54C410.6 430.927 410.506 431.213 410.32 431.4C410.133 431.587 409.886 431.68 409.58 431.68H409.3ZM406.46 431.68C406.153 431.68 405.906 431.587 405.72 431.4C405.546 431.213 405.46 430.927 405.46 430.54C405.46 430.14 405.546 429.853 405.72 429.68C405.906 429.493 406.153 429.4 406.46 429.4H406.76C407.066 429.4 407.313 429.493 407.5 429.68C407.686 429.853 407.78 430.14 407.78 430.54C407.78 430.927 407.686 431.213 407.5 431.4C407.313 431.587 407.066 431.68 406.76 431.68H406.46ZM407.88 429.04C407.586 429.04 407.346 428.953 407.16 428.78C406.973 428.593 406.88 428.307 406.88 427.92C406.88 427.533 406.973 427.253 407.16 427.08C407.346 426.907 407.586 426.82 407.88 426.82H408.18C408.473 426.82 408.706 426.907 408.88 427.08C409.066 427.253 409.16 427.533 409.16 427.92C409.16 428.307 409.066 428.593 408.88 428.78C408.706 428.953 408.473 429.04 408.18 429.04H407.88ZM412.82 441.54H413.58C414.26 441.54 414.826 441.453 415.28 441.28C415.733 441.107 416.1 440.86 416.38 440.54C416.66 440.233 416.86 439.86 416.98 439.42C417.1 438.98 417.16 438.487 417.16 437.94C417.16 437.58 417.14 437.207 417.1 436.82C417.06 436.433 417.006 436.047 416.94 435.66L416.52 433.24L418.24 432.92L418.52 434.6C418.746 435.893 418.86 437 418.86 437.92C418.86 438.747 418.76 439.513 418.56 440.22C418.373 440.94 418.066 441.567 417.64 442.1C417.213 442.633 416.666 443.047 416 443.34C415.333 443.647 414.533 443.8 413.6 443.8H412.82V441.54ZM420.265 441.54H421.605C423.272 441.54 424.498 441.207 425.285 440.54C426.085 439.873 426.485 438.973 426.485 437.84V437.36H426.385C425.972 438.467 425.118 439.02 423.825 439.02C422.745 439.02 421.912 438.727 421.325 438.14C420.738 437.54 420.445 436.7 420.445 435.62C420.445 434.98 420.538 434.38 420.725 433.82C420.925 433.26 421.192 432.78 421.525 432.38C421.872 431.967 422.278 431.64 422.745 431.4C423.212 431.16 423.718 431.04 424.265 431.04C425.478 431.04 426.425 431.553 427.105 432.58C427.798 433.593 428.145 435.013 428.145 436.84C428.145 439.027 427.598 440.733 426.505 441.96C425.425 443.187 423.818 443.8 421.685 443.8H420.265V441.54ZM424.325 436.74C424.885 436.74 425.332 436.7 425.665 436.62C426.012 436.54 426.285 436.413 426.485 436.24C426.458 435.36 426.225 434.653 425.785 434.12C425.358 433.587 424.792 433.32 424.085 433.32C423.472 433.32 422.985 433.507 422.625 433.88C422.265 434.253 422.085 434.74 422.085 435.34C422.085 435.833 422.238 436.193 422.545 436.42C422.865 436.633 423.325 436.74 423.925 436.74H424.325ZM392.289 468C391.076 468 390.202 467.753 389.669 467.26C389.149 466.753 388.889 465.973 388.889 464.92V464.68H388.789C388.589 465.427 388.276 465.967 387.849 466.3C387.422 466.62 386.862 466.78 386.169 466.78C385.249 466.78 384.542 466.533 384.049 466.04C383.556 465.547 383.309 464.853 383.309 463.96C383.309 463.507 383.376 463.093 383.509 462.72C383.642 462.333 383.849 461.973 384.129 461.64C384.409 461.307 384.756 460.993 385.169 460.7C385.596 460.393 386.096 460.087 386.669 459.78L388.789 458.66V457.6H390.609V464.48C390.609 464.96 390.729 465.293 390.969 465.48C391.209 465.653 391.589 465.74 392.109 465.74H392.769V467.52L392.289 468ZM386.609 464.52C387.409 464.52 387.969 464.42 388.289 464.22C388.622 464.02 388.789 463.667 388.789 463.16V460.46L386.989 461.38C386.269 461.753 385.749 462.087 385.429 462.38C385.109 462.66 384.949 463.007 384.949 463.42C384.949 463.807 385.069 464.087 385.309 464.26C385.562 464.433 385.996 464.52 386.609 464.52ZM389.589 455.98C389.282 455.98 389.036 455.887 388.849 455.7C388.676 455.513 388.589 455.227 388.589 454.84C388.589 454.44 388.676 454.153 388.849 453.98C389.036 453.793 389.282 453.7 389.589 453.7H389.889C390.196 453.7 390.442 453.793 390.629 453.98C390.816 454.153 390.909 454.44 390.909 454.84C390.909 455.227 390.816 455.513 390.629 455.7C390.442 455.887 390.196 455.98 389.889 455.98H389.589ZM386.769 455.98C386.462 455.98 386.216 455.887 386.029 455.7C385.856 455.513 385.769 455.227 385.769 454.84C385.769 454.44 385.856 454.153 386.029 453.98C386.216 453.793 386.462 453.7 386.769 453.7H387.069C387.376 453.7 387.622 453.793 387.809 453.98C387.996 454.153 388.089 454.44 388.089 454.84C388.089 455.227 387.996 455.513 387.809 455.7C387.622 455.887 387.376 455.98 387.069 455.98H386.769ZM392.29 466.22L392.77 465.74H393.43C394.536 465.74 395.09 465.213 395.09 464.16V461.12H396.83V464.16C396.83 465.213 397.35 465.74 398.39 465.74H399.15V467.52L398.65 468C397.663 468 396.896 467.82 396.35 467.46C395.816 467.087 395.463 466.507 395.29 465.72H395.17C395.01 466.547 394.71 467.133 394.27 467.48C393.843 467.827 393.183 468 392.29 468V466.22ZM397.21 472.14C396.903 472.14 396.656 472.047 396.47 471.86C396.296 471.673 396.21 471.387 396.21 471C396.21 470.6 396.296 470.307 396.47 470.12C396.656 469.947 396.903 469.86 397.21 469.86H397.51C397.816 469.86 398.063 469.947 398.25 470.12C398.436 470.307 398.53 470.6 398.53 471C398.53 471.387 398.436 471.673 398.25 471.86C398.063 472.047 397.816 472.14 397.51 472.14H397.21ZM394.39 472.14C394.083 472.14 393.836 472.047 393.65 471.86C393.476 471.673 393.39 471.387 393.39 471C393.39 470.6 393.476 470.307 393.65 470.12C393.836 469.947 394.083 469.86 394.39 469.86H394.69C394.996 469.86 395.243 469.947 395.43 470.12C395.616 470.307 395.71 470.6 395.71 471C395.71 471.387 395.616 471.673 395.43 471.86C395.243 472.047 394.996 472.14 394.69 472.14H394.39ZM398.676 466.22L399.156 465.74H399.816C400.923 465.74 401.476 465.213 401.476 464.16V461.12H403.216V464.16C403.216 465.213 403.736 465.74 404.776 465.74H405.536V467.52L405.036 468C404.05 468 403.283 467.82 402.736 467.46C402.203 467.087 401.85 466.507 401.676 465.72H401.556C401.396 466.547 401.096 467.133 400.656 467.48C400.23 467.827 399.57 468 398.676 468V466.22ZM402.176 472.14C401.87 472.14 401.623 472.047 401.436 471.86C401.263 471.673 401.176 471.387 401.176 471C401.176 470.6 401.263 470.307 401.436 470.12C401.623 469.947 401.87 469.86 402.176 469.86H402.476C402.783 469.86 403.03 469.947 403.216 470.12C403.403 470.307 403.496 470.6 403.496 471C403.496 471.387 403.403 471.673 403.216 471.86C403.03 472.047 402.783 472.14 402.476 472.14H402.176ZM405.063 466.22L405.543 465.74H405.963C406.87 465.74 407.51 465.64 407.883 465.44C408.256 465.227 408.443 464.847 408.443 464.3C408.443 464.073 408.423 463.787 408.383 463.44C408.356 463.093 408.296 462.633 408.203 462.06L407.883 460.32L409.623 460.04L409.883 461.78C410.043 462.847 410.123 463.687 410.123 464.3C410.123 465.553 409.783 466.487 409.103 467.1C408.423 467.7 407.376 468 405.963 468H405.063V466.22ZM409.703 472.14C409.396 472.14 409.15 472.047 408.963 471.86C408.79 471.673 408.703 471.387 408.703 471C408.703 470.6 408.79 470.307 408.963 470.12C409.15 469.947 409.396 469.86 409.703 469.86H410.003C410.31 469.86 410.556 469.947 410.743 470.12C410.93 470.307 411.023 470.6 411.023 471C411.023 471.387 410.93 471.673 410.743 471.86C410.556 472.047 410.31 472.14 410.003 472.14H409.703ZM406.883 472.14C406.576 472.14 406.33 472.047 406.143 471.86C405.97 471.673 405.883 471.387 405.883 471C405.883 470.6 405.97 470.307 406.143 470.12C406.33 469.947 406.576 469.86 406.883 469.86H407.183C407.49 469.86 407.736 469.947 407.923 470.12C408.11 470.307 408.203 470.6 408.203 471C408.203 471.387 408.11 471.673 407.923 471.86C407.736 472.047 407.49 472.14 407.183 472.14H406.883ZM411.745 470.54H412.505C413.185 470.54 413.752 470.453 414.205 470.28C414.659 470.107 415.025 469.86 415.305 469.54C415.585 469.233 415.785 468.86 415.905 468.42C416.025 467.98 416.085 467.487 416.085 466.94C416.085 466.58 416.065 466.207 416.025 465.82C415.985 465.433 415.932 465.047 415.865 464.66L415.445 462.24L417.165 461.92L417.445 463.6C417.672 464.893 417.785 466 417.785 466.92C417.785 467.747 417.685 468.513 417.485 469.22C417.299 469.94 416.992 470.567 416.565 471.1C416.139 471.633 415.592 472.047 414.925 472.34C414.259 472.647 413.459 472.8 412.525 472.8H411.745V470.54ZM421.331 468C420.651 468 420.117 467.82 419.731 467.46C419.344 467.1 419.151 466.54 419.151 465.78V464.32H420.931V465.74H423.651C424.357 465.74 424.844 465.68 425.111 465.56C425.377 465.44 425.511 465.213 425.511 464.88C425.511 464.733 425.477 464.553 425.411 464.34C425.344 464.113 425.251 463.827 425.131 463.48L423.271 458.3L425.171 457.62L427.211 463.28C427.384 463.773 427.544 464.18 427.691 464.5C427.851 464.807 428.011 465.053 428.171 465.24C428.331 465.427 428.497 465.56 428.671 465.64C428.857 465.707 429.071 465.74 429.311 465.74H429.851V467.52L429.351 468C428.911 468 428.524 467.967 428.191 467.9C427.857 467.82 427.557 467.7 427.291 467.54C427.037 467.367 426.804 467.14 426.591 466.86C426.391 466.58 426.191 466.227 425.991 465.8L425.891 465.82C425.771 466.607 425.504 467.167 425.091 467.5C424.677 467.833 424.044 468 423.191 468H421.331ZM429.379 466.22L429.859 465.74H430.279C431.186 465.74 431.826 465.64 432.199 465.44C432.573 465.227 432.759 464.847 432.759 464.3C432.759 464.073 432.739 463.787 432.699 463.44C432.673 463.093 432.613 462.633 432.519 462.06L432.199 460.32L433.939 460.04L434.199 461.78C434.359 462.847 434.439 463.687 434.439 464.3C434.439 465.553 434.099 466.487 433.419 467.1C432.739 467.7 431.693 468 430.279 468H429.379V466.22ZM434.039 458C433.733 458 433.486 457.907 433.299 457.72C433.126 457.533 433.039 457.247 433.039 456.86C433.039 456.46 433.126 456.173 433.299 456C433.486 455.813 433.733 455.72 434.039 455.72H434.339C434.646 455.72 434.893 455.813 435.079 456C435.266 456.173 435.359 456.46 435.359 456.86C435.359 457.247 435.266 457.533 435.079 457.72C434.893 457.907 434.646 458 434.339 458H434.039ZM431.219 458C430.913 458 430.666 457.907 430.479 457.72C430.306 457.533 430.219 457.247 430.219 456.86C430.219 456.46 430.306 456.173 430.479 456C430.666 455.813 430.913 455.72 431.219 455.72H431.519C431.826 455.72 432.073 455.813 432.259 456C432.446 456.173 432.539 456.46 432.539 456.86C432.539 457.247 432.446 457.533 432.259 457.72C432.073 457.907 431.826 458 431.519 458H431.219ZM397.279 497C396.066 497 395.193 496.753 394.659 496.26C394.139 495.753 393.879 494.973 393.879 493.92V493.68H393.779C393.579 494.427 393.266 494.967 392.839 495.3C392.413 495.62 391.853 495.78 391.159 495.78C390.239 495.78 389.533 495.533 389.039 495.04C388.546 494.547 388.299 493.853 388.299 492.96C388.299 492.507 388.366 492.093 388.499 491.72C388.633 491.333 388.839 490.973 389.119 490.64C389.399 490.307 389.746 489.993 390.159 489.7C390.586 489.393 391.086 489.087 391.659 488.78L393.779 487.66V486.6H395.599V493.48C395.599 493.96 395.719 494.293 395.959 494.48C396.199 494.653 396.579 494.74 397.099 494.74H397.759V496.52L397.279 497ZM391.599 493.52C392.399 493.52 392.959 493.42 393.279 493.22C393.613 493.02 393.779 492.667 393.779 492.16V489.46L391.979 490.38C391.259 490.753 390.739 491.087 390.419 491.38C390.099 491.66 389.939 492.007 389.939 492.42C389.939 492.807 390.059 493.087 390.299 493.26C390.553 493.433 390.986 493.52 391.599 493.52ZM394.579 484.98C394.273 484.98 394.026 484.887 393.839 484.7C393.666 484.513 393.579 484.227 393.579 483.84C393.579 483.44 393.666 483.153 393.839 482.98C394.026 482.793 394.273 482.7 394.579 482.7H394.879C395.186 482.7 395.433 482.793 395.619 482.98C395.806 483.153 395.899 483.44 395.899 483.84C395.899 484.227 395.806 484.513 395.619 484.7C395.433 484.887 395.186 484.98 394.879 484.98H394.579ZM391.759 484.98C391.453 484.98 391.206 484.887 391.019 484.7C390.846 484.513 390.759 484.227 390.759 483.84C390.759 483.44 390.846 483.153 391.019 482.98C391.206 482.793 391.453 482.7 391.759 482.7H392.059C392.366 482.7 392.613 482.793 392.799 482.98C392.986 483.153 393.079 483.44 393.079 483.84C393.079 484.227 392.986 484.513 392.799 484.7C392.613 484.887 392.366 484.98 392.059 484.98H391.759ZM397.28 495.22L397.76 494.74H398.42C399.526 494.74 400.08 494.213 400.08 493.16V490.12H401.82V493.16C401.82 494.213 402.34 494.74 403.38 494.74H404.14V496.52L403.64 497C402.653 497 401.886 496.82 401.34 496.46C400.806 496.087 400.453 495.507 400.28 494.72H400.16C400 495.547 399.7 496.133 399.26 496.48C398.833 496.827 398.173 497 397.28 497V495.22ZM402.2 501.14C401.893 501.14 401.646 501.047 401.46 500.86C401.286 500.673 401.2 500.387 401.2 500C401.2 499.6 401.286 499.307 401.46 499.12C401.646 498.947 401.893 498.86 402.2 498.86H402.5C402.806 498.86 403.053 498.947 403.24 499.12C403.426 499.307 403.52 499.6 403.52 500C403.52 500.387 403.426 500.673 403.24 500.86C403.053 501.047 402.806 501.14 402.5 501.14H402.2ZM399.38 501.14C399.073 501.14 398.826 501.047 398.64 500.86C398.466 500.673 398.38 500.387 398.38 500C398.38 499.6 398.466 499.307 398.64 499.12C398.826 498.947 399.073 498.86 399.38 498.86H399.68C399.986 498.86 400.233 498.947 400.42 499.12C400.606 499.307 400.7 499.6 400.7 500C400.7 500.387 400.606 500.673 400.42 500.86C400.233 501.047 399.986 501.14 399.68 501.14H399.38ZM403.666 495.22L404.146 494.74C404.56 494.74 404.886 494.727 405.126 494.7C405.38 494.673 405.6 494.613 405.786 494.52C405.746 494.307 405.726 494.073 405.726 493.82C405.726 493.073 405.96 492.387 406.426 491.76C406.906 491.133 407.62 490.52 408.566 489.92L409.666 489.24H411.686L413.186 493.26C413.293 493.553 413.4 493.8 413.506 494C413.613 494.187 413.726 494.333 413.846 494.44C413.98 494.547 414.126 494.627 414.286 494.68C414.446 494.72 414.64 494.74 414.866 494.74H415.346V496.52L414.866 497C414.133 497 413.553 496.893 413.126 496.68C412.7 496.453 412.326 496.067 412.006 495.52L411.886 495.54V497H409.426C408.533 497 407.8 496.853 407.226 496.56C406.666 496.253 406.26 495.82 406.006 495.26H405.886C405.7 495.86 405.433 496.3 405.086 496.58C404.74 496.86 404.266 497 403.666 497V495.22ZM407.266 493.6C407.266 494 407.426 494.293 407.746 494.48C408.066 494.653 408.526 494.74 409.126 494.74H411.626C411.573 494.633 411.526 494.52 411.486 494.4C411.446 494.28 411.4 494.153 411.346 494.02L410.286 491.18L409.086 491.78C408.553 492.047 408.113 492.333 407.766 492.64C407.433 492.933 407.266 493.253 407.266 493.6ZM414.858 495.22L415.338 494.74H419.158C420.171 494.74 420.918 494.573 421.398 494.24C421.891 493.907 422.138 493.307 422.138 492.44V491.68H422.038C421.838 492.173 421.518 492.547 421.078 492.8C420.651 493.053 420.125 493.18 419.498 493.18C418.418 493.18 417.578 492.9 416.978 492.34C416.391 491.78 416.098 491 416.098 490C416.098 489.373 416.191 488.787 416.378 488.24C416.578 487.68 416.845 487.2 417.178 486.8C417.525 486.387 417.931 486.067 418.398 485.84C418.865 485.6 419.378 485.48 419.938 485.48C421.151 485.48 422.098 486 422.778 487.04C423.471 488.08 423.818 489.52 423.818 491.36C423.818 492.453 423.731 493.367 423.558 494.1C423.385 494.82 423.105 495.393 422.718 495.82C422.345 496.247 421.865 496.553 421.278 496.74C420.691 496.913 419.985 497 419.158 497H414.858V495.22ZM419.978 491.06C420.538 491.06 420.985 491.02 421.318 490.94C421.651 490.86 421.918 490.74 422.118 490.58C422.065 489.713 421.825 489.027 421.398 488.52C420.985 488 420.438 487.74 419.758 487.74C419.145 487.74 418.658 487.927 418.298 488.3C417.938 488.66 417.758 489.133 417.758 489.72C417.758 490.187 417.911 490.527 418.218 490.74C418.525 490.953 418.978 491.06 419.578 491.06H419.978ZM421.158 483.44C420.851 483.44 420.605 483.347 420.418 483.16C420.245 482.973 420.158 482.687 420.158 482.3C420.158 481.9 420.245 481.613 420.418 481.44C420.605 481.253 420.851 481.16 421.158 481.16H421.458C421.765 481.16 422.011 481.253 422.198 481.44C422.385 481.613 422.478 481.9 422.478 482.3C422.478 482.687 422.385 482.973 422.198 483.16C422.011 483.347 421.765 483.44 421.458 483.44H421.158ZM418.338 483.44C418.031 483.44 417.785 483.347 417.598 483.16C417.425 482.973 417.338 482.687 417.338 482.3C417.338 481.9 417.425 481.613 417.598 481.44C417.785 481.253 418.031 481.16 418.338 481.16H418.638C418.945 481.16 419.191 481.253 419.378 481.44C419.565 481.613 419.658 481.9 419.658 482.3C419.658 482.687 419.565 482.973 419.378 483.16C419.191 483.347 418.945 483.44 418.638 483.44H418.338ZM423.415 499.54H424.175C424.855 499.54 425.422 499.453 425.875 499.28C426.329 499.107 426.695 498.86 426.975 498.54C427.255 498.233 427.455 497.86 427.575 497.42C427.695 496.98 427.755 496.487 427.755 495.94C427.755 495.58 427.735 495.207 427.695 494.82C427.655 494.433 427.602 494.047 427.535 493.66L427.115 491.24L428.835 490.92L429.115 492.6C429.342 493.893 429.455 495 429.455 495.92C429.455 496.747 429.355 497.513 429.155 498.22C428.969 498.94 428.662 499.567 428.235 500.1C427.809 500.633 427.262 501.047 426.595 501.34C425.929 501.647 425.129 501.8 424.195 501.8H423.415V499.54Z" fill="#414042"/>
<path d="M260.343 368.773C259.117 368.722 258.178 368.349 257.526 367.655C256.888 366.948 256.592 366.049 256.637 364.956C256.698 363.478 257.506 362.003 259.062 360.533L259.646 359.956L261.924 360.05L262.404 360.551C263.145 361.342 263.661 362.09 263.952 362.796C264.257 363.49 264.394 364.216 264.363 364.975C264.338 365.575 264.229 366.117 264.035 366.603C263.842 367.076 263.572 367.478 263.225 367.811C262.877 368.143 262.46 368.393 261.973 368.56C261.499 368.727 260.955 368.798 260.343 368.773ZM260.636 366.523C261.235 366.547 261.721 366.421 262.093 366.143C262.478 365.852 262.681 365.473 262.7 365.007C262.713 364.687 262.614 364.349 262.402 363.993C262.203 363.625 261.835 363.176 261.296 362.647L260.509 361.833L260.369 361.828L259.638 362.578C259.192 363.027 258.863 363.407 258.65 363.718C258.437 364.03 258.323 364.365 258.308 364.725C258.289 365.191 258.452 365.598 258.798 365.946C259.157 366.295 259.637 366.481 260.236 366.506L260.636 366.523ZM262.088 358.015C261.782 358.003 261.539 357.899 261.36 357.705C261.195 357.511 261.12 357.221 261.136 356.835C261.153 356.435 261.251 356.153 261.431 355.987C261.626 355.808 261.876 355.725 262.182 355.737L262.482 355.75C262.788 355.762 263.031 355.866 263.21 356.06C263.389 356.241 263.471 356.531 263.454 356.931C263.438 357.317 263.333 357.6 263.139 357.779C262.945 357.957 262.694 358.04 262.388 358.028L262.088 358.015ZM259.271 357.899C258.964 357.886 258.722 357.783 258.543 357.589C258.377 357.395 258.303 357.105 258.318 356.719C258.335 356.319 258.433 356.036 258.614 355.87C258.808 355.691 259.058 355.608 259.365 355.621L259.664 355.633C259.971 355.646 260.213 355.749 260.392 355.944C260.572 356.125 260.653 356.415 260.637 356.814C260.621 357.201 260.515 357.483 260.321 357.662C260.127 357.841 259.877 357.924 259.57 357.911L259.271 357.899ZM267.667 368.875C266.987 368.847 266.462 368.645 266.09 368.269C265.719 367.894 265.549 367.326 265.58 366.567L265.64 365.108L267.419 365.182L267.36 366.6L270.558 366.732C271.184 366.758 271.615 366.649 271.852 366.406C272.102 366.162 272.235 365.848 272.251 365.461C272.268 365.062 272.132 364.629 271.845 364.163C271.557 363.698 271.055 363.09 270.339 362.34L268.387 360.157L270.073 358.586L271.829 360.66C272.25 361.144 272.598 361.599 272.874 362.024C273.164 362.436 273.394 362.84 273.565 363.234C273.736 363.614 273.853 364 273.917 364.389C273.995 364.766 274.025 365.174 274.007 365.614C273.961 366.72 273.612 367.573 272.96 368.173C272.309 368.76 271.41 369.03 270.264 368.982L267.667 368.875ZM279.663 369.371C278.357 369.317 277.429 369.011 276.878 368.455C276.328 367.885 276.079 366.967 276.131 365.702L276.597 354.431L278.456 354.508L277.997 365.599C277.974 366.158 278.085 366.543 278.33 366.753C278.588 366.964 279.017 367.082 279.616 367.107L280.276 367.134L280.202 368.913L279.683 369.371L279.663 369.371ZM279.782 367.594L280.282 367.134L280.701 367.152C281.607 367.189 282.251 367.116 282.632 366.931C283.014 366.733 283.216 366.361 283.239 365.815C283.248 365.589 283.24 365.302 283.214 364.953C283.202 364.606 283.161 364.144 283.091 363.567L282.844 361.816L284.594 361.608L284.782 363.357C284.897 364.429 284.943 365.272 284.917 365.885C284.866 367.137 284.487 368.055 283.783 368.64C283.078 369.212 282.02 369.468 280.608 369.41L279.709 369.373L279.782 367.594ZM284.174 373.701C283.868 373.688 283.625 373.584 283.446 373.39C283.281 373.197 283.206 372.907 283.222 372.52C283.238 372.121 283.337 371.831 283.518 371.652C283.712 371.486 283.962 371.41 284.268 371.423L284.568 371.435C284.874 371.448 285.117 371.544 285.296 371.725C285.475 371.919 285.556 372.216 285.54 372.616C285.524 373.002 285.419 373.285 285.225 373.464C285.03 373.643 284.78 373.726 284.474 373.713L284.174 373.701ZM281.356 373.584C281.05 373.571 280.807 373.468 280.629 373.274C280.463 373.08 280.388 372.79 280.404 372.404C280.421 372.004 280.52 371.715 280.7 371.535C280.894 371.37 281.144 371.293 281.45 371.306L281.75 371.318C282.057 371.331 282.3 371.428 282.479 371.609C282.658 371.803 282.739 372.1 282.722 372.5C282.706 372.886 282.601 373.169 282.407 373.347C282.213 373.526 281.963 373.609 281.656 373.597L281.356 373.584ZM286.281 372.186L287.04 372.218C287.719 372.246 288.289 372.183 288.749 372.028C289.209 371.874 289.586 371.642 289.879 371.334C290.171 371.039 290.387 370.674 290.525 370.24C290.663 369.805 290.743 369.315 290.766 368.768C290.78 368.409 290.776 368.035 290.752 367.647C290.728 367.259 290.691 366.87 290.64 366.481L290.32 364.046L292.052 363.797L292.262 365.487C292.313 365.877 292.351 366.252 292.376 366.613C292.414 366.975 292.44 367.316 292.454 367.637L294.312 367.714L294.239 369.492L293.739 369.952L292.36 369.895C292.252 370.585 292.066 371.218 291.802 371.794C291.538 372.37 291.184 372.863 290.74 373.271C290.309 373.681 289.782 373.992 289.16 374.207C288.537 374.421 287.806 374.511 286.967 374.477L286.187 374.444L286.281 372.186ZM293.813 368.174L294.313 367.714L295.012 367.743C295.598 367.767 296.01 367.657 296.247 367.414C296.497 367.17 296.633 366.776 296.656 366.23L297.108 355.279L298.987 355.356L298.534 366.307C298.48 367.626 298.173 368.587 297.615 369.192C297.056 369.782 296.158 370.052 294.919 370.001L293.74 369.952L293.813 368.174ZM301.751 355.471L303.61 355.547L302.999 370.335L301.14 370.258L301.751 355.471ZM310.084 371.689C310.144 370.236 310.502 369.184 311.156 368.53C311.81 367.863 312.791 367.557 314.096 367.611L318.373 367.787C318.387 366.787 318.186 366.005 317.769 365.44C317.366 364.863 316.798 364.56 316.065 364.529C315.506 364.506 315.034 364.627 314.649 364.891C314.278 365.156 313.955 365.536 313.681 366.032L312.14 365.048C312.321 364.561 312.552 364.137 312.833 363.775C313.129 363.414 313.454 363.12 313.811 362.895C314.167 362.669 314.541 362.505 314.932 362.401C315.337 362.297 315.739 362.254 316.138 362.27C317.431 362.324 318.416 362.852 319.096 363.854C319.788 364.857 320.097 366.251 320.024 368.036L319.937 370.134L314.002 369.889C313.256 369.858 312.73 369.983 312.425 370.264C312.12 370.545 311.952 371.058 311.921 371.804L311.716 376.78L309.877 376.704L310.084 371.689ZM321.255 373.631L322.414 373.679C323.813 373.737 324.914 373.556 325.719 373.135C326.523 372.728 327.068 372.13 327.355 371.341L324.957 371.242C323.878 371.198 323.05 370.87 322.475 370.259C321.913 369.648 321.654 368.804 321.699 367.725C321.725 367.085 321.844 366.49 322.053 365.938C322.276 365.387 322.562 364.918 322.912 364.532C323.275 364.133 323.695 363.824 324.171 363.603C324.648 363.383 325.165 363.284 325.725 363.307C326.897 363.356 327.789 363.893 328.401 364.919C329.025 365.946 329.314 367.359 329.266 369.158L330.206 369.197L330.132 370.976L329.633 371.435L328.953 371.407C328.557 372.926 327.809 374.076 326.709 374.858C325.622 375.653 324.186 376.014 322.4 375.941L321.162 375.889L321.255 373.631ZM323.369 367.513C323.349 368.006 323.487 368.372 323.784 368.612C324.082 368.837 324.53 368.963 325.13 368.987L327.608 369.09L327.623 368.71C327.661 367.791 327.479 367.049 327.075 366.486C326.672 365.908 326.13 365.606 325.451 365.578C324.838 365.552 324.344 365.719 323.969 366.077C323.594 366.435 323.394 366.914 323.369 367.513ZM329.701 369.657L330.2 369.197L330.82 369.222C331.925 369.268 332.5 368.765 332.543 367.712L332.996 356.762L334.854 356.839L334.402 367.789C334.358 368.842 334.863 369.39 335.915 369.433L336.615 369.462L336.541 371.24L336.042 371.7C335.043 371.659 334.264 371.447 333.706 371.063C333.162 370.667 332.819 370.072 332.679 369.279L332.559 369.274C332.365 370.094 332.048 370.668 331.607 370.997C331.166 371.325 330.506 371.471 329.627 371.435L329.701 369.657ZM336.121 369.922L336.62 369.462L337.04 369.48C337.946 369.517 338.589 369.443 338.971 369.259C339.353 369.061 339.555 368.689 339.577 368.143C339.587 367.917 339.579 367.629 339.553 367.281C339.541 366.934 339.5 366.472 339.43 365.895L339.182 364.143L340.932 363.935L341.12 365.685C341.236 366.757 341.281 367.6 341.256 368.212C341.204 369.465 340.826 370.383 340.121 370.968C339.417 371.539 338.359 371.796 336.947 371.738L336.047 371.7L336.121 369.922ZM339.094 375.97C338.787 375.957 338.545 375.854 338.366 375.66C338.201 375.466 338.126 375.176 338.142 374.79C338.158 374.39 338.257 374.1 338.438 373.921C338.632 373.756 338.882 373.679 339.188 373.692L339.488 373.704C339.794 373.717 340.037 373.814 340.216 373.994C340.395 374.189 340.476 374.486 340.46 374.885C340.444 375.272 340.339 375.554 340.144 375.733C339.95 375.912 339.7 375.995 339.394 375.982L339.094 375.97ZM344.652 372.056C343.972 372.028 343.447 371.826 343.075 371.45C342.704 371.075 342.534 370.507 342.565 369.748L342.625 368.289L344.404 368.363L344.345 369.781L347.543 369.913C348.169 369.939 348.6 369.83 348.837 369.587C349.087 369.343 349.221 369.029 349.237 368.642C349.253 368.243 349.117 367.81 348.83 367.344C348.542 366.879 348.04 366.271 347.324 365.521L345.372 363.338L347.059 361.767L348.814 363.841C349.235 364.325 349.583 364.78 349.859 365.205C350.149 365.617 350.379 366.021 350.55 366.415C350.721 366.795 350.838 367.181 350.902 367.57C350.98 367.947 351.01 368.355 350.992 368.795C350.946 369.901 350.597 370.754 349.945 371.354C349.294 371.941 348.395 372.211 347.249 372.163L344.652 372.056ZM267.144 397.878C265.932 397.828 265.069 397.546 264.557 397.031C264.058 396.503 263.83 395.713 263.874 394.66L263.884 394.421L263.784 394.416C263.553 395.154 263.218 395.681 262.778 395.996C262.338 396.298 261.772 396.435 261.079 396.406C260.16 396.369 259.464 396.093 258.992 395.58C258.519 395.066 258.301 394.363 258.338 393.471C258.357 393.018 258.441 392.608 258.589 392.24C258.739 391.859 258.96 391.508 259.253 391.187C259.547 390.865 259.906 390.566 260.331 390.29C260.77 390.002 261.283 389.716 261.868 389.433L264.032 388.402L264.076 387.342L265.895 387.418L265.611 394.292C265.591 394.771 265.697 395.109 265.929 395.306C266.162 395.489 266.538 395.591 267.057 395.613L267.717 395.64L267.643 397.418L267.144 397.878ZM261.612 394.167C262.412 394.2 262.975 394.123 263.303 393.936C263.645 393.75 263.826 393.404 263.847 392.898L263.958 390.2L262.122 391.045C261.387 391.388 260.854 391.7 260.522 391.98C260.19 392.246 260.016 392.586 259.999 392.999C259.983 393.385 260.092 393.67 260.324 393.853C260.57 394.037 261 394.141 261.612 394.167ZM264.942 385.757C264.636 385.744 264.393 385.641 264.215 385.447C264.049 385.253 263.974 384.963 263.99 384.577C264.007 384.177 264.105 383.894 264.286 383.728C264.48 383.549 264.73 383.466 265.037 383.479L265.336 383.491C265.643 383.504 265.885 383.607 266.064 383.802C266.243 383.982 266.325 384.273 266.308 384.672C266.292 385.059 266.187 385.341 265.993 385.52C265.799 385.699 265.549 385.782 265.242 385.769L264.942 385.757ZM262.125 385.64C261.818 385.628 261.576 385.524 261.397 385.33C261.232 385.136 261.157 384.846 261.173 384.46C261.189 384.06 261.288 383.778 261.468 383.612C261.662 383.433 261.913 383.35 262.219 383.362L262.519 383.375C262.825 383.387 263.068 383.491 263.246 383.685C263.426 383.866 263.507 384.156 263.491 384.556C263.475 384.942 263.37 385.225 263.175 385.404C262.981 385.582 262.731 385.666 262.425 385.653L262.125 385.64ZM267.218 396.1L267.717 395.64L268.377 395.667C269.482 395.713 270.057 395.209 270.1 394.157L270.226 391.12L271.965 391.191L271.839 394.229C271.796 395.281 272.293 395.829 273.332 395.872L274.092 395.903L274.018 397.682L273.499 398.141C272.513 398.1 271.755 397.888 271.223 397.506C270.706 397.111 270.377 396.517 270.236 395.724L270.116 395.719C269.922 396.538 269.598 397.112 269.144 397.44C268.704 397.769 268.037 397.915 267.144 397.878L267.218 396.1ZM271.889 402.218C271.583 402.205 271.34 402.102 271.161 401.907C270.996 401.714 270.921 401.424 270.937 401.037C270.954 400.638 271.052 400.348 271.233 400.169C271.427 400.003 271.677 399.927 271.983 399.94L272.283 399.952C272.59 399.965 272.832 400.061 273.012 400.242C273.191 400.437 273.272 400.734 273.255 401.133C273.239 401.52 273.134 401.802 272.94 401.981C272.746 402.16 272.495 402.243 272.189 402.23L271.889 402.218ZM269.072 402.101C268.765 402.089 268.523 401.985 268.344 401.791C268.178 401.597 268.104 401.307 268.12 400.921C268.136 400.521 268.235 400.232 268.416 400.052C268.609 399.887 268.859 399.811 269.166 399.823L269.466 399.836C269.772 399.848 270.015 399.945 270.194 400.126C270.373 400.32 270.454 400.617 270.438 401.017C270.422 401.403 270.317 401.686 270.122 401.864C269.928 402.043 269.678 402.126 269.371 402.114L269.072 402.101ZM273.599 396.363L274.099 395.904L274.518 395.921C275.424 395.958 276.068 395.885 276.449 395.7C276.831 395.503 277.033 395.131 277.055 394.584C277.065 394.358 277.057 394.071 277.031 393.723C277.019 393.375 276.978 392.913 276.908 392.336L276.66 390.585L278.41 390.377L278.598 392.126C278.714 393.198 278.759 394.041 278.734 394.654C278.682 395.906 278.304 396.825 277.599 397.409C276.895 397.981 275.837 398.237 274.425 398.179L273.526 398.142L273.599 396.363ZM278.594 388.343C278.288 388.33 278.045 388.227 277.867 388.032C277.701 387.839 277.626 387.549 277.642 387.162C277.659 386.763 277.757 386.48 277.938 386.314C278.132 386.135 278.382 386.052 278.689 386.065L278.988 386.077C279.295 386.09 279.537 386.193 279.716 386.387C279.896 386.568 279.977 386.859 279.96 387.258C279.944 387.645 279.839 387.927 279.645 388.106C279.451 388.285 279.201 388.368 278.894 388.355L278.594 388.343ZM275.777 388.226C275.47 388.214 275.228 388.11 275.049 387.916C274.884 387.722 274.809 387.432 274.825 387.046C274.841 386.646 274.94 386.363 275.12 386.197C275.314 386.019 275.565 385.936 275.871 385.948L276.171 385.961C276.477 385.973 276.72 386.077 276.899 386.271C277.078 386.452 277.159 386.742 277.143 387.142C277.127 387.528 277.022 387.811 276.828 387.989C276.633 388.168 276.383 388.251 276.077 388.239L275.777 388.226ZM284.408 398.591C283.102 398.538 282.174 398.232 281.623 397.676C281.073 397.106 280.824 396.188 280.876 394.923L281.342 383.652L283.2 383.729L282.742 394.819C282.719 395.379 282.83 395.764 283.075 395.974C283.333 396.185 283.762 396.303 284.361 396.328L285.021 396.355L284.947 398.133L284.428 398.592L284.408 398.591ZM284.527 396.815L285.027 396.355L285.426 396.372C285.706 396.383 285.953 396.373 286.168 396.342C286.383 396.311 286.573 396.245 286.737 396.146C286.901 396.046 287.053 395.912 287.194 395.744C287.334 395.576 287.476 395.362 287.621 395.101L288.508 393.476L289.976 394.298L289.003 396.039L289.14 396.125C289.53 396.368 289.903 396.55 290.258 396.671C290.627 396.793 291.004 396.862 291.391 396.878C291.99 396.903 292.435 396.788 292.726 396.533C293.017 396.265 293.177 395.791 293.205 395.112L293.264 393.673L295.003 393.745L294.944 395.183C294.917 395.836 294.984 396.306 295.145 396.593C295.321 396.867 295.635 397.014 296.088 397.032L296.448 397.047C296.874 397.065 297.186 396.944 297.384 396.686C297.595 396.414 297.714 395.952 297.741 395.299L297.834 393.061L299.572 393.133L299.48 395.371C299.436 396.423 299.934 396.971 300.973 397.014L301.732 397.045L301.659 398.824L301.14 399.283C300.207 399.244 299.488 399.048 298.982 398.693C298.49 398.326 298.166 397.779 298.009 397.052L297.909 397.048C297.794 397.884 297.55 398.474 297.175 398.819C296.814 399.164 296.314 399.324 295.674 399.297C294.315 399.241 293.542 398.428 293.353 396.859L293.233 396.854C292.942 398.404 292.171 399.152 290.918 399.101C290.532 399.085 290.135 398.995 289.728 398.831C289.335 398.668 288.865 398.409 288.319 398.052L287.793 397.71C287.376 398.107 286.912 398.361 286.4 398.474C285.889 398.586 285.24 398.626 284.454 398.593L284.527 396.815ZM301.232 397.505L301.731 397.045L302.131 397.062C302.411 397.073 302.658 397.064 302.873 397.032C303.087 397.001 303.277 396.936 303.441 396.836C303.606 396.736 303.758 396.602 303.898 396.434C304.039 396.267 304.181 396.052 304.325 395.791L305.213 394.167L306.68 394.988L305.688 396.728L305.824 396.814C306.215 397.057 306.594 397.24 306.963 397.362C307.331 397.484 307.709 397.553 308.095 397.568C308.694 397.593 309.14 397.478 309.43 397.223C309.722 396.955 309.881 396.481 309.909 395.802L309.969 394.363L311.707 394.435L311.648 395.874C311.621 396.527 311.702 396.997 311.89 397.285C312.079 397.56 312.386 397.706 312.813 397.723L313.112 397.736C313.872 397.767 314.269 397.35 314.305 396.484C314.323 396.058 314.288 395.442 314.201 394.638L314.065 393.572L315.794 393.383L315.911 394.428C315.948 394.83 315.972 395.212 315.984 395.572C315.996 395.933 315.996 396.26 315.984 396.553C315.935 397.726 315.645 398.608 315.114 399.2C314.596 399.779 313.844 400.048 312.858 400.007C312.006 399.972 311.354 399.752 310.904 399.346C310.454 398.94 310.172 398.342 310.057 397.549L309.938 397.545C309.647 399.094 308.875 399.843 307.623 399.791C307.237 399.775 306.84 399.685 306.433 399.522C306.039 399.358 305.57 399.099 305.024 398.743L304.498 398.401C304.094 398.798 303.63 399.052 303.105 399.164C302.593 399.276 301.944 399.316 301.158 399.284L301.232 397.505ZM317.16 402.487L318.319 402.535C319.717 402.593 320.819 402.411 321.624 401.991C322.428 401.584 322.973 400.986 323.259 400.197L320.861 400.098C319.782 400.053 318.955 399.725 318.38 399.114C317.818 398.504 317.559 397.659 317.604 396.58C317.63 395.941 317.748 395.345 317.958 394.793C318.181 394.242 318.467 393.773 318.817 393.388C319.18 392.989 319.6 392.679 320.076 392.459C320.552 392.238 321.07 392.14 321.63 392.163C322.802 392.211 323.694 392.748 324.305 393.774C324.93 394.801 325.219 396.214 325.171 398.014L326.11 398.053L326.037 399.831L325.537 400.291L324.858 400.263C324.462 401.781 323.714 402.931 322.614 403.713C321.527 404.509 320.09 404.87 318.305 404.796L317.066 404.745L317.16 402.487ZM319.274 396.369C319.254 396.862 319.392 397.228 319.689 397.467C319.987 397.693 320.435 397.818 321.035 397.843L323.513 397.945L323.528 397.566C323.566 396.646 323.383 395.905 322.98 395.341C322.576 394.764 322.035 394.461 321.356 394.433C320.743 394.408 320.249 394.574 319.874 394.933C319.499 395.291 319.299 395.769 319.274 396.369ZM319.555 389.094L320.334 389.127L320.358 389.027C320.117 388.737 320.004 388.386 320.021 387.973C320.043 387.44 320.248 387.008 320.635 386.677C321.023 386.333 321.504 386.172 322.076 386.196C322.423 386.21 322.759 386.304 323.086 386.478C323.413 386.638 323.677 386.856 323.879 387.131L322.995 388.176C322.702 387.857 322.375 387.69 322.015 387.675C321.776 387.665 321.58 387.717 321.428 387.831C321.277 387.931 321.198 388.068 321.191 388.241C321.169 388.774 321.624 389.06 322.557 389.098L323.936 389.155L323.874 390.654L319.498 390.473L319.555 389.094ZM325.606 398.512L326.105 398.052C326.518 398.069 326.845 398.07 327.086 398.053C327.34 398.037 327.562 397.986 327.753 397.9C327.721 397.686 327.711 397.452 327.722 397.198C327.752 396.452 328.014 395.776 328.506 395.169C329.011 394.563 329.75 393.979 330.72 393.419L331.847 392.785L333.866 392.868L335.198 396.947C335.293 397.244 335.389 397.495 335.487 397.699C335.586 397.89 335.694 398.042 335.809 398.153C335.938 398.265 336.081 398.351 336.239 398.411C336.397 398.458 336.589 398.486 336.816 398.495L337.295 398.515L337.222 400.293L336.722 400.753C335.99 400.723 335.415 400.592 334.997 400.362C334.58 400.117 334.223 399.716 333.926 399.156L333.805 399.171L333.745 400.63L331.287 400.528C330.395 400.492 329.668 400.315 329.107 399.998C328.56 399.669 328.172 399.219 327.942 398.649L327.822 398.644C327.611 399.236 327.326 399.664 326.968 399.93C326.61 400.195 326.132 400.315 325.532 400.291L325.606 398.512ZM329.269 397.042C329.253 397.442 329.401 397.742 329.713 397.941C330.025 398.128 330.481 398.233 331.081 398.258L333.579 398.361C333.53 398.252 333.488 398.137 333.453 398.016C333.418 397.894 333.376 397.766 333.328 397.63L332.387 394.749L331.163 395.299C330.619 395.543 330.168 395.812 329.809 396.104C329.463 396.383 329.284 396.696 329.269 397.042ZM336.787 398.974L337.287 398.514L337.986 398.543C338.572 398.568 338.984 398.458 339.221 398.214C339.471 397.971 339.607 397.576 339.63 397.03L340.083 386.079L341.961 386.157L341.508 397.108C341.454 398.426 341.147 399.388 340.589 399.992C340.03 400.583 339.132 400.853 337.893 400.801L336.714 400.753L336.787 398.974ZM344.725 386.271L346.584 386.348L345.973 401.135L344.114 401.059L344.725 386.271Z" fill="#414042"/>
<path d="M183.294 302.08C182.374 302.08 181.541 301.953 180.794 301.7C180.061 301.447 179.434 301.073 178.914 300.58C178.408 300.1 178.014 299.513 177.734 298.82C177.468 298.127 177.334 297.34 177.334 296.46C177.334 295.833 177.434 295.24 177.634 294.68C177.834 294.107 178.154 293.567 178.594 293.06C179.034 292.553 179.608 292.08 180.314 291.64C181.034 291.2 181.908 290.8 182.934 290.44L186.994 289V288.9L179.834 288.68V290.18H178.034V288.66C178.034 287.1 178.928 286.373 180.714 286.48L188.414 286.96V290.4L187.434 290.74V292.24C187.434 292.8 187.561 293.193 187.814 293.42C188.081 293.633 188.494 293.74 189.054 293.74H189.714V295.52L189.234 296C188.034 296 187.174 295.733 186.654 295.2C186.148 294.653 185.894 293.76 185.894 292.52V291.26L183.574 292.04C182.788 292.307 182.114 292.573 181.554 292.84C180.994 293.093 180.534 293.373 180.174 293.68C179.814 293.987 179.548 294.327 179.374 294.7C179.214 295.073 179.134 295.5 179.134 295.98V296.36C179.134 297.453 179.481 298.293 180.174 298.88C180.868 299.467 181.934 299.76 183.374 299.76C185.254 299.76 186.854 299.1 188.174 297.78L189.414 299.56C187.788 301.24 185.748 302.08 183.294 302.08ZM183.074 296.92C182.768 296.92 182.521 296.827 182.334 296.64C182.161 296.453 182.074 296.167 182.074 295.78C182.074 295.38 182.161 295.093 182.334 294.92C182.521 294.733 182.768 294.64 183.074 294.64H183.374C183.681 294.64 183.928 294.733 184.114 294.92C184.301 295.093 184.394 295.38 184.394 295.78C184.394 296.167 184.301 296.453 184.114 296.64C183.928 296.827 183.681 296.92 183.374 296.92H183.074ZM191.983 294.86C191.676 295.273 191.309 295.567 190.883 295.74C190.456 295.913 189.909 296 189.243 296V294.22L189.723 293.74C190.229 293.74 190.596 293.633 190.823 293.42C191.063 293.193 191.283 292.813 191.483 292.28L192.043 290.84C192.363 290.013 192.783 289.353 193.303 288.86C193.836 288.353 194.549 288.1 195.443 288.1C196.536 288.1 197.376 288.567 197.963 289.5C198.549 290.42 198.843 291.713 198.843 293.38V294.16L197.343 296.36L191.983 294.86ZM192.923 292.76L197.123 293.94V293.38C197.123 292.433 196.943 291.693 196.583 291.16C196.223 290.627 195.723 290.36 195.083 290.36C194.616 290.36 194.236 290.5 193.943 290.78C193.663 291.047 193.429 291.42 193.243 291.9L192.923 292.76ZM201.025 281.2H202.885V296H201.025V281.2ZM203.073 298.54H203.833C204.513 298.54 205.08 298.453 205.533 298.28C205.987 298.107 206.353 297.86 206.633 297.54C206.913 297.233 207.113 296.86 207.233 296.42C207.353 295.98 207.413 295.487 207.413 294.94C207.413 294.58 207.393 294.207 207.353 293.82C207.313 293.433 207.26 293.047 207.193 292.66L206.773 290.24L208.493 289.92L208.773 291.6C208.84 291.987 208.893 292.36 208.933 292.72C208.987 293.08 209.027 293.42 209.053 293.74H210.913V295.52L210.433 296H209.053C208.973 296.693 208.813 297.333 208.573 297.92C208.333 298.507 208 299.013 207.573 299.44C207.16 299.867 206.647 300.2 206.033 300.44C205.42 300.68 204.693 300.8 203.853 300.8H203.073V298.54ZM210.434 294.22L210.914 293.74H211.334C212.241 293.74 212.881 293.64 213.254 293.44C213.627 293.227 213.814 292.847 213.814 292.3C213.814 292.073 213.794 291.787 213.754 291.44C213.727 291.093 213.667 290.633 213.574 290.06L213.254 288.32L214.994 288.04L215.254 289.78C215.414 290.847 215.494 291.687 215.494 292.3C215.494 293.553 215.154 294.487 214.474 295.1C213.794 295.7 212.747 296 211.334 296H210.434V294.22ZM213.654 300.14C213.347 300.14 213.101 300.047 212.914 299.86C212.741 299.673 212.654 299.387 212.654 299C212.654 298.6 212.741 298.307 212.914 298.12C213.101 297.947 213.347 297.86 213.654 297.86H213.954C214.261 297.86 214.507 297.947 214.694 298.12C214.881 298.307 214.974 298.6 214.974 299C214.974 299.387 214.881 299.673 214.694 299.86C214.507 300.047 214.261 300.14 213.954 300.14H213.654ZM173.554 325.24C172.128 325.24 170.928 325.16 169.954 325C168.981 324.853 168.194 324.613 167.594 324.28C166.994 323.933 166.561 323.487 166.294 322.94C166.041 322.38 165.914 321.7 165.914 320.9C165.914 319.833 166.188 318.64 166.734 317.32L168.274 317.78C168.021 318.313 167.828 318.807 167.694 319.26C167.561 319.7 167.494 320.113 167.494 320.5C167.494 321.287 167.861 321.86 168.594 322.22C169.341 322.567 170.554 322.74 172.234 322.74H175.034C175.954 322.74 176.714 322.72 177.314 322.68C177.928 322.627 178.414 322.54 178.774 322.42C179.134 322.3 179.388 322.14 179.534 321.94C179.694 321.74 179.774 321.487 179.774 321.18C179.774 320.967 179.761 320.7 179.734 320.38C179.708 320.047 179.641 319.607 179.534 319.06L179.214 317.32L180.954 317.04L181.234 318.78C181.301 319.287 181.354 319.747 181.394 320.16C181.434 320.56 181.454 320.9 181.454 321.18C181.454 321.967 181.328 322.62 181.074 323.14C180.821 323.66 180.388 324.073 179.774 324.38C179.174 324.687 178.368 324.907 177.354 325.04C176.341 325.173 175.074 325.24 173.554 325.24ZM174.834 317.68C174.528 317.68 174.281 317.587 174.094 317.4C173.921 317.213 173.834 316.927 173.834 316.54C173.834 316.14 173.921 315.853 174.094 315.68C174.281 315.493 174.528 315.4 174.834 315.4H175.134C175.441 315.4 175.688 315.493 175.874 315.68C176.061 315.853 176.154 316.14 176.154 316.54C176.154 316.927 176.061 317.213 175.874 317.4C175.688 317.587 175.441 317.68 175.134 317.68H174.834ZM172.014 317.68C171.708 317.68 171.461 317.587 171.274 317.4C171.101 317.213 171.014 316.927 171.014 316.54C171.014 316.14 171.101 315.853 171.274 315.68C171.461 315.493 171.708 315.4 172.014 315.4H172.314C172.621 315.4 172.868 315.493 173.054 315.68C173.241 315.853 173.334 316.14 173.334 316.54C173.334 316.927 173.241 317.213 173.054 317.4C172.868 317.587 172.621 317.68 172.314 317.68H172.014ZM183.622 310.2H185.482V325H183.622V310.2ZM189.651 325C188.971 325 188.438 324.82 188.051 324.46C187.664 324.1 187.471 323.54 187.471 322.78V321.32H189.251V322.74H192.451C193.078 322.74 193.504 322.613 193.731 322.36C193.971 322.107 194.091 321.787 194.091 321.4C194.091 321 193.938 320.573 193.631 320.12C193.324 319.667 192.798 319.08 192.051 318.36L190.011 316.26L191.631 314.62L193.471 316.62C193.911 317.087 194.278 317.527 194.571 317.94C194.878 318.34 195.124 318.733 195.311 319.12C195.498 319.493 195.631 319.873 195.711 320.26C195.804 320.633 195.851 321.04 195.851 321.48C195.851 322.587 195.538 323.453 194.911 324.08C194.284 324.693 193.398 325 192.251 325H189.651ZM201.658 325C200.351 325 199.411 324.733 198.838 324.2C198.264 323.653 197.978 322.747 197.978 321.48V310.2H199.838V321.3C199.838 321.86 199.964 322.24 200.218 322.44C200.484 322.64 200.918 322.74 201.518 322.74H202.178V324.52L201.678 325H201.658ZM201.704 323.22L202.184 322.74H202.844C203.95 322.74 204.504 322.213 204.504 321.16V318.12H206.244V321.16C206.244 322.213 206.764 322.74 207.804 322.74H208.564V324.52L208.064 325C207.077 325 206.31 324.82 205.764 324.46C205.23 324.087 204.877 323.507 204.704 322.72H204.584C204.424 323.547 204.124 324.133 203.684 324.48C203.257 324.827 202.597 325 201.704 325V323.22ZM206.624 329.14C206.317 329.14 206.07 329.047 205.884 328.86C205.71 328.673 205.624 328.387 205.624 328C205.624 327.6 205.71 327.307 205.884 327.12C206.07 326.947 206.317 326.86 206.624 326.86H206.924C207.23 326.86 207.477 326.947 207.664 327.12C207.85 327.307 207.944 327.6 207.944 328C207.944 328.387 207.85 328.673 207.664 328.86C207.477 329.047 207.23 329.14 206.924 329.14H206.624ZM203.804 329.14C203.497 329.14 203.25 329.047 203.064 328.86C202.89 328.673 202.804 328.387 202.804 328C202.804 327.6 202.89 327.307 203.064 327.12C203.25 326.947 203.497 326.86 203.804 326.86H204.104C204.41 326.86 204.657 326.947 204.844 327.12C205.03 327.307 205.124 327.6 205.124 328C205.124 328.387 205.03 328.673 204.844 328.86C204.657 329.047 204.41 329.14 204.104 329.14H203.804ZM208.09 323.22L208.57 322.74H211.15L211.19 322.64C209.99 321.613 209.39 320.407 209.39 319.02C209.39 318.46 209.477 317.933 209.65 317.44C209.837 316.947 210.097 316.513 210.43 316.14C210.764 315.767 211.157 315.473 211.61 315.26C212.077 315.047 212.59 314.94 213.15 314.94C213.71 314.94 214.217 315.047 214.67 315.26C215.137 315.473 215.53 315.767 215.85 316.14C216.184 316.5 216.444 316.933 216.63 317.44C216.817 317.933 216.91 318.46 216.91 319.02C216.91 320.393 216.31 321.6 215.11 322.64L215.15 322.74H217.75V324.52L217.27 325H217.03C216.324 325 215.644 324.92 214.99 324.76C214.35 324.587 213.737 324.307 213.15 323.92C212.577 324.307 211.964 324.587 211.31 324.76C210.657 324.92 209.984 325 209.29 325H208.09V323.22ZM213.15 322.28C213.83 321.907 214.357 321.48 214.73 321C215.104 320.52 215.29 319.96 215.29 319.32C215.29 318.68 215.097 318.167 214.71 317.78C214.337 317.393 213.85 317.2 213.25 317.2H213.03C212.43 317.2 211.937 317.393 211.55 317.78C211.177 318.167 210.99 318.68 210.99 319.32C210.99 319.96 211.177 320.52 211.55 321C211.937 321.48 212.47 321.907 213.15 322.28ZM214.37 312.9C214.064 312.9 213.817 312.807 213.63 312.62C213.457 312.433 213.37 312.147 213.37 311.76C213.37 311.36 213.457 311.073 213.63 310.9C213.817 310.713 214.064 310.62 214.37 310.62H214.67C214.977 310.62 215.224 310.713 215.41 310.9C215.597 311.073 215.69 311.36 215.69 311.76C215.69 312.147 215.597 312.433 215.41 312.62C215.224 312.807 214.977 312.9 214.67 312.9H214.37ZM211.55 312.9C211.244 312.9 210.997 312.807 210.81 312.62C210.637 312.433 210.55 312.147 210.55 311.76C210.55 311.36 210.637 311.073 210.81 310.9C210.997 310.713 211.244 310.62 211.55 310.62H211.85C212.157 310.62 212.404 310.713 212.59 310.9C212.777 311.073 212.87 311.36 212.87 311.76C212.87 312.147 212.777 312.433 212.59 312.62C212.404 312.807 212.157 312.9 211.85 312.9H211.55ZM217.27 323.22L217.75 322.74H218.45C219.037 322.74 219.443 322.613 219.67 322.36C219.91 322.107 220.03 321.707 220.03 321.16V310.2H221.91V321.16C221.91 322.48 221.643 323.453 221.11 324.08C220.577 324.693 219.69 325 218.45 325H217.27V323.22ZM224.677 310.2H226.537V325H224.677V310.2ZM171.928 354C170.714 354 169.841 353.753 169.308 353.26C168.788 352.753 168.528 351.973 168.528 350.92V350.68H168.428C168.228 351.427 167.914 351.967 167.488 352.3C167.061 352.62 166.501 352.78 165.808 352.78C164.888 352.78 164.181 352.533 163.688 352.04C163.194 351.547 162.948 350.853 162.948 349.96C162.948 349.507 163.014 349.093 163.148 348.72C163.281 348.333 163.488 347.973 163.768 347.64C164.048 347.307 164.394 346.993 164.808 346.7C165.234 346.393 165.734 346.087 166.308 345.78L168.428 344.66V343.6H170.248V350.48C170.248 350.96 170.368 351.293 170.608 351.48C170.848 351.653 171.228 351.74 171.748 351.74H172.408V353.52L171.928 354ZM166.248 350.52C167.048 350.52 167.608 350.42 167.928 350.22C168.261 350.02 168.428 349.667 168.428 349.16V346.46L166.628 347.38C165.908 347.753 165.388 348.087 165.068 348.38C164.748 348.66 164.588 349.007 164.588 349.42C164.588 349.807 164.708 350.087 164.948 350.26C165.201 350.433 165.634 350.52 166.248 350.52ZM169.228 341.98C168.921 341.98 168.674 341.887 168.488 341.7C168.314 341.513 168.228 341.227 168.228 340.84C168.228 340.44 168.314 340.153 168.488 339.98C168.674 339.793 168.921 339.7 169.228 339.7H169.528C169.834 339.7 170.081 339.793 170.268 339.98C170.454 340.153 170.548 340.44 170.548 340.84C170.548 341.227 170.454 341.513 170.268 341.7C170.081 341.887 169.834 341.98 169.528 341.98H169.228ZM166.408 341.98C166.101 341.98 165.854 341.887 165.668 341.7C165.494 341.513 165.408 341.227 165.408 340.84C165.408 340.44 165.494 340.153 165.668 339.98C165.854 339.793 166.101 339.7 166.408 339.7H166.708C167.014 339.7 167.261 339.793 167.448 339.98C167.634 340.153 167.728 340.44 167.728 340.84C167.728 341.227 167.634 341.513 167.448 341.7C167.261 341.887 167.014 341.98 166.708 341.98H166.408ZM174.668 352.86C174.362 353.273 173.995 353.567 173.568 353.74C173.142 353.913 172.595 354 171.928 354V352.22L172.408 351.74C172.915 351.74 173.282 351.633 173.508 351.42C173.748 351.193 173.968 350.813 174.168 350.28L174.728 348.84C175.048 348.013 175.468 347.353 175.988 346.86C176.522 346.353 177.235 346.1 178.128 346.1C179.222 346.1 180.062 346.567 180.648 347.5C181.235 348.42 181.528 349.713 181.528 351.38V352.16L180.028 354.36L174.668 352.86ZM175.608 350.76L179.808 351.94V351.38C179.808 350.433 179.628 349.693 179.268 349.16C178.908 348.627 178.408 348.36 177.768 348.36C177.302 348.36 176.922 348.5 176.628 348.78C176.348 349.047 176.115 349.42 175.928 349.9L175.608 350.76ZM185.11 354C184.43 354 183.897 353.82 183.51 353.46C183.123 353.1 182.93 352.54 182.93 351.78V350.32H184.71V351.74H187.43C188.137 351.74 188.623 351.68 188.89 351.56C189.157 351.44 189.29 351.213 189.29 350.88C189.29 350.733 189.257 350.553 189.19 350.34C189.123 350.113 189.03 349.827 188.91 349.48L187.05 344.3L188.95 343.62L190.99 349.28C191.163 349.773 191.323 350.18 191.47 350.5C191.63 350.807 191.79 351.053 191.95 351.24C192.11 351.427 192.277 351.56 192.45 351.64C192.637 351.707 192.85 351.74 193.09 351.74H193.63V353.52L193.13 354C192.69 354 192.303 353.967 191.97 353.9C191.637 353.82 191.337 353.7 191.07 353.54C190.817 353.367 190.583 353.14 190.37 352.86C190.17 352.58 189.97 352.227 189.77 351.8L189.67 351.82C189.55 352.607 189.283 353.167 188.87 353.5C188.457 353.833 187.823 354 186.97 354H185.11ZM193.159 352.22L193.639 351.74H196.219L196.259 351.64C195.059 350.613 194.459 349.407 194.459 348.02C194.459 347.46 194.545 346.933 194.719 346.44C194.905 345.947 195.165 345.513 195.499 345.14C195.832 344.767 196.225 344.473 196.679 344.26C197.145 344.047 197.659 343.94 198.219 343.94C198.779 343.94 199.285 344.047 199.739 344.26C200.205 344.473 200.599 344.767 200.919 345.14C201.252 345.5 201.512 345.933 201.699 346.44C201.885 346.933 201.979 347.46 201.979 348.02C201.979 349.393 201.379 350.6 200.179 351.64L200.219 351.74H202.819V353.52L202.339 354H202.099C201.392 354 200.712 353.92 200.059 353.76C199.419 353.587 198.805 353.307 198.219 352.92C197.645 353.307 197.032 353.587 196.379 353.76C195.725 353.92 195.052 354 194.359 354H193.159V352.22ZM198.219 351.28C198.899 350.907 199.425 350.48 199.799 350C200.172 349.52 200.359 348.96 200.359 348.32C200.359 347.68 200.165 347.167 199.779 346.78C199.405 346.393 198.919 346.2 198.319 346.2H198.099C197.499 346.2 197.005 346.393 196.619 346.78C196.245 347.167 196.059 347.68 196.059 348.32C196.059 348.96 196.245 349.52 196.619 350C197.005 350.48 197.539 350.907 198.219 351.28ZM199.439 341.9C199.132 341.9 198.885 341.807 198.699 341.62C198.525 341.433 198.439 341.147 198.439 340.76C198.439 340.36 198.525 340.073 198.699 339.9C198.885 339.713 199.132 339.62 199.439 339.62H199.739C200.045 339.62 200.292 339.713 200.479 339.9C200.665 340.073 200.759 340.36 200.759 340.76C200.759 341.147 200.665 341.433 200.479 341.62C200.292 341.807 200.045 341.9 199.739 341.9H199.439ZM196.619 341.9C196.312 341.9 196.065 341.807 195.879 341.62C195.705 341.433 195.619 341.147 195.619 340.76C195.619 340.36 195.705 340.073 195.879 339.9C196.065 339.713 196.312 339.62 196.619 339.62H196.919C197.225 339.62 197.472 339.713 197.659 339.9C197.845 340.073 197.939 340.36 197.939 340.76C197.939 341.147 197.845 341.433 197.659 341.62C197.472 341.807 197.225 341.9 196.919 341.9H196.619ZM202.338 352.22L202.818 351.74H203.478C204.585 351.74 205.138 351.213 205.138 350.16V347.12H206.878V350.16C206.878 351.213 207.398 351.74 208.438 351.74H209.198V353.52L208.698 354C207.712 354 206.945 353.82 206.398 353.46C205.865 353.087 205.512 352.507 205.338 351.72H205.218C205.058 352.547 204.758 353.133 204.318 353.48C203.892 353.827 203.232 354 202.338 354V352.22ZM207.218 345.08C206.912 345.08 206.665 344.987 206.478 344.8C206.305 344.613 206.218 344.327 206.218 343.94C206.218 343.54 206.305 343.253 206.478 343.08C206.665 342.893 206.912 342.8 207.218 342.8H207.518C207.825 342.8 208.072 342.893 208.258 343.08C208.445 343.253 208.538 343.54 208.538 343.94C208.538 344.327 208.445 344.613 208.258 344.8C208.072 344.987 207.825 345.08 207.518 345.08H207.218ZM204.398 345.08C204.092 345.08 203.845 344.987 203.658 344.8C203.485 344.613 203.398 344.327 203.398 343.94C203.398 343.54 203.485 343.253 203.658 343.08C203.845 342.893 204.092 342.8 204.398 342.8H204.698C205.005 342.8 205.252 342.893 205.438 343.08C205.625 343.253 205.718 343.54 205.718 343.94C205.718 344.327 205.625 344.613 205.438 344.8C205.252 344.987 205.005 345.08 204.698 345.08H204.398ZM208.725 352.22L209.205 351.74C209.618 351.74 209.945 351.727 210.185 351.7C210.438 351.673 210.658 351.613 210.845 351.52C210.805 351.307 210.785 351.073 210.785 350.82C210.785 350.073 211.018 349.387 211.485 348.76C211.965 348.133 212.678 347.52 213.625 346.92L214.725 346.24H216.745L218.245 350.26C218.352 350.553 218.458 350.8 218.565 351C218.672 351.187 218.785 351.333 218.905 351.44C219.038 351.547 219.185 351.627 219.345 351.68C219.505 351.72 219.698 351.74 219.925 351.74H220.405V353.52L219.925 354C219.192 354 218.612 353.893 218.185 353.68C217.758 353.453 217.385 353.067 217.065 352.52L216.945 352.54V354H214.485C213.592 354 212.858 353.853 212.285 353.56C211.725 353.253 211.318 352.82 211.065 352.26H210.945C210.758 352.86 210.492 353.3 210.145 353.58C209.798 353.86 209.325 354 208.725 354V352.22ZM212.325 350.6C212.325 351 212.485 351.293 212.805 351.48C213.125 351.653 213.585 351.74 214.185 351.74H216.685C216.632 351.633 216.585 351.52 216.545 351.4C216.505 351.28 216.458 351.153 216.405 351.02L215.345 348.18L214.145 348.78C213.612 349.047 213.172 349.333 212.825 349.64C212.492 349.933 212.325 350.253 212.325 350.6ZM219.916 352.22L220.396 351.74H221.096C221.683 351.74 222.09 351.613 222.316 351.36C222.556 351.107 222.676 350.707 222.676 350.16V339.2H224.556V350.16C224.556 351.48 224.29 352.453 223.756 353.08C223.223 353.693 222.336 354 221.096 354H219.916V352.22ZM227.323 339.2H229.183V354H227.323V339.2Z" fill="#414042"/>
<path d="M52.8491 243.034C51.4224 243.034 50.2224 242.954 49.2491 242.794C48.2757 242.647 47.4891 242.407 46.8891 242.074C46.2891 241.727 45.8557 241.281 45.5891 240.734C45.3357 240.174 45.2091 239.494 45.2091 238.694C45.2091 237.627 45.4824 236.434 46.0291 235.114L47.5691 235.574C47.3157 236.107 47.1224 236.601 46.9891 237.054C46.8557 237.494 46.7891 237.907 46.7891 238.294C46.7891 239.081 47.1557 239.654 47.8891 240.014C48.6357 240.361 49.8491 240.534 51.5291 240.534H54.3291C55.2491 240.534 56.0091 240.514 56.6091 240.474C57.2224 240.421 57.7091 240.334 58.0691 240.214C58.4291 240.094 58.6824 239.934 58.8291 239.734C58.9891 239.534 59.0691 239.281 59.0691 238.974C59.0691 238.761 59.0557 238.494 59.0291 238.174C59.0024 237.841 58.9357 237.401 58.8291 236.854L58.5091 235.114L60.2491 234.834L60.5291 236.574C60.5957 237.081 60.6491 237.541 60.6891 237.954C60.7291 238.354 60.7491 238.694 60.7491 238.974C60.7491 239.761 60.6224 240.414 60.3691 240.934C60.1157 241.454 59.6824 241.867 59.0691 242.174C58.4691 242.481 57.6624 242.701 56.6491 242.834C55.6357 242.967 54.3691 243.034 52.8491 243.034ZM54.1291 235.474C53.8224 235.474 53.5757 235.381 53.3891 235.194C53.2157 235.007 53.1291 234.721 53.1291 234.334C53.1291 233.934 53.2157 233.647 53.3891 233.474C53.5757 233.287 53.8224 233.194 54.1291 233.194H54.4291C54.7357 233.194 54.9824 233.287 55.1691 233.474C55.3557 233.647 55.4491 233.934 55.4491 234.334C55.4491 234.721 55.3557 235.007 55.1691 235.194C54.9824 235.381 54.7357 235.474 54.4291 235.474H54.1291ZM51.3091 235.474C51.0024 235.474 50.7557 235.381 50.5691 235.194C50.3957 235.007 50.3091 234.721 50.3091 234.334C50.3091 233.934 50.3957 233.647 50.5691 233.474C50.7557 233.287 51.0024 233.194 51.3091 233.194H51.6091C51.9157 233.194 52.1624 233.287 52.3491 233.474C52.5357 233.647 52.6291 233.934 52.6291 234.334C52.6291 234.721 52.5357 235.007 52.3491 235.194C52.1624 235.381 51.9157 235.474 51.6091 235.474H51.3091ZM62.917 227.994H64.777V242.794H62.917V227.994ZM64.9659 245.334H65.7259C66.4059 245.334 66.9726 245.247 67.4259 245.074C67.8793 244.901 68.2459 244.654 68.5259 244.334C68.8059 244.027 69.0059 243.654 69.1259 243.214C69.2459 242.774 69.3059 242.281 69.3059 241.734C69.3059 241.374 69.2859 241.001 69.2459 240.614C69.2059 240.227 69.1526 239.841 69.0859 239.454L68.6659 237.034L70.3859 236.714L70.6659 238.394C70.8926 239.687 71.0059 240.794 71.0059 241.714C71.0059 242.541 70.9059 243.307 70.7059 244.014C70.5193 244.734 70.2126 245.361 69.7859 245.894C69.3593 246.427 68.8126 246.841 68.1459 247.134C67.4793 247.441 66.6793 247.594 65.7459 247.594H64.9659V245.334ZM76.8314 242.794C75.5247 242.794 74.5847 242.527 74.0114 241.994C73.4381 241.447 73.1514 240.541 73.1514 239.274V227.994H75.0114V239.094C75.0114 239.654 75.1381 240.034 75.3914 240.234C75.6581 240.434 76.0914 240.534 76.6914 240.534H77.3514V242.314L76.8514 242.794H76.8314ZM76.8773 241.014L77.3573 240.534H77.7573C78.0373 240.534 78.284 240.514 78.4973 240.474C78.7107 240.434 78.8973 240.361 79.0573 240.254C79.2173 240.147 79.364 240.007 79.4973 239.834C79.6307 239.661 79.764 239.441 79.8973 239.174L80.7173 237.514L82.2173 238.274L81.3173 240.054L81.4573 240.134C81.8573 240.361 82.2373 240.527 82.5973 240.634C82.9707 240.741 83.3507 240.794 83.7373 240.794C84.3373 240.794 84.7773 240.661 85.0573 240.394C85.3373 240.114 85.4773 239.634 85.4773 238.954V237.514H87.2174V238.954C87.2174 239.607 87.304 240.074 87.4774 240.354C87.664 240.621 87.984 240.754 88.4373 240.754H88.7973C89.224 240.754 89.5307 240.621 89.7174 240.354C89.9173 240.074 90.0173 239.607 90.0173 238.954V236.714H91.7573V238.954C91.7573 240.007 92.2774 240.534 93.3174 240.534H94.0773V242.314L93.5774 242.794C92.644 242.794 91.9174 242.627 91.3973 242.294C90.8907 241.947 90.544 241.414 90.3574 240.694H90.2574C90.1774 241.534 89.9574 242.134 89.5974 242.494C89.2507 242.854 88.7574 243.034 88.1174 243.034C86.7573 243.034 85.9507 242.254 85.6973 240.694H85.5773C85.3507 242.254 84.6107 243.034 83.3573 243.034C82.9707 243.034 82.5707 242.961 82.1573 242.814C81.7573 242.667 81.2773 242.427 80.7173 242.094L80.1773 241.774C79.7773 242.187 79.324 242.461 78.8173 242.594C78.3107 242.727 77.664 242.794 76.8773 242.794V241.014ZM87.6373 235.474C87.3307 235.474 87.084 235.381 86.8973 235.194C86.7107 235.007 86.6173 234.721 86.6173 234.334C86.6173 233.934 86.7107 233.647 86.8973 233.474C87.084 233.287 87.3307 233.194 87.6373 233.194H87.9173C88.224 233.194 88.4707 233.287 88.6573 233.474C88.844 233.647 88.9374 233.934 88.9374 234.334C88.9374 234.721 88.844 235.007 88.6573 235.194C88.4707 235.381 88.224 235.474 87.9173 235.474H87.6373ZM84.7973 235.474C84.4907 235.474 84.244 235.381 84.0573 235.194C83.884 235.007 83.7973 234.721 83.7973 234.334C83.7973 233.934 83.884 233.647 84.0573 233.474C84.244 233.287 84.4907 233.194 84.7973 233.194H85.0973C85.404 233.194 85.6507 233.287 85.8373 233.474C86.024 233.647 86.1173 233.934 86.1173 234.334C86.1173 234.721 86.024 235.007 85.8373 235.194C85.6507 235.381 85.404 235.474 85.0973 235.474H84.7973ZM86.2173 232.834C85.924 232.834 85.684 232.747 85.4973 232.574C85.3107 232.387 85.2173 232.101 85.2173 231.714C85.2173 231.327 85.3107 231.047 85.4973 230.874C85.684 230.701 85.924 230.614 86.2173 230.614H86.5174C86.8107 230.614 87.044 230.701 87.2174 230.874C87.404 231.047 87.4973 231.327 87.4973 231.714C87.4973 232.101 87.404 232.387 87.2174 232.574C87.044 232.747 86.8107 232.834 86.5174 232.834H86.2173ZM93.5961 241.014L94.0761 240.534H94.7361C95.8428 240.534 96.3961 240.007 96.3961 238.954V235.914H98.1361V238.954C98.1361 240.007 98.6561 240.534 99.6961 240.534H100.456V242.314L99.9561 242.794C98.9694 242.794 98.2028 242.614 97.6561 242.254C97.1228 241.881 96.7694 241.301 96.5961 240.514H96.4761C96.3161 241.341 96.0161 241.927 95.5761 242.274C95.1494 242.621 94.4894 242.794 93.5961 242.794V241.014ZM98.4761 233.874C98.1694 233.874 97.9228 233.781 97.7361 233.594C97.5628 233.407 97.4761 233.121 97.4761 232.734C97.4761 232.334 97.5628 232.047 97.7361 231.874C97.9228 231.687 98.1694 231.594 98.4761 231.594H98.7761C99.0828 231.594 99.3294 231.687 99.5161 231.874C99.7028 232.047 99.7961 232.334 99.7961 232.734C99.7961 233.121 99.7028 233.407 99.5161 233.594C99.3294 233.781 99.0828 233.874 98.7761 233.874H98.4761ZM95.6561 233.874C95.3494 233.874 95.1028 233.781 94.9161 233.594C94.7428 233.407 94.6561 233.121 94.6561 232.734C94.6561 232.334 94.7428 232.047 94.9161 231.874C95.1028 231.687 95.3494 231.594 95.6561 231.594H95.9561C96.2628 231.594 96.5094 231.687 96.6961 231.874C96.8828 232.047 96.9761 232.334 96.9761 232.734C96.9761 233.121 96.8828 233.407 96.6961 233.594C96.5094 233.781 96.2628 233.874 95.9561 233.874H95.6561ZM99.9828 241.014L100.463 240.534H100.863C101.143 240.534 101.389 240.514 101.603 240.474C101.816 240.434 102.003 240.361 102.163 240.254C102.323 240.147 102.469 240.007 102.603 239.834C102.736 239.661 102.869 239.441 103.003 239.174L103.823 237.514L105.323 238.274L104.403 240.054L104.543 240.134C104.943 240.361 105.329 240.527 105.703 240.634C106.076 240.741 106.456 240.794 106.843 240.794C107.443 240.794 107.883 240.661 108.163 240.394C108.443 240.114 108.583 239.634 108.583 238.954V237.514H110.323V238.954C110.323 239.607 110.423 240.074 110.623 240.354C110.823 240.621 111.136 240.754 111.563 240.754H111.863C112.623 240.754 113.003 240.321 113.003 239.454C113.003 239.027 112.943 238.414 112.823 237.614L112.643 236.554L114.363 236.294L114.523 237.334C114.576 237.734 114.616 238.114 114.643 238.474C114.669 238.834 114.683 239.161 114.683 239.454C114.683 240.627 114.429 241.521 113.923 242.134C113.429 242.734 112.689 243.034 111.703 243.034C110.849 243.034 110.189 242.841 109.723 242.454C109.256 242.067 108.949 241.481 108.803 240.694H108.683C108.456 242.254 107.716 243.034 106.463 243.034C106.076 243.034 105.676 242.961 105.263 242.814C104.863 242.667 104.383 242.427 103.823 242.094L103.283 241.774C102.896 242.187 102.443 242.461 101.923 242.594C101.416 242.727 100.769 242.794 99.9828 242.794V241.014ZM116.843 227.994H118.703V242.794H116.843V227.994ZM58.0292 271.794C56.8159 271.794 55.9426 271.547 55.4092 271.054C54.8892 270.547 54.6292 269.767 54.6292 268.714V268.474H54.5292C54.3292 269.221 54.0159 269.761 53.5892 270.094C53.1626 270.414 52.6026 270.574 51.9092 270.574C50.9892 270.574 50.2826 270.327 49.7892 269.834C49.2959 269.341 49.0492 268.647 49.0492 267.754C49.0492 267.301 49.1159 266.887 49.2492 266.514C49.3826 266.127 49.5892 265.767 49.8692 265.434C50.1492 265.101 50.4959 264.787 50.9092 264.494C51.3359 264.187 51.8359 263.881 52.4092 263.574L54.5292 262.454V261.394H56.3492V268.274C56.3492 268.754 56.4692 269.087 56.7092 269.274C56.9492 269.447 57.3292 269.534 57.8492 269.534H58.5092V271.314L58.0292 271.794ZM52.3492 268.314C53.1492 268.314 53.7092 268.214 54.0292 268.014C54.3626 267.814 54.5292 267.461 54.5292 266.954V264.254L52.7292 265.174C52.0092 265.547 51.4892 265.881 51.1692 266.174C50.8492 266.454 50.6892 266.801 50.6892 267.214C50.6892 267.601 50.8092 267.881 51.0492 268.054C51.3026 268.227 51.7359 268.314 52.3492 268.314ZM55.3292 259.774C55.0226 259.774 54.7759 259.681 54.5892 259.494C54.4159 259.307 54.3292 259.021 54.3292 258.634C54.3292 258.234 54.4159 257.947 54.5892 257.774C54.7759 257.587 55.0226 257.494 55.3292 257.494H55.6292C55.9359 257.494 56.1826 257.587 56.3692 257.774C56.5559 257.947 56.6492 258.234 56.6492 258.634C56.6492 259.021 56.5559 259.307 56.3692 259.494C56.1826 259.681 55.9359 259.774 55.6292 259.774H55.3292ZM52.5092 259.774C52.2026 259.774 51.9559 259.681 51.7692 259.494C51.5959 259.307 51.5092 259.021 51.5092 258.634C51.5092 258.234 51.5959 257.947 51.7692 257.774C51.9559 257.587 52.2026 257.494 52.5092 257.494H52.8092C53.1159 257.494 53.3626 257.587 53.5492 257.774C53.7359 257.947 53.8292 258.234 53.8292 258.634C53.8292 259.021 53.7359 259.307 53.5492 259.494C53.3626 259.681 53.1159 259.774 52.8092 259.774H52.5092ZM58.0297 270.014L58.5097 269.534H59.1697C60.2764 269.534 60.8297 269.007 60.8297 267.954V264.914H62.5697V267.954C62.5697 269.007 63.0897 269.534 64.1297 269.534H64.8897V271.314L64.3897 271.794C63.403 271.794 62.6364 271.614 62.0897 271.254C61.5564 270.881 61.203 270.301 61.0297 269.514H60.9097C60.7497 270.341 60.4497 270.927 60.0097 271.274C59.583 271.621 58.923 271.794 58.0297 271.794V270.014ZM62.9497 275.934C62.643 275.934 62.3964 275.841 62.2097 275.654C62.0364 275.467 61.9497 275.181 61.9497 274.794C61.9497 274.394 62.0364 274.101 62.2097 273.914C62.3964 273.741 62.643 273.654 62.9497 273.654H63.2497C63.5564 273.654 63.803 273.741 63.9897 273.914C64.1764 274.101 64.2697 274.394 64.2697 274.794C64.2697 275.181 64.1764 275.467 63.9897 275.654C63.803 275.841 63.5564 275.934 63.2497 275.934H62.9497ZM60.1297 275.934C59.823 275.934 59.5764 275.841 59.3897 275.654C59.2164 275.467 59.1297 275.181 59.1297 274.794C59.1297 274.394 59.2164 274.101 59.3897 273.914C59.5764 273.741 59.823 273.654 60.1297 273.654H60.4297C60.7364 273.654 60.983 273.741 61.1697 273.914C61.3564 274.101 61.4497 274.394 61.4497 274.794C61.4497 275.181 61.3564 275.467 61.1697 275.654C60.983 275.841 60.7364 275.934 60.4297 275.934H60.1297ZM64.4164 270.014L64.8964 269.534H65.2964C65.5764 269.534 65.8231 269.514 66.0364 269.474C66.2497 269.434 66.4364 269.361 66.5964 269.254C66.7564 269.147 66.9031 269.007 67.0364 268.834C67.1697 268.661 67.3031 268.441 67.4364 268.174L68.2564 266.514L69.7564 267.274L68.8564 269.054L68.9964 269.134C69.3964 269.361 69.7764 269.527 70.1364 269.634C70.5097 269.741 70.8897 269.794 71.2764 269.794C71.8764 269.794 72.3164 269.661 72.5964 269.394C72.8764 269.114 73.0164 268.634 73.0164 267.954V266.514H74.7564V267.954C74.7564 268.607 74.8431 269.074 75.0164 269.354C75.2031 269.621 75.5231 269.754 75.9764 269.754H76.3364C76.7631 269.754 77.0697 269.621 77.2564 269.354C77.4564 269.074 77.5564 268.607 77.5564 267.954V265.714H79.2964V267.954C79.2964 269.007 79.8164 269.534 80.8564 269.534H81.6164V271.314L81.1164 271.794C80.1831 271.794 79.4564 271.627 78.9364 271.294C78.4297 270.947 78.0831 270.414 77.8964 269.694H77.7964C77.7164 270.534 77.4964 271.134 77.1364 271.494C76.7897 271.854 76.2964 272.034 75.6564 272.034C74.2964 272.034 73.4897 271.254 73.2364 269.694H73.1164C72.8897 271.254 72.1497 272.034 70.8964 272.034C70.5097 272.034 70.1097 271.961 69.6964 271.814C69.2964 271.667 68.8164 271.427 68.2564 271.094L67.7164 270.774C67.3164 271.187 66.8631 271.461 66.3564 271.594C65.8497 271.727 65.2031 271.794 64.4164 271.794V270.014ZM81.1352 270.014L81.6152 269.534H82.0152C82.2952 269.534 82.5418 269.514 82.7552 269.474C82.9685 269.434 83.1552 269.361 83.3152 269.254C83.4752 269.147 83.6218 269.007 83.7552 268.834C83.8885 268.661 84.0218 268.441 84.1552 268.174L84.9752 266.514L86.4752 267.274L85.5552 269.054L85.6952 269.134C86.0952 269.361 86.4818 269.527 86.8552 269.634C87.2285 269.741 87.6085 269.794 87.9952 269.794C88.5952 269.794 89.0352 269.661 89.3152 269.394C89.5952 269.114 89.7352 268.634 89.7352 267.954V266.514H91.4752V267.954C91.4752 268.607 91.5752 269.074 91.7752 269.354C91.9752 269.621 92.2885 269.754 92.7152 269.754H93.0152C93.7752 269.754 94.1552 269.321 94.1552 268.454C94.1552 268.027 94.0952 267.414 93.9752 266.614L93.7952 265.554L95.5152 265.294L95.6752 266.334C95.7285 266.734 95.7685 267.114 95.7952 267.474C95.8218 267.834 95.8352 268.161 95.8352 268.454C95.8352 269.627 95.5818 270.521 95.0752 271.134C94.5818 271.734 93.8418 272.034 92.8552 272.034C92.0018 272.034 91.3418 271.841 90.8752 271.454C90.4085 271.067 90.1018 270.481 89.9552 269.694H89.8352C89.6085 271.254 88.8685 272.034 87.6152 272.034C87.2285 272.034 86.8285 271.961 86.4152 271.814C86.0152 271.667 85.5352 271.427 84.9752 271.094L84.4352 270.774C84.0485 271.187 83.5952 271.461 83.0752 271.594C82.5685 271.727 81.9218 271.794 81.1352 271.794V270.014ZM97.2552 274.334H98.4152C99.8152 274.334 100.908 274.107 101.695 273.654C102.482 273.214 103.002 272.594 103.255 271.794H100.855C99.7752 271.794 98.9352 271.501 98.3352 270.914C97.7485 270.327 97.4552 269.494 97.4552 268.414C97.4552 267.774 97.5485 267.174 97.7352 266.614C97.9352 266.054 98.2018 265.574 98.5352 265.174C98.8818 264.761 99.2885 264.434 99.7552 264.194C100.222 263.954 100.735 263.834 101.295 263.834C102.468 263.834 103.382 264.334 104.035 265.334C104.702 266.334 105.048 267.734 105.075 269.534H106.015V271.314L105.535 271.794H104.855C104.522 273.327 103.822 274.507 102.755 275.334C101.702 276.174 100.282 276.594 98.4952 276.594H97.2552V274.334ZM99.1152 268.134C99.1152 268.627 99.2685 268.987 99.5752 269.214C99.8818 269.427 100.335 269.534 100.935 269.534H103.415V269.154C103.415 268.234 103.202 267.501 102.775 266.954C102.348 266.394 101.795 266.114 101.115 266.114C100.502 266.114 100.015 266.301 99.6552 266.674C99.2952 267.047 99.1152 267.534 99.1152 268.134ZM99.0952 260.854H99.8752L99.8952 260.754C99.6418 260.474 99.5152 260.127 99.5152 259.714C99.5152 259.181 99.7018 258.741 100.075 258.394C100.448 258.034 100.922 257.854 101.495 257.854C101.842 257.854 102.182 257.934 102.515 258.094C102.848 258.241 103.122 258.447 103.335 258.714L102.495 259.794C102.188 259.487 101.855 259.334 101.495 259.334C101.255 259.334 101.062 259.394 100.915 259.514C100.768 259.621 100.695 259.761 100.695 259.934C100.695 260.467 101.162 260.734 102.095 260.734H103.475V262.234H99.0952V260.854ZM108.27 270.654C107.963 271.067 107.596 271.361 107.17 271.534C106.743 271.707 106.196 271.794 105.53 271.794V270.014L106.01 269.534C106.516 269.534 106.883 269.427 107.11 269.214C107.35 268.987 107.57 268.607 107.77 268.074L108.33 266.634C108.65 265.807 109.07 265.147 109.59 264.654C110.123 264.147 110.836 263.894 111.73 263.894C112.823 263.894 113.663 264.361 114.25 265.294C114.836 266.214 115.13 267.507 115.13 269.174V269.954L113.63 272.154L108.27 270.654ZM109.21 268.554L113.41 269.734V269.174C113.41 268.227 113.23 267.487 112.87 266.954C112.51 266.421 112.01 266.154 111.37 266.154C110.903 266.154 110.523 266.294 110.23 266.574C109.95 266.841 109.716 267.214 109.53 267.694L109.21 268.554Z" fill="#414042"/>
</g>
<defs>
<clipPath id="clip0_223_15032">
<rect width="689" height="596" fill="white"/>
</clipPath>
</defs>
</svg>
