<svg width="545" height="472" viewBox="0 0 545 472" fill="none" xmlns="http://www.w3.org/2000/svg">
<g opacity="0.19">
<path d="M271.558 0C274.752 1.44007 519.138 429.918 545 471.728L477.678 471.871C454.809 472.119 431.938 472.01 409.073 471.54C400.318 460.207 391.877 443.925 384.656 431.204C373.321 411.077 361.833 391.035 350.192 371.083C302.208 288.085 253.65 200.309 204 118.865C220.836 83.363 252.731 38.0556 271.558 0Z" fill="#D9CEA9"/>
<path d="M90.2727 149C122.394 149.304 154.518 149.343 186.641 149.117C192.572 162.876 203.364 180.424 211.098 193.647C225.33 217.682 239.419 241.803 253.365 266.004C247.476 281.007 235.767 299.986 227.46 314.283L186.919 383.837C180.099 395.518 173.207 407.189 166.566 418.968C162.759 425.721 160.464 432.36 156.023 438.859C162.037 440.432 212.904 439.333 222.209 439.258C228.876 448.509 231.002 451.806 235.318 462.272C244.624 462.901 283.116 459.654 285 468.475C277.261 474.007 178.061 471.369 161.186 471.387L0 471.186C9.42413 453.627 22.8113 432.082 33.0442 414.444L99.612 299.262L140.942 227.549C149.346 212.992 159.118 194.704 169.076 181.525L81.8712 181.127C70.6643 181.05 47.6667 181.528 37.1962 180.411L36.0595 178.226C41.8527 170.078 67.9726 172.519 77.8595 172.657C82.2116 163.338 87.6144 159.772 90.2727 149Z" fill="#C2B27B"/>
</g>
</svg>
