<svg viewBox="0 0 32 32" fill="none" xmlns="http://www.w3.org/2000/svg" xmlns:xlink="http://www.w3.org/1999/xlink" x="0" y="0"><g id="iconsax-arrow-circle-down">
<path id="Vector_814" d="M16.001,1.6687c-7.906,0 -14.333,6.42 -14.333,14.33c0,7.91 6.427,14.33 14.333,14.33c7.907,0 14.334,-6.42 14.334,-14.33c0,-7.91 -6.427,-14.33 -14.334,-14.33zM16.001,28.3287c-6.8,0 -12.333,-5.53 -12.333,-12.33c0,-6.8 5.533,-12.33 12.333,-12.33c6.8,0 12.334,5.53 12.334,12.33c0,6.8 -5.534,12.33 -12.334,12.33z" fill="currentColor"/>
<path id="Vector_815" d="M16,11.9887c-0.253,0 -0.506,0.09 -0.706,0.29l-4.707,4.71c-0.387,0.39 -0.387,1.03 0,1.41c0.387,0.39 1.027,0.39 1.413,0l4,-4l4,4c0.387,0.39 1.027,0.39 1.414,0c0.386,-0.38 0.386,-1.02 0,-1.41l-4.707,-4.71c-0.2,-0.2 -0.453,-0.29 -0.707,-0.29z" fill="currentColor"/>
</g></svg>