<svg width="66" height="75" viewBox="0 0 66 75" fill="none" xmlns="http://www.w3.org/2000/svg">
<path d="M53.3319 32.036C53.3319 20.4822 43.6943 11.1789 32.0201 11.7272C21.7434 12.2098 13.2679 20.6116 12.6999 30.8846C12.3206 37.7423 15.3513 43.8963 20.2415 47.8419C21.8135 49.1101 22.7312 51.0155 22.7312 53.0342V57.2441C22.7312 58.9059 24.0784 60.2523 25.7394 60.2523H40.2628C41.9246 60.2523 43.271 58.905 43.271 57.2441V53.0351C43.271 51.0398 44.1491 49.1335 45.7058 47.886C50.3507 44.1623 53.3319 38.4533 53.3319 32.036Z" stroke="#B4A571" stroke-width="3" stroke-miterlimit="10" stroke-linecap="round" stroke-linejoin="round"/>
<path d="M32.9998 73.3219C28.4735 73.3219 24.8047 69.6531 24.8047 65.1269V60.251H41.1948V65.1269C41.1948 69.6531 37.526 73.3219 32.9998 73.3219Z" stroke="#B4A571" stroke-width="3" stroke-miterlimit="10" stroke-linecap="round" stroke-linejoin="round"/>
<path d="M35.3994 60.2543V46.4814H30.6026L30.6026 60.2543H35.3994Z" stroke="#B4A571" stroke-width="3" stroke-miterlimit="10" stroke-linecap="round" stroke-linejoin="round"/>
<path d="M27.9769 41.2305C29.4266 41.2305 30.6022 42.4061 30.6022 43.8558V46.4811H27.9769C26.5272 46.4811 25.3516 45.3055 25.3516 43.8558C25.3516 42.4061 26.5263 41.2305 27.9769 41.2305Z" stroke="#B4A571" stroke-width="3" stroke-miterlimit="10" stroke-linecap="round" stroke-linejoin="round"/>
<path d="M38.0248 41.2305C36.575 41.2305 35.3994 42.4061 35.3994 43.8558V46.4811H38.0248C39.4745 46.4811 40.6501 45.3055 40.6501 43.8558C40.6501 42.4061 39.4745 41.2305 38.0248 41.2305Z" stroke="#B4A571" stroke-width="3" stroke-miterlimit="10" stroke-linecap="round" stroke-linejoin="round"/>
<path d="M25.3516 65.4551H33.0002" stroke="#B4A571" stroke-width="3" stroke-miterlimit="10" stroke-linecap="round" stroke-linejoin="round"/>
<path d="M9.76627 42.6416L4.05273 45.2561" stroke="#B4A571" stroke-width="3" stroke-miterlimit="10" stroke-linecap="round" stroke-linejoin="round"/>
<path d="M7.72405 28.4019L1.5 27.5059" stroke="#B4A571" stroke-width="3" stroke-miterlimit="10" stroke-linecap="round" stroke-linejoin="round"/>
<path d="M13.6998 15.3173L8.94434 11.1973" stroke="#B4A571" stroke-width="3" stroke-miterlimit="10" stroke-linecap="round" stroke-linejoin="round"/>
<path d="M25.8002 7.52452L24.0332 1.5" stroke="#B4A571" stroke-width="3" stroke-miterlimit="10" stroke-linecap="round" stroke-linejoin="round"/>
<path d="M41.971 1.5L40.2031 7.52452" stroke="#B4A571" stroke-width="3" stroke-miterlimit="10" stroke-linecap="round" stroke-linejoin="round"/>
<path d="M57.0573 11.1973L52.3145 15.3047" stroke="#B4A571" stroke-width="3" stroke-miterlimit="10" stroke-linecap="round" stroke-linejoin="round"/>
<path d="M64.5005 27.5059L58.2891 28.4019" stroke="#B4A571" stroke-width="3" stroke-miterlimit="10" stroke-linecap="round" stroke-linejoin="round"/>
<path d="M61.95 45.2553L56.249 42.6533" stroke="#B4A571" stroke-width="3" stroke-miterlimit="10" stroke-linecap="round" stroke-linejoin="round"/>
</svg>
