<svg viewBox="0 0 40 40" fill="none" xmlns="http://www.w3.org/2000/svg" xmlns:xlink="http://www.w3.org/1999/xlink" x="0" y="0"><defs><mask id="mask76_213_13980" style="mask-type:luminance" maskUnits="userSpaceOnUse" x="0" y="-0.004399999999805004" width="40" height="41">
<g id="clip0_4418_4383">
<path id="Vector_832" d="M40,-0.0044h-40v40h40z" fill="white"/>
</g>
</mask></defs><g id="Clip path group_77">
<mask id="mask76_213_13980" style="mask-type:luminance" maskUnits="userSpaceOnUse" x="1242" y="4644" width="40" height="41">
<g id="clip0_4418_4383">
<path id="Vector_832" d="M1282 4644H1242V4684H1282V4644Z" fill="white"/>
</g>
</mask>
<g mask="url(#mask76_213_13980)">
<g id="Group_301">
<path id="Vector_833" d="M31.87,15.1956c-0.65,0 -1.17,0.52 -1.17,1.17v2.63c0,5.9 -4.8,10.7 -10.7,10.7c-5.9,0 -10.7,-4.8 -10.7,-10.7v-2.65c0,-0.65 -0.52,-1.16 -1.17,-1.16c-0.65,0 -1.16,0.51 -1.16,1.16v2.64c0,6.78 5.21,12.36 11.86,12.96v3.55c0,0.65 0.52,1.17 1.17,1.17c0.65,0 1.17,-0.52 1.17,-1.17v-3.55c6.63,-0.58 11.86,-6.18 11.86,-12.96v-2.64c-0.01,-0.63 -0.53,-1.15 -1.16,-1.15z" fill="white"/>
<path id="Vector_834" d="M20,3.8356c3.79,0 6.87,3.07 6.87,6.86v8.54c0,3.79 -3.08,6.86 -6.87,6.86c-3.79,0 -6.87,-3.07 -6.87,-6.86v-8.54c0,-3.79 3.08,-6.86 6.87,-6.86zM21.65,13.2456c-0.94,-0.25 -1.92,-0.28 -2.86,-0.09l-0.4,0.09c-0.78,0.21 -1.27,1.02 -1.04,1.81v0c0.21,0.77 0.99,1.25 1.8,1.03v0c0.56,-0.16 1.15,-0.16 1.71,0h0.02h0.02c0.08,0.02 0.21,0.05 0.35,0.05c0.66,0 1.24,-0.43 1.42,-1.09v0c0.19,-0.77 -0.24,-1.59 -1.02,-1.8zM22.33,9.8656c-1.62,-0.51 -3.38,-0.47 -4.99,0.11v0c-0.76,0.27 -1.15,1.13 -0.88,1.88c0.28,0.76 1.13,1.16 1.89,0.88h0.01c1.05,-0.39 2.23,-0.39 3.28,0l0.02,0.01h0.02c0.15,0.04 0.3,0.07 0.47,0.07c0.6,0 1.16,-0.35 1.38,-0.96h0.01c0.28,-0.77 -0.14,-1.6 -0.88,-1.88h-0.01z" stroke="white"/>
</g>
</g>
</g></svg>