<svg viewBox="0 0 27.8516 27.9043" fill="none" xmlns="http://www.w3.org/2000/svg" xmlns:xlink="http://www.w3.org/1999/xlink" x="0" y="0"><path id="Vector_1219" d="M27.1843,20.5553v4c0.001,0.38 -0.075,0.74 -0.223,1.08c-0.149,0.34 -0.367,0.65 -0.641,0.9c-0.274,0.25 -0.597,0.44 -0.948,0.56c-0.352,0.12 -0.725,0.16 -1.095,0.13c-4.103,-0.44 -8.044,-1.85 -11.506,-4.09c-3.222,-2.05 -5.953,-4.78 -8,-8c-2.254,-3.48 -3.656,-7.44 -4.094,-11.56c-0.033,-0.37 0.011,-0.74 0.129,-1.09c0.118,-0.35 0.308,-0.68 0.558,-0.95c0.249,-0.27 0.553,-0.49 0.892,-0.64c0.338,-0.15 0.704,-0.23 1.075,-0.23h4c0.647,0 1.274,0.22 1.765,0.65c0.49,0.42 0.811,1 0.901,1.64c0.169,1.28 0.482,2.54 0.934,3.75c0.179,0.48 0.218,1 0.111,1.5c-0.106,0.49 -0.353,0.95 -0.711,1.31l-1.694,1.7c1.898,3.34 4.662,6.1 8,8l1.694,-1.7c0.362,-0.35 0.82,-0.6 1.318,-0.71c0.499,-0.1 1.018,-0.06 1.495,0.11c1.21,0.46 2.466,0.77 3.747,0.94c0.647,0.09 1.239,0.42 1.662,0.91c0.422,0.5 0.647,1.14 0.631,1.79z" stroke="#CAD5E2" stroke-width="1.33333" stroke-linecap="round" stroke-linejoin="round"/></svg>