<svg viewBox="0 0 32 32" fill="none" xmlns="http://www.w3.org/2000/svg" xmlns:xlink="http://www.w3.org/1999/xlink" x="0" y="0"><g id="Icon_3">
<path id="Vector_1220" d="M26.665,13.3356c0,6.66 -7.385,13.59 -9.865,15.73c-0.231,0.17 -0.512,0.27 -0.801,0.27c-0.289,0 -0.571,-0.1 -0.802,-0.27c-2.48,-2.14 -9.865,-9.07 -9.865,-15.73c0,-2.83 1.124,-5.54 3.124,-7.54c2.001,-2 4.714,-3.13 7.543,-3.13c2.829,0 5.542,1.13 7.542,3.13c2.001,2 3.124,4.71 3.124,7.54z" stroke="#CAD5E2" stroke-width="1.33333" stroke-linecap="round" stroke-linejoin="round"/>
<path id="Vector_1221" d="M16,17.3356c2.209,0 4,-1.79 4,-4c0,-2.21 -1.791,-4 -4,-4c-2.209,0 -4,1.79 -4,4c0,2.21 1.791,4 4,4z" stroke="#CAD5E2" stroke-width="1.33333" stroke-linecap="round" stroke-linejoin="round"/>
</g></svg>