<svg viewBox="0 0 42 42" fill="none" xmlns="http://www.w3.org/2000/svg" xmlns:xlink="http://www.w3.org/1999/xlink" x="0" y="0"><defs><mask id="mask75_213_13980" style="mask-type:luminance" maskUnits="userSpaceOnUse" x="0" y="-0.004399999999805004" width="42" height="43">
<g id="clip0_4418_9252">
<path id="Vector_829" d="M42,-0.0044h-42v42h42z" fill="white"/>
</g>
</mask></defs><g id="Clip path group_76">
<mask id="mask75_213_13980" style="mask-type:luminance" maskUnits="userSpaceOnUse" x="1241" y="4298" width="42" height="43">
<g id="clip0_4418_9252">
<path id="Vector_829" d="M1283 4298H1241V4340H1283V4298Z" fill="white"/>
</g>
</mask>
<g mask="url(#mask75_213_13980)">
<g id="Group_300">
<path id="Vector_830" d="M15.92,21.0056v-2.59c0,-3.35 2.37,-4.69 5.25,-3.03l2.24,1.29l2.24,1.3c2.89,1.66 2.89,4.39 0,6.05l-2.24,1.3l-2.24,1.29c-2.88,1.67 -5.25,0.3 -5.25,-3.02z" stroke="white" stroke-width="2.5" stroke-miterlimit="10" stroke-linecap="round" stroke-linejoin="round"/>
<path id="Vector_831" d="M21,38.4956c9.66,0 17.5,-7.83 17.5,-17.5c0,-9.66 -7.84,-17.5 -17.5,-17.5c-9.66,0 -17.5,7.84 -17.5,17.5c0,9.67 7.84,17.5 17.5,17.5z" stroke="white" stroke-width="2.5" stroke-linecap="round" stroke-linejoin="round"/>
</g>
</g>
</g></svg>