<svg viewBox="0 0 24 24" fill="none" xmlns="http://www.w3.org/2000/svg" xmlns:xlink="http://www.w3.org/1999/xlink" x="0" y="0"><defs><clipPath id="clip17_213_13980">
<rect width="24" height="24" fill="white" transform="translate(0, -0.004399999999805004)"/>
</clipPath></defs><g id="Copyright_2" clip-path="url(#clip17_213_13980)">
<path id="Vector_1225" d="M12,20.9956c4.97,0 9,-4.03 9,-9c0,-4.97 -4.03,-9 -9,-9c-4.97,0 -9,4.03 -9,9c0,4.97 4.03,9 9,9z" stroke="white" stroke-width="1.5" stroke-linecap="round" stroke-linejoin="round"/>
<path id="Vector_1226" d="M15,14.2456c-0.47,0.63 -1.13,1.1 -1.88,1.33c-0.75,0.24 -1.56,0.23 -2.31,-0.02c-0.74,-0.25 -1.39,-0.72 -1.85,-1.36c-0.46,-0.64 -0.71,-1.41 -0.71,-2.2c0,-0.78 0.25,-1.55 0.71,-2.19c0.46,-0.64 1.11,-1.11 1.85,-1.36c0.75,-0.25 1.56,-0.26 2.31,-0.03c0.75,0.24 1.41,0.7 1.88,1.33" stroke="white" stroke-width="1.5" stroke-linecap="round" stroke-linejoin="round"/>
</g></svg>