<svg width="63" height="63" viewBox="0 0 63 63" fill="none" xmlns="http://www.w3.org/2000/svg">
<g clip-path="url(#clip0_221_23422)">
<mask id="mask0_221_23422" style="mask-type:luminance" maskUnits="userSpaceOnUse" x="0" y="0" width="63" height="63">
<path d="M63 0H0V63H63V0Z" fill="white"/>
</mask>
<g mask="url(#mask0_221_23422)">
<path d="M5.25 40.1345V14.987C5.25 11.4958 7.27125 10.6558 9.73875 13.1233L16.5375 19.922C17.5613 20.9458 19.2413 20.9458 20.2388 19.922L29.6362 10.4983C30.66 9.47453 32.34 9.47453 33.3375 10.4983L42.7613 19.922C43.785 20.9458 45.465 20.9458 46.4625 19.922L53.2613 13.1233C55.7288 10.6558 57.75 11.4958 57.75 14.987V40.1607C57.75 48.0357 52.5 53.2857 44.625 53.2857H18.375C11.13 53.2595 5.25 47.3795 5.25 40.1345Z" stroke="#B4A571" stroke-width="3" stroke-linecap="round" stroke-linejoin="round"/>
</g>
</g>
<defs>
<clipPath id="clip0_221_23422">
<rect width="63" height="63" fill="white"/>
</clipPath>
</defs>
</svg>
