<svg xmlns="http://www.w3.org/2000/svg" width="85" height="97" viewBox="0 0 85 97" fill="none">
  <path d="M79.0289 31.7882C79.1341 35.1866 79.0425 39.1081 79.0423 42.534L79.0409 63.3127L79.0437 78.0194C79.0457 80.5992 79.0808 83.2469 79.0109 85.816C78.9282 88.1618 77.6483 90.2768 75.9417 91.8067C72.6433 94.7642 67.4725 94.0396 63.3046 94.0396L47.3975 94.0387L25.3784 94.0354L18.8172 94.0387C17.5032 94.0446 15.8159 94.096 14.5317 94.0047C12.0158 93.8337 9.67237 92.6641 8.02296 90.7566C5.58653 87.9177 5.95035 85.5122 5.95123 81.9892L5.9554 75.3557L5.95499 53.0467L5.95322 25.0597L5.95091 16.1174C5.95021 11.9204 5.40021 8.17612 8.9639 5.18111C12.1817 2.47677 15.4728 2.97082 19.3354 2.97358L30.8756 2.98069L44.7682 2.97648L49.1066 2.96817C49.6877 2.96722 51.661 2.82065 51.9955 3.2429C53.2374 4.22377 54.4436 5.61911 55.5433 6.78879L61.9068 13.6614L73.7345 26.1491C75.3996 27.918 77.4533 29.9887 79.0289 31.7882Z" fill="#B4A571"/>
  <path d="M51.9963 3.24268C53.2383 4.22355 54.4445 5.61889 55.5442 6.78857L61.9076 13.6612L73.7353 26.1489C75.4005 27.9177 77.4542 29.9884 79.0297 31.788C78.5184 32.0758 67.5777 31.9506 66.1281 31.9512L60.7156 31.9584C59.8244 31.9596 58.5992 31.9975 57.7329 31.9361C56.9791 31.8751 56.2401 31.6932 55.5442 31.3972C51.3592 29.6598 51.8717 26.118 51.8761 22.3414L51.8818 15.6889C51.8806 14.252 51.7694 3.78171 51.9963 3.24268Z" fill="#E4DDC4"/>
  <path d="M41.3346 58.3329C42.57 58.3343 43.8725 58.269 44.9014 59.0399C47.3601 60.8823 47.0981 66.1931 45.5063 68.4276C44.1504 69.7592 43.0799 69.6572 41.3358 69.6588C41.2737 65.946 41.3293 62.058 41.3346 58.3329Z" fill="#B4A571"/>
  <path d="M25.0406 58.3445C26.482 58.3287 28.4026 58.0822 29.5644 59.0522C30.589 59.9076 30.6896 61.8304 29.8217 62.8279C28.693 63.7932 26.5334 63.5265 25.0352 63.5107L25.0406 58.3445Z" fill="#B4A571"/>
</svg>
