<svg width="34" height="34" viewBox="0 0 34 34" fill="none" xmlns="http://www.w3.org/2000/svg">
<g clip-path="url(#clip0_250_11126)">
<mask id="mask0_250_11126" style="mask-type:luminance" maskUnits="userSpaceOnUse" x="0" y="0" width="34" height="34">
<path d="M34 0H0V34H34V0Z" fill="white"/>
</mask>
<g mask="url(#mask0_250_11126)">
<path d="M22.073 16.9999C22.073 19.8049 19.8063 22.0715 17.0013 22.0715C14.1963 22.0715 11.9297 19.8049 11.9297 16.9999C11.9297 14.1949 14.1963 11.9282 17.0013 11.9282C19.8063 11.9282 22.073 14.1949 22.073 16.9999Z" stroke="#9D8F62" stroke-width="2" stroke-linecap="round" stroke-linejoin="round"/>
<path d="M17.0008 28.7168C22.0016 28.7168 26.6625 25.7702 29.9066 20.6702C31.1816 18.6727 31.1816 15.3152 29.9066 13.3177C26.6625 8.21766 22.0016 5.271 17.0008 5.271C11.9999 5.271 7.33909 8.21766 4.09492 13.3177C2.81992 15.3152 2.81992 18.6727 4.09492 20.6702C7.33909 25.7702 11.9999 28.7168 17.0008 28.7168Z" stroke="#9D8F62" stroke-width="2" stroke-linecap="round" stroke-linejoin="round"/>
</g>
</g>
<defs>
<clipPath id="clip0_250_11126">
<rect width="34" height="34" fill="white"/>
</clipPath>
</defs>
</svg>
