<svg width="28" height="28" viewBox="0 0 28 28" fill="none" xmlns="http://www.w3.org/2000/svg">
<g clip-path="url(#clip0_234_24912)">
<mask id="mask0_234_24912" style="mask-type:luminance" maskUnits="userSpaceOnUse" x="0" y="0" width="28" height="28">
<path d="M28 0H0V28H28V0Z" fill="white"/>
</mask>
<g mask="url(#mask0_234_24912)">
<path d="M9.77734 14.0011L12.589 16.8244L18.224 11.1777" stroke="#E4DDC4" stroke-linecap="round" stroke-linejoin="round"/>
<path d="M12.5423 2.85902C13.3473 2.17069 14.6657 2.17069 15.4823 2.85902L17.3257 4.44569C17.6757 4.74902 18.329 4.99402 18.7957 4.99402H20.779C22.0157 4.99402 23.0307 6.00902 23.0307 7.24569V9.22902C23.0307 9.68402 23.2757 10.349 23.579 10.699L25.1657 12.5423C25.854 13.3473 25.854 14.6657 25.1657 15.4823L23.579 17.3257C23.2757 17.6757 23.0307 18.329 23.0307 18.7957V20.779C23.0307 22.0157 22.0157 23.0307 20.779 23.0307H18.7957C18.3407 23.0307 17.6757 23.2757 17.3257 23.579L15.4823 25.1657C14.6773 25.854 13.359 25.854 12.5423 25.1657L10.699 23.579C10.349 23.2757 9.69568 23.0307 9.22901 23.0307H7.21068C5.97401 23.0307 4.95901 22.0157 4.95901 20.779V18.784C4.95901 18.329 4.71401 17.6757 4.42234 17.3257L2.84734 15.4707C2.17068 14.6657 2.17068 13.359 2.84734 12.554L4.42234 10.699C4.71401 10.349 4.95901 9.69569 4.95901 9.24069V7.23402C4.95901 5.99736 5.97401 4.98236 7.21068 4.98236H9.22901C9.68401 4.98236 10.349 4.73736 10.699 4.43402L12.5423 2.85902Z" stroke="#E4DDC4" stroke-linecap="round" stroke-linejoin="round"/>
</g>
</g>
<defs>
<clipPath id="clip0_234_24912">
<rect width="28" height="28" fill="white"/>
</clipPath>
</defs>
</svg>
