<svg width="16" height="16" viewBox="0 0 16 16" fill="none" xmlns="http://www.w3.org/2000/svg">
<g clip-path="url(#clip0_223_9787)">
<mask id="mask0_223_9787" style="mask-type:luminance" maskUnits="userSpaceOnUse" x="0" y="0" width="16" height="16">
<path d="M16 0H0V16H16V0Z" fill="white"/>
</mask>
<g mask="url(#mask0_223_9787)">
<path d="M11.7741 15.1137C11.4207 15.1137 10.9674 15.0004 10.4007 14.667L8.40738 13.487C8.20072 13.367 7.80072 13.367 7.60072 13.487L5.60073 14.667C4.42073 15.367 3.7274 15.087 3.41406 14.8604C3.1074 14.6337 2.6274 14.0537 2.94073 12.7204L3.41406 10.6737C3.4674 10.4604 3.36073 10.0937 3.20073 9.9337L1.5474 8.28036C0.72073 7.4537 0.787396 6.74703 0.90073 6.40037C1.01406 6.05371 1.37406 5.44037 2.52073 5.24704L4.6474 4.8937C4.8474 4.86037 5.13406 4.64704 5.22073 4.46704L6.40073 2.1137C6.93405 1.04037 7.63405 0.880371 8.00072 0.880371C8.36738 0.880371 9.06738 1.04037 9.60072 2.1137L10.7741 4.46037C10.8674 4.64037 11.154 4.8537 11.354 4.88704L13.4807 5.24037C14.6341 5.4337 14.9941 6.04704 15.1007 6.3937C15.2074 6.74037 15.274 7.44703 14.4541 8.2737L12.8007 9.9337C12.6407 10.0937 12.5407 10.4537 12.5874 10.6737L13.0607 12.7204C13.3674 14.0537 12.8941 14.6337 12.5874 14.8604C12.4207 14.9804 12.1541 15.1137 11.7741 15.1137ZM8.00072 12.3937C8.32738 12.3937 8.65405 12.4737 8.91405 12.627L10.9074 13.807C11.4874 14.1537 11.8541 14.1537 11.9941 14.0537C12.1341 13.9537 12.2341 13.6004 12.0874 12.947L11.614 10.9004C11.4874 10.347 11.6941 9.6337 12.0941 9.22703L13.7474 7.5737C14.074 7.24703 14.2207 6.92703 14.1541 6.70703C14.0807 6.48704 13.7741 6.30704 13.3207 6.23371L11.194 5.88037C10.6807 5.7937 10.1207 5.38037 9.88738 4.9137L8.71405 2.56704C8.50072 2.14037 8.23405 1.88704 8.00072 1.88704C7.76738 1.88704 7.50072 2.14037 7.29405 2.56704L6.11406 4.9137C5.88073 5.38037 5.32073 5.7937 4.8074 5.88037L2.6874 6.23371C2.23406 6.30704 1.9274 6.48704 1.85406 6.70703C1.78073 6.92703 1.93406 7.2537 2.26073 7.5737L3.91406 9.22703C4.31406 9.62703 4.52073 10.347 4.39406 10.9004L3.92073 12.947C3.7674 13.607 3.87406 13.9537 4.01406 14.0537C4.15406 14.1537 4.51406 14.147 5.10073 13.807L7.09405 12.627C7.34738 12.4737 7.67405 12.3937 8.00072 12.3937Z" fill="white"/>
</g>
</g>
<defs>
<clipPath id="clip0_223_9787">
<rect width="16" height="16" fill="white"/>
</clipPath>
</defs>
</svg>
