<svg width="16" height="16" viewBox="0 0 16 16" fill="none" xmlns="http://www.w3.org/2000/svg">
<g clip-path="url(#clip0_223_9776)">
<mask id="mask0_223_9776" style="mask-type:luminance" maskUnits="userSpaceOnUse" x="0" y="0" width="16" height="16">
<path d="M16 0H0V16H16V0Z" fill="white"/>
</mask>
<g mask="url(#mask0_223_9776)">
<path d="M8 15.502C7.77674 15.502 7.55349 15.4499 7.36744 15.3457C5.97581 14.5866 3.52744 13.7829 1.99442 13.582L1.7786 13.5522C0.803721 13.4331 0 12.5178 0 11.528V2.53827C0 1.95036 0.230698 1.41455 0.654884 1.02757C1.07907 0.640596 1.62977 0.45455 2.21023 0.506643C3.84744 0.633154 6.31814 1.45176 7.71721 2.3299L7.89581 2.43408C7.94791 2.46385 8.05954 2.46385 8.10419 2.44153L8.22326 2.36711C9.62233 1.48897 12.093 0.65548 13.7377 0.514085C13.7526 0.514085 13.8121 0.514085 13.827 0.514085C14.3702 0.461992 14.9284 0.65548 15.3451 1.04246C15.7693 1.42943 16 1.96525 16 2.55315V11.5355C16 12.5327 15.1963 13.4406 14.214 13.5597L13.9684 13.5894C12.4353 13.7903 9.97954 14.6015 8.61767 15.3531C8.43907 15.4573 8.22326 15.502 8 15.502ZM2.03163 1.61548C1.79349 1.61548 1.57767 1.69734 1.40651 1.85362C1.22047 2.02478 1.11628 2.27036 1.11628 2.53827V11.528C1.11628 11.9671 1.49581 12.3913 1.92 12.4508L2.14326 12.4806C3.81767 12.7038 6.38512 13.5448 7.87349 14.3559C7.94046 14.3857 8.03721 14.3931 8.07442 14.3783C9.56279 13.5522 12.1451 12.7038 13.827 12.4806L14.08 12.4508C14.5042 12.3987 14.8837 11.9671 14.8837 11.528V2.54571C14.8837 2.27036 14.7795 2.03222 14.5935 1.85362C14.4 1.68246 14.1544 1.6006 13.8791 1.61548C13.8642 1.61548 13.8047 1.61548 13.7898 1.61548C12.3684 1.74199 10.0763 2.5085 8.82605 3.2899L8.70698 3.37176C8.29767 3.62478 7.71721 3.62478 7.32279 3.3792L7.14419 3.27501C5.87163 2.49362 3.57953 1.73455 2.12093 1.61548C2.09116 1.61548 2.0614 1.61548 2.03163 1.61548Z" fill="white"/>
<path d="M7.99955 14.8772C7.69443 14.8772 7.44141 14.6242 7.44141 14.3191V3.15628C7.44141 2.85117 7.69443 2.59814 7.99955 2.59814C8.30466 2.59814 8.55769 2.85117 8.55769 3.15628V14.3191C8.55769 14.6316 8.30466 14.8772 7.99955 14.8772Z" fill="white"/>
<path d="M4.83803 5.94733H3.16361C2.85849 5.94733 2.60547 5.69431 2.60547 5.38919C2.60547 5.08408 2.85849 4.83105 3.16361 4.83105H4.83803C5.14314 4.83105 5.39617 5.08408 5.39617 5.38919C5.39617 5.69431 5.14314 5.94733 4.83803 5.94733Z" fill="white"/>
<path d="M5.39617 8.17976H3.16361C2.85849 8.17976 2.60547 7.92673 2.60547 7.62162C2.60547 7.3165 2.85849 7.06348 3.16361 7.06348H5.39617C5.70128 7.06348 5.95431 7.3165 5.95431 7.62162C5.95431 7.92673 5.70128 8.17976 5.39617 8.17976Z" fill="white"/>
</g>
</g>
<defs>
<clipPath id="clip0_223_9776">
<rect width="16" height="16" fill="white"/>
</clipPath>
</defs>
</svg>
