<svg width="16" height="16" viewBox="0 0 16 16" fill="none" xmlns="http://www.w3.org/2000/svg">
<g clip-path="url(#clip0_223_9813)">
<mask id="mask0_223_9813" style="mask-type:luminance" maskUnits="userSpaceOnUse" x="0" y="0" width="16" height="16">
<path d="M16 0H0V16H16V0Z" fill="white"/>
</mask>
<g mask="url(#mask0_223_9813)">
<path d="M12.9131 3.25959L9.00647 1.51959C8.43314 1.26626 7.56647 1.26626 6.99314 1.51959L3.08646 3.25959C2.09979 3.69959 1.95312 4.29959 1.95312 4.61959C1.95312 4.93959 2.09979 5.53959 3.08646 5.97959L6.99314 7.71956C7.2798 7.84623 7.63981 7.9129 7.9998 7.9129C8.35981 7.9129 8.7198 7.84623 9.00647 7.71956L12.9131 5.97959C13.8998 5.53959 14.0465 4.93959 14.0465 4.61959C14.0465 4.29959 13.9065 3.69959 12.9131 3.25959Z" fill="white"/>
<path opacity="0.4" d="M8.00019 11.3602C7.74686 11.3602 7.49353 11.3068 7.2602 11.2068L2.76688 9.20683C2.08021 8.90016 1.54688 8.08016 1.54688 7.32683C1.54688 7.0535 1.76688 6.8335 2.04021 6.8335C2.31354 6.8335 2.53354 7.0535 2.53354 7.32683C2.53354 7.68683 2.83354 8.1535 3.16688 8.30016L7.6602 10.3002C7.87353 10.3935 8.12019 10.3935 8.33353 10.3002L12.8269 8.30016C13.1602 8.1535 13.4602 7.6935 13.4602 7.32683C13.4602 7.0535 13.6802 6.8335 13.9535 6.8335C14.2269 6.8335 14.4469 7.0535 14.4469 7.32683C14.4469 8.0735 13.9135 8.90016 13.2269 9.20683L8.73353 11.2068C8.50686 11.3068 8.25353 11.3602 8.00019 11.3602Z" fill="white"/>
<path opacity="0.4" d="M8.00019 14.6673C7.74686 14.6673 7.49353 14.614 7.2602 14.514L2.76688 12.514C2.02687 12.1873 1.54688 11.4473 1.54688 10.634C1.54688 10.3606 1.76688 10.1406 2.04021 10.1406C2.31354 10.1406 2.53354 10.3606 2.53354 10.634C2.53354 11.054 2.78021 11.434 3.16688 11.6073L7.6602 13.6073C7.87353 13.7006 8.12019 13.7006 8.33353 13.6073L12.8269 11.6073C13.2069 11.4406 13.4602 11.054 13.4602 10.634C13.4602 10.3606 13.6802 10.1406 13.9535 10.1406C14.2269 10.1406 14.4469 10.3606 14.4469 10.634C14.4469 11.4473 13.9669 12.1806 13.2269 12.514L8.73353 14.514C8.50686 14.614 8.25353 14.6673 8.00019 14.6673Z" fill="white"/>
</g>
</g>
<defs>
<clipPath id="clip0_223_9813">
<rect width="16" height="16" fill="white"/>
</clipPath>
</defs>
</svg>
