<svg width="36" height="36" viewBox="0 0 36 36" fill="none" xmlns="http://www.w3.org/2000/svg">
<g clip-path="url(#clip0_250_11203)">
<mask id="mask0_250_11203" style="mask-type:luminance" maskUnits="userSpaceOnUse" x="0" y="0" width="36" height="36">
<path d="M36 0H0V36H36V0Z" fill="white"/>
</mask>
<g mask="url(#mask0_250_11203)">
<path d="M25.5 20.1V24.6C25.5 30.6 23.1 33 17.1 33H11.4C5.4 33 3 30.6 3 24.6V18.9C3 12.9 5.4 10.5 11.4 10.5H15.9" stroke="#9D8F62" stroke-width="2" stroke-linecap="round" stroke-linejoin="round"/>
<path d="M25.5004 20.1H20.7004C17.1004 20.1 15.9004 18.9 15.9004 15.3V10.5L25.5004 20.1Z" stroke="#9D8F62" stroke-width="2" stroke-linecap="round" stroke-linejoin="round"/>
<path d="M17.4004 3H23.4004" stroke="#9D8F62" stroke-width="2" stroke-linecap="round" stroke-linejoin="round"/>
<path d="M10.5 7.5C10.5 5.01 12.51 3 15 3H18.93" stroke="#9D8F62" stroke-width="2" stroke-linecap="round" stroke-linejoin="round"/>
<path d="M33.0002 12V21.285C33.0002 23.61 31.1102 25.5 28.7852 25.5" stroke="#9D8F62" stroke-width="2" stroke-linecap="round" stroke-linejoin="round"/>
<path d="M33 12H28.5C25.125 12 24 10.875 24 7.5V3L33 12Z" stroke="#9D8F62" stroke-width="2" stroke-linecap="round" stroke-linejoin="round"/>
</g>
</g>
<defs>
<clipPath id="clip0_250_11203">
<rect width="36" height="36" fill="white"/>
</clipPath>
</defs>
</svg>
