<svg width="36" height="36" viewBox="0 0 36 36" fill="none" xmlns="http://www.w3.org/2000/svg">
<g clip-path="url(#clip0_250_11053)">
<mask id="mask0_250_11053" style="mask-type:luminance" maskUnits="userSpaceOnUse" x="0" y="0" width="36" height="36">
<path d="M36 0H0V36H36V0Z" fill="white"/>
</mask>
<g mask="url(#mask0_250_11053)">
<path d="M18 23.625C14.895 23.625 12.375 21.105 12.375 18C12.375 14.895 14.895 12.375 18 12.375C21.105 12.375 23.625 14.895 23.625 18C23.625 21.105 21.105 23.625 18 23.625ZM18 14.625C16.14 14.625 14.625 16.14 14.625 18C14.625 19.86 16.14 21.375 18 21.375C19.86 21.375 21.375 19.86 21.375 18C21.375 16.14 19.86 14.625 18 14.625Z" fill="#9D8F62"/>
<path d="M22.815 33.2854C22.5 33.2854 22.185 33.2404 21.87 33.1654C20.94 32.9104 20.16 32.3254 19.665 31.5004L19.485 31.2004C18.6 29.6704 17.385 29.6704 16.5 31.2004L16.335 31.4854C15.84 32.3254 15.06 32.9254 14.13 33.1654C13.185 33.4204 12.21 33.2854 11.385 32.7904L8.805 31.3054C7.89 30.7804 7.23 29.9254 6.945 28.8904C6.675 27.8554 6.81 26.7904 7.335 25.8754C7.77 25.1104 7.89 24.4204 7.635 23.9854C7.38 23.5504 6.735 23.2954 5.85 23.2954C3.66 23.2954 1.875 21.5104 1.875 19.3204V16.6804C1.875 14.4904 3.66 12.7054 5.85 12.7054C6.735 12.7054 7.38 12.4504 7.635 12.0154C7.89 11.5804 7.785 10.8904 7.335 10.1254C6.81 9.21043 6.675 8.13043 6.945 7.11043C7.215 6.07543 7.875 5.22043 8.805 4.69543L11.4 3.21043C13.095 2.20543 15.33 2.79043 16.35 4.51543L16.53 4.81543C17.415 6.34543 18.63 6.34543 19.515 4.81543L19.68 4.53043C20.7 2.79043 22.935 2.20543 24.645 3.22543L27.225 4.71043C28.14 5.23543 28.8 6.09043 29.085 7.12543C29.355 8.16043 29.22 9.22543 28.695 10.1404C28.26 10.9054 28.14 11.5954 28.395 12.0304C28.65 12.4654 29.295 12.7204 30.18 12.7204C32.37 12.7204 34.155 14.5054 34.155 16.6954V19.3354C34.155 21.5254 32.37 23.3104 30.18 23.3104C29.295 23.3104 28.65 23.5654 28.395 24.0004C28.14 24.4354 28.245 25.1254 28.695 25.8904C29.22 26.8054 29.37 27.8854 29.085 28.9054C28.815 29.9404 28.155 30.7954 27.225 31.3204L24.63 32.8054C24.06 33.1204 23.445 33.2854 22.815 33.2854ZM18 27.7354C19.335 27.7354 20.58 28.5754 21.435 30.0604L21.6 30.3454C21.78 30.6604 22.08 30.8854 22.44 30.9754C22.8 31.0654 23.16 31.0204 23.46 30.8404L26.055 29.3404C26.445 29.1154 26.745 28.7404 26.865 28.2904C26.985 27.8404 26.925 27.3754 26.7 26.9854C25.845 25.5154 25.74 24.0004 26.4 22.8454C27.06 21.6904 28.425 21.0304 30.135 21.0304C31.095 21.0304 31.86 20.2654 31.86 19.3054V16.6654C31.86 15.7204 31.095 14.9404 30.135 14.9404C28.425 14.9404 27.06 14.2804 26.4 13.1254C25.74 11.9704 25.845 10.4554 26.7 8.98543C26.925 8.59543 26.985 8.13043 26.865 7.68043C26.745 7.23043 26.46 6.87043 26.07 6.63043L23.475 5.14543C22.83 4.75543 21.975 4.98043 21.585 5.64043L21.42 5.92543C20.565 7.41043 19.32 8.25043 17.985 8.25043C16.65 8.25043 15.405 7.41043 14.55 5.92543L14.385 5.62543C14.01 4.99543 13.17 4.77043 12.525 5.14543L9.93 6.64543C9.54 6.87043 9.24 7.24543 9.12 7.69543C9 8.14543 9.06 8.61043 9.285 9.00043C10.14 10.4704 10.245 11.9854 9.585 13.1404C8.925 14.2954 7.56 14.9554 5.85 14.9554C4.89 14.9554 4.125 15.7204 4.125 16.6804V19.3204C4.125 20.2654 4.89 21.0454 5.85 21.0454C7.56 21.0454 8.925 21.7054 9.585 22.8604C10.245 24.0154 10.14 25.5304 9.285 27.0004C9.06 27.3904 9 27.8554 9.12 28.3054C9.24 28.7554 9.525 29.1154 9.915 29.3554L12.51 30.8404C12.825 31.0354 13.2 31.0804 13.545 30.9904C13.905 30.9004 14.205 30.6604 14.4 30.3454L14.565 30.0604C15.42 28.5904 16.665 27.7354 18 27.7354Z" fill="#9D8F62"/>
</g>
</g>
<defs>
<clipPath id="clip0_250_11053">
<rect width="36" height="36" fill="white"/>
</clipPath>
</defs>
</svg>
