<svg viewBox="0 0 37.5 37.5" fill="none" xmlns="http://www.w3.org/2000/svg" xmlns:xlink="http://www.w3.org/1999/xlink" x="0" y="0"><g id="Vector_1224">
<path fill-rule="evenodd" clip-rule="evenodd" d="M18.75,-0.0044c-5.09,0 -5.73,0.03 -7.73,0.12c-2,0.09 -3.36,0.41 -4.55,0.87c-1.25,0.47 -2.39,1.21 -3.32,2.16c-0.96,0.94 -1.7,2.07 -2.17,3.32c-0.46,1.19 -0.78,2.56 -0.87,4.56c-0.09,1.99 -0.11,2.63 -0.11,7.72c0,5.1 0.02,5.73 0.11,7.73c0.09,2 0.41,3.36 0.88,4.56c0.47,1.25 1.2,2.38 2.16,3.32c0.93,0.95 2.07,1.69 3.32,2.16c1.19,0.46 2.55,0.78 4.55,0.87c2,0.09 2.64,0.11 7.73,0.11c5.09,0 5.73,-0.02 7.73,-0.11c2,-0.09 3.36,-0.41 4.55,-0.87c1.25,-0.47 2.39,-1.21 3.32,-2.16c0.96,-0.94 1.7,-2.07 2.17,-3.32c0.46,-1.2 0.78,-2.56 0.87,-4.56c0.09,-2 0.11,-2.63 0.11,-7.73c0,-5.09 -0.02,-5.73 -0.11,-7.73c-0.09,-1.99 -0.41,-3.36 -0.88,-4.55c-0.47,-1.25 -1.2,-2.38 -2.16,-3.32c-0.93,-0.95 -2.07,-1.69 -3.32,-2.16c-1.19,-0.46 -2.55,-0.78 -4.55,-0.87c-2,-0.09 -2.64,-0.12 -7.73,-0.12zM18.75,3.3756c5.01,0 5.6,0.02 7.58,0.11c1.83,0.09 2.82,0.39 3.48,0.65c0.87,0.34 1.5,0.74 2.16,1.4c0.65,0.66 1.06,1.28 1.4,2.16c0.25,0.66 0.56,1.65 0.64,3.48c0.09,1.97 0.11,2.57 0.11,7.57c0,5.01 -0.02,5.6 -0.11,7.58c-0.08,1.83 -0.38,2.82 -0.64,3.48c-0.3,0.82 -0.78,1.55 -1.4,2.16c-0.61,0.62 -1.35,1.1 -2.16,1.4c-0.66,0.26 -1.65,0.56 -3.48,0.65c-1.98,0.09 -2.57,0.11 -7.58,0.11c-5.01,0 -5.6,-0.02 -7.58,-0.11c-1.82,-0.09 -2.82,-0.39 -3.48,-0.65c-0.81,-0.3 -1.55,-0.78 -2.15,-1.4c-0.63,-0.61 -1.11,-1.34 -1.41,-2.16c-0.25,-0.66 -0.56,-1.65 -0.64,-3.48c-0.09,-1.98 -0.11,-2.57 -0.11,-7.58c0,-5 0.02,-5.6 0.11,-7.57c0.08,-1.83 0.38,-2.82 0.64,-3.48c0.34,-0.88 0.75,-1.5 1.41,-2.16c0.6,-0.62 1.34,-1.1 2.15,-1.4c0.66,-0.26 1.66,-0.56 3.48,-0.65c1.98,-0.09 2.57,-0.11 7.58,-0.11z" fill="currentColor"/>
<path fill-rule="evenodd" clip-rule="evenodd" d="M18.75,25.0056c-0.82,0 -1.64,-0.16 -2.39,-0.48c-0.76,-0.31 -1.45,-0.77 -2.03,-1.35c-0.58,-0.58 -1.05,-1.27 -1.36,-2.03c-0.31,-0.76 -0.48,-1.57 -0.48,-2.4c0,-0.82 0.17,-1.63 0.48,-2.39c0.31,-0.76 0.78,-1.45 1.36,-2.03c0.58,-0.58 1.27,-1.04 2.03,-1.36c0.75,-0.31 1.57,-0.47 2.39,-0.47c1.66,0 3.25,0.66 4.42,1.83c1.18,1.17 1.84,2.77 1.84,4.42c0,1.66 -0.66,3.25 -1.84,4.43c-1.17,1.17 -2.76,1.83 -4.42,1.83zM18.75,9.1156c-2.56,0 -5.01,1.01 -6.81,2.82c-1.81,1.81 -2.83,4.26 -2.83,6.81c0,2.56 1.02,5.01 2.83,6.82c1.8,1.81 4.25,2.82 6.81,2.82c2.56,0 5.01,-1.01 6.81,-2.82c1.81,-1.81 2.83,-4.26 2.83,-6.82c0,-2.55 -1.02,-5 -2.83,-6.81c-1.8,-1.81 -4.25,-2.82 -6.81,-2.82zM31.19,8.9356c0,0.61 -0.24,1.19 -0.67,1.61c-0.42,0.43 -1,0.67 -1.61,0.67c-0.6,0 -1.18,-0.24 -1.61,-0.67c-0.42,-0.42 -0.66,-1 -0.66,-1.61c0,-0.6 0.24,-1.18 0.66,-1.61c0.43,-0.43 1.01,-0.67 1.61,-0.67c0.61,0 1.19,0.24 1.61,0.67c0.43,0.43 0.67,1.01 0.67,1.61z" fill="currentColor"/>
</g></svg>