<svg viewBox="0 0 37.5 37.5" fill="none" xmlns="http://www.w3.org/2000/svg" xmlns:xlink="http://www.w3.org/1999/xlink" x="0" y="0"><path id="Vector_1223" d="M37.5,2.7556v31.99c0,0.73 -0.29,1.43 -0.81,1.95c-0.51,0.51 -1.22,0.8 -1.95,0.8h-31.98c-0.73,0 -1.44,-0.29 -1.95,-0.8c-0.52,-0.52 -0.81,-1.22 -0.81,-1.95v-31.99c0,-0.73 0.29,-1.43 0.81,-1.95c0.51,-0.52 1.22,-0.81 1.95,-0.81h31.98c0.73,0 1.44,0.29 1.95,0.81c0.52,0.52 0.81,1.22 0.81,1.95zM11.03,14.3356h-5.52v17.65h5.52zM11.53,8.2756c0,-0.42 -0.08,-0.83 -0.24,-1.22c-0.15,-0.39 -0.39,-0.74 -0.68,-1.04c-0.29,-0.29 -0.64,-0.53 -1.02,-0.69c-0.39,-0.16 -0.8,-0.25 -1.22,-0.25h-0.1c-0.85,0 -1.66,0.33 -2.26,0.93c-0.6,0.6 -0.94,1.42 -0.94,2.27c0,0.84 0.34,1.66 0.94,2.26c0.6,0.6 1.41,0.93 2.26,0.93c0.42,0.02 0.83,-0.06 1.22,-0.21c0.39,-0.15 0.75,-0.37 1.05,-0.66c0.3,-0.29 0.55,-0.63 0.71,-1.01c0.17,-0.39 0.27,-0.8 0.28,-1.21zM31.99,21.2656c0,-5.31 -3.38,-7.37 -6.73,-7.37c-1.1,-0.05 -2.19,0.18 -3.17,0.68c-0.98,0.5 -1.81,1.25 -2.41,2.17h-0.16v-2.41h-5.18v17.65h5.51v-9.39c-0.08,-0.96 0.23,-1.91 0.85,-2.65c0.62,-0.74 1.5,-1.21 2.46,-1.29h0.21c1.76,0 3.06,1.1 3.06,3.88v9.45h5.51z" fill="currentColor"/></svg>