<svg viewBox="0 0 41.25 28.8763" fill="none" xmlns="http://www.w3.org/2000/svg" xmlns:xlink="http://www.w3.org/1999/xlink" x="0" y="0"><path id="Vector_1222" fill-rule="evenodd" clip-rule="evenodd" d="M36.745,0.8656c1.77,0.47 3.17,1.87 3.64,3.64c0.86,3.22 0.86,9.93 0.86,9.93c0,0 0,6.72 -0.86,9.93c-0.47,1.78 -1.87,3.17 -3.64,3.65c-3.22,0.86 -16.12,0.86 -16.12,0.86c0,0 -12.9,0 -16.12,-0.86c-1.77,-0.48 -3.17,-1.87 -3.64,-3.65c-0.86,-3.21 -0.86,-9.93 -0.86,-9.93c0,0 0,-6.71 0.86,-9.93c0.47,-1.77 1.87,-3.17 3.64,-3.64c3.22,-0.87 16.12,-0.87 16.12,-0.87c0,0 12.9,0 16.12,0.87zM27.215,14.4356l-10.72,6.19v-12.37z" fill="currentColor"/></svg>