<svg viewBox="0 0 45.0003 45.0013" fill="none" xmlns="http://www.w3.org/2000/svg" xmlns:xlink="http://www.w3.org/1999/xlink" x="0" y="0"><g id="Group 61">
<g id="Group_3">
<path id="Vector_111" d="M0,8.8882v-1.935c0,-5.895 4.388,-8.572 9.765,-5.94l9.99,4.905c2.16,1.058 3.938,3.87 3.938,6.255v32.828h-18.945c-2.61,0 -4.748,-2.092 -4.748,-4.657v-22.298" stroke="#D9CEA9" stroke-width="2" stroke-linecap="round" stroke-linejoin="round"/>
<path id="Vector_112" d="M45,29.3852v8.505c0,4.86 -2.25,7.11 -7.11,7.11h-14.198v-26.055l1.058,0.225l10.125,2.272l4.568,1.013c2.97,0.652 5.4,2.182 5.535,6.502c0.022,0.135 0.022,0.27 0.022,0.428z" stroke="#D9CEA9" stroke-width="2" stroke-linecap="round" stroke-linejoin="round"/>
<path id="Vector_113" d="M7.942,15.7502h7.808" stroke="#D9CEA9" stroke-width="2" stroke-linecap="round" stroke-linejoin="round"/>
<path id="Vector_114" d="M7.942,24.7502h7.808" stroke="#D9CEA9" stroke-width="2" stroke-linecap="round" stroke-linejoin="round"/>
<path id="Vector_115" d="M34.875,21.4412v7.246c0,2.79 -2.272,5.062 -5.062,5.062c-2.79,0 -5.063,-2.272 -5.063,-5.062v-9.518z" stroke="#D9CEA9" stroke-width="2" stroke-linecap="round" stroke-linejoin="round"/>
<path id="Vector_116" d="M44.978,28.9562c-0.135,2.655 -2.34,4.793 -5.04,4.793c-2.79,0 -5.063,-2.273 -5.063,-5.063v-7.245l4.568,1.013c2.97,0.652 5.4,2.182 5.535,6.502z" stroke="#D9CEA9" stroke-width="2" stroke-linecap="round" stroke-linejoin="round"/>
</g>
<g id="Group_4" opacity="0.14">
<path id="Vector_117" d="M0,8.8882v-1.935c0,-5.895 4.388,-8.572 9.765,-5.94l9.99,4.905c2.16,1.058 3.938,3.87 3.938,6.255v32.828h-18.945c-2.61,0 -4.748,-2.092 -4.748,-4.657v-22.298" fill="#FCFBF8"/>
<path id="Vector_118" d="M45,29.3852v8.505c0,4.86 -2.25,7.11 -7.11,7.11h-14.198v-26.055l1.058,0.225l10.125,2.272l4.568,1.013c2.97,0.652 5.4,2.182 5.535,6.502c0.022,0.135 0.022,0.27 0.022,0.428z" fill="#FCFBF8"/>
<path id="Vector_119" d="M34.875,21.4412v7.246c0,2.79 -2.272,5.062 -5.062,5.062c-2.79,0 -5.063,-2.272 -5.063,-5.062v-9.518z" fill="#FCFBF8"/>
<path id="Vector_120" d="M44.978,28.9562c-0.135,2.655 -2.34,4.793 -5.04,4.793c-2.79,0 -5.063,-2.273 -5.063,-5.063v-7.245l4.568,1.013c2.97,0.652 5.4,2.182 5.535,6.502z" fill="#FCFBF8"/>
</g>
</g></svg>