<svg viewBox="0 0 53 53" fill="none" xmlns="http://www.w3.org/2000/svg" xmlns:xlink="http://www.w3.org/1999/xlink" x="0" y="0"><defs><mask id="mask0_213_13980" style="mask-type:luminance" maskUnits="userSpaceOnUse" x="-0.5" y="-1" width="54" height="55">
<g id="clip0_4418_5818">
<path id="Vector_94" d="M53.5,-0.5h-54v54h54z" fill="white"/>
</g>
</mask></defs><g id="Clip path group">
<mask id="mask0_213_13980" style="mask-type:luminance" maskUnits="userSpaceOnUse" x="315" y="851" width="54" height="55">
<g id="clip0_4418_5818">
<path id="Vector_94" d="M369 851.5H315V905.5H369V851.5Z" fill="white"/>
</g>
</mask>
<g mask="url(#mask0_213_13980)">
<g id="Group">
<path id="Vector_95" d="M22.112,5.191l-13.545,8.842c-4.342,2.835 -4.342,9.18 0,12.015l13.545,8.843c2.43,1.597 6.435,1.597 8.865,0l13.478,-8.843c4.32,-2.835 4.32,-9.157 0,-11.992l-13.478,-8.843c-2.43,-1.62 -6.435,-1.62 -8.865,-0.022z" stroke="#D9CEA9" stroke-width="2" stroke-linecap="round" stroke-linejoin="round"/>
<path id="Vector_96" opacity="0.14" d="M22.112,5.191l-13.545,8.842c-4.342,2.835 -4.342,9.18 0,12.015l13.545,8.843c2.43,1.597 6.435,1.597 8.865,0l13.478,-8.843c4.32,-2.835 4.32,-9.157 0,-11.992l-13.478,-8.843c-2.43,-1.62 -6.435,-1.62 -8.865,-0.022z" fill="#FCFBF8"/>
<path id="Vector_97" opacity="0.4" d="M12.167,29.93l-0.022,10.553c0,2.857 2.205,5.917 4.905,6.817l7.177,2.385c1.237,0.405 3.285,0.405 4.545,0l7.177,-2.385c2.7,-0.9 4.905,-3.96 4.905,-6.817v-10.44" stroke="#D9CEA9" stroke-width="5" stroke-linecap="round" stroke-linejoin="round"/>
<path id="Vector_98" opacity="0.4" d="M47.65,33.25v-13.5" stroke="#D9CEA9" stroke-width="2" stroke-linecap="round" stroke-linejoin="round"/>
</g>
</g>
</g></svg>