<svg xmlns="http://www.w3.org/2000/svg" viewBox="0 0 5433 1380" preserveAspectRatio="xMidYMid meet" role="img" aria-labelledby="title description">
  <title id="title">إبراهيم حسن</title>
  <desc id="description">شعار اسم إبراهيم حسن بخط ثمانية مع إشارة ماسية بنفسجية.</desc>
  <g fill="#f8f3ff" transform="translate(380 0)">
    <path d="M503 353H483L411 191C457 139 509 84 550 21C498 -8 363 -42 254 -42C106 -42 48 20 48 118C48 164 61 222 69 258H49C28 189 8 115 8 35C8 -102 67 -223 238 -223C347 -223 457 -174 515 -143L567 23C567 24 568 25 568 26C589 7 610 0 640 0C672 0 689 16 689 49V189C620 189 594 185 563 242L545 276C532 303 517 329 503 353ZM355 423C356 424 356 439 355 440L258 537L160 439V424L258 326Z" transform="translate(0 1000) scale(1 -1)" /><path d="M762 0C794 0 810 16 810 48V189C740 189 674 195 671 269L667 354H641L603 197L472 224L491 311L462 317L430 203C402 189 368 185 336 185C291 185 237 196 199 214L245 299L219 313L153 203C113 192 99 189 49 189C16 189 0 173 0 140V0C34 0 67 5 99 26L120 65C155 28 205 0 269 0C317 0 371 16 396 60L575 19L604 138C610 29 684 0 762 0Z" transform="translate(641 1000) scale(1 -1)" /><path d="M133 304C238 304 316 237 435 203C355 189 253 189 85 189H49C17 189 0 172 0 140V0C90 0 158 24 239 93C271 120 340 184 469 184H591L636 303L631 318H593C425 318 324 477 205 477C159 477 126 453 91 422L45 307L55 296C81 299 109 304 133 304Z" transform="translate(1403 1000) scale(1 -1)" /><path d="M208 225C167 151 186 90 259 53C318 23 376 0 456 -15L515 139C548 69 577 0 637 0C667 6 685 13 685 44V189C560 189 576 429 425 429H424C294 429 200 373 113 277C40 196 12 104 27 -4L67 -287H82L135 -156C150 -119 155 -80 151 -40L119 261C161 272 202 279 242 283C234 270 226 257 219 244ZM239 244C267 263 307 287 355 287C436 287 476 219 510 150C403 183 323 210 239 244Z" transform="translate(2297 1000) scale(1 -1)" /><path d="M48 189C16 189 0 173 0 141V0C39 0 101 11 134 36L169 171C162 37 235 0 317 0C349 0 366 17 366 49V189C287 189 235 217 230 291L226 354H206L185 269C178 242 174 218 171 196C146 194 93 189 48 189ZM306 -170C307 -169 307 -156 306 -155L222 -71L147 -146L72 -71L-13 -156V-169L72 -254L147 -179L222 -254Z" transform="translate(2934 1000) scale(1 -1)" /><path d="M207 537 195 529 173 410C108 375 78 305 78 233C78 217 79 203 82 189C71 189 60 189 49 189C16 189 0 173 0 140V0C54 0 107 15 157 38L503 -35L579 150C621 252 560 363 421 448L428 481ZM224 350C291 350 359 293 354 242C329 223 281 209 217 200L94 263C130 326 180 350 224 350ZM370 218C389 249 396 276 394 299C482 241 542 176 558 135L334 171C348 187 360 203 370 218Z" transform="translate(3252 1000) scale(1 -1)" /><path d="M174 760H154L68 654L102 -16H122L175 148C187 186 193 225 193 265V519L228 560Z" transform="translate(3880 1000) scale(1 -1)" /><path d="M80 211 194 49C146 -30 32 -104 -130 -130V-145L84 -259C156 -169 197 -74 209 46C238 12 262 0 301 0C333 0 350 16 350 49V189C281 189 255 185 224 242L164 353H144Z" transform="translate(4143 1000) scale(1 -1)" /><path d="M0 0C54 0 129 17 186 50L236 184C252 226 260 267 259 308L282 362L194 487H174L104 321C149 288 199 240 227 205C174 195 109 189 49 189C17 189 0 172 0 140ZM191 -185C192 -184 192 -169 191 -168L94 -71L-4 -169V-184L94 -282Z" transform="translate(4445 1000) scale(1 -1)" /><path d="M174 760H154L68 654L102 -16H122L175 148C187 186 193 225 193 265V519L228 560ZM7 -336 14 -347 206 -291 244 -215 236 -205 185 -215C174 -216 164 -217 155 -217C91 -217 63 -184 67 -168C70 -156 98 -144 122 -144C152 -144 170 -164 184 -185L201 -182L203 -177C230 -124 210 -66 154 -66C101 -66 69 -117 54 -149C34 -195 34 -238 65 -269C60 -274 56 -279 51 -285Z" transform="translate(4750 1000) scale(1 -1)" />
  </g>
  <path fill="#8b5cf6" d="M 160 425.0 L 295 560.0 L 160 695.0 L 25 560.0 Z" />
</svg>
